;           Gerber:: Drill Report             
;           =====================             
;    Unit                   : metric
;    Format                 : 2.4, Leading Zeros Suppressed
;    Co-ordinate data Mode  : Absolute Data mode
;+----------------------------------------+
;|  D R I L L   T O O L S   T A B L E     |
;+----------------------------------------+
;|    Drill    |    Tool    |    Drill    |
;|    Tool     |    Size    |    Count    |
;+----------------------------------------+
;|          T01|    0.700000|          190|
;|          T02|    0.660400|           24|
;|          T03|    0.604000|            2|
;|          T04|    1.000000|            6|
;+----------------------------------------+

M48

METRIC,LZ,00.0000
T01C0.700000
T02C0.660400
T03C0.604000
T04C1.000000
%
M71
G90
T01
X575829Y-056647
X491856Y-022629
X429837Y075742
X172118Y-060246
X450045Y075957
X467458
X482291Y084126
X505508Y081976
X467673Y017967
X489976Y012592
X647299Y040117
X146672Y059897
X431915Y194813
X317703Y272799
X344498
X263588Y289086
X695982Y147681
X092965Y292741
X024905Y289048
X01Y269791
X180013Y150825
X212092Y200367
X124299Y151828
X086312
X042837Y12988
X057294Y178314
X05149Y203111
X052018Y229491
X020889Y254816
X021945Y120277
X028672Y077244
X007568Y090434
X085653Y074606
Y025803
X11793Y03666
X128464Y045778
X107839
X112298Y-070393
X013489Y-065052
X006546Y-01271
X029024Y01965
X202548Y-046816
X114837Y255535
X183882Y255114
X183461Y229011
X114416Y229432
X183461Y201225
X114416Y201646
X148096
X183882Y174702
X114837Y175123
X148517
X618637Y-057964
X542899Y-057306
X468073Y17254
X664738Y-057964
X066474Y137899
X059422Y-069859
X148096Y229432
X172105Y291159
X117842Y054364
X148517Y255535
X128315Y290103
X298806Y167259
X228971Y035251
X330225Y166827
X168224Y022403
X361239Y1667
X256453Y-019176
X06477Y107188
X357682Y23571
X302516Y237023
X05842Y060198
X290068Y191516
X432755Y233902
X379271Y210049
X129033Y078067
X189403Y060609
X230886Y166116
X249428Y16637
X376547Y271748
X646436Y18304
X569889Y291713
X469322Y222806
X402388Y189034
X527829Y223478
X552375
X422159Y-020523
X46865Y196915
X496894Y197587
X527157
X552712Y197251
X470163Y233061
X57524Y197251
X023114Y047498
X616123Y291187
X646436Y238206
X656578Y290137
X68705Y285408
X695982Y265443
X648012Y197751
X626444Y224473
X676402Y224282
X605166Y242308
X677418Y196342
X574904Y225832
X67664Y256283
X657469Y124722
X685315Y100554
X678485Y163076
X504496Y126791
X210826Y259881
X439041Y032554
X522224Y101854
X606503Y113032
X579374Y-021844
X212092Y232023
X60071Y004572
X698551Y-002187
X6858Y01016
X698551Y-029507
X6604Y01016
X451866Y10287
X646058Y097124
X545476Y130822
X602488Y-022606
X439409Y005272
X230318Y-01729
X58049Y114537
X622841Y101209
X648012Y224546
X625677Y197587
X547116Y147066
X367713Y187983
X647525Y067914
X449988Y252396
X626565Y068451
X646176Y084328
X163504Y091281
X646611Y025327
X626662Y040461
X318934Y201559
X540571Y-005129
X559906Y009582
X6031Y040805
X05334Y09017
X631952Y00635
X467437Y126582
X603455Y067645
X579539Y06657
X677672Y06731
X128054Y126276
X554881Y115034
X553204Y067108
X523607Y068049
X505723Y067358
X67818Y04064
X48616Y068647
X579195Y040805
X29175Y-018906
X554086Y040977
X530697Y040117
X216154Y28956
X292354Y-049022
X635562Y-025304
X422878Y185356
X287756Y272273
X386156Y16698
X534267Y022191
X673753Y-014796
X548132Y-023622
X146304Y015748
X467981Y037162
X442098Y-01702
X45974Y-04572
X414782Y-046228
X379318Y-019445
X375158Y-046228
X338363Y-019176
X413842Y166853
X337058Y-046482
X25019Y-049022
X22924Y005613
X26543Y16698
X467068Y141144
X43905Y151283
X438681Y124186
X429755Y104295
X456037Y04921
X431915Y04957
T02
X484251Y258613
X522604Y259139
X631885Y265443
X413324Y265969
X402816Y289611
X203184Y12501
X149158Y125432
X234744Y063991
X229574Y14787
X402291Y236547
X497231Y223142
X142534Y089844
X455355Y290662
X17758Y125464
X188783Y090419
X49276Y288798
X233882Y088408
X218658Y135518
X565993Y246932
X326815Y229142
X3494Y208658
X533637Y288035
X229861Y111389
X212625Y090419
T03
X599618Y212725
X57912Y26416
T04
X051486Y-02728
X022123Y-027661
X03048Y09652
X084328Y001956
X68072Y-0381
X68326Y12192

M30
