G04 ===== Begin FILE IDENTIFICATION =====*
G04 File Format:  Gerber RS274X*
G04 ===== End FILE IDENTIFICATION =====*
%FSLAX24Y24*%
%MOMM*%
%SFA1.0000B1.0000*%
%OFA0.0B0.0*%
%ADD14C,0.700000*%
%ADD15C,0.660400*%
%ADD16C,0.604000*%
%ADD17C,1.000000*%
%LNhole*%
%IPPOS*%
%LPD*%
G75*
D14*
X575829Y-56647D03*
X491856Y-22629D03*
X429837Y75742D03*
X172118Y-60246D03*
X450045Y75957D03*
X467458D03*
X482291Y84126D03*
X505508Y81976D03*
X467673Y17967D03*
X489976Y12592D03*
X647299Y40117D03*
X146672Y59897D03*
X431915Y194813D03*
X317703Y272799D03*
X344498D03*
D15*
X484251Y258613D03*
X522604Y259139D03*
X631885Y265443D03*
X413324Y265969D03*
X402816Y289611D03*
D14*
X263588Y289086D03*
X695982Y147681D03*
X92965Y292741D03*
X24905Y289048D03*
X10000Y269791D03*
X180013Y150825D03*
D15*
X203184Y125010D03*
X149158Y125432D03*
D14*
X212092Y200367D03*
X124299Y151828D03*
X86312D03*
X42837Y129880D03*
X57294Y178314D03*
X51490Y203111D03*
X52018Y229491D03*
X20889Y254816D03*
X21945Y120277D03*
X28672Y77244D03*
X7568Y90434D03*
X85653Y74606D03*
Y25803D03*
X117930Y36660D03*
X128464Y45778D03*
X107839D03*
X112298Y-70393D03*
X13489Y-65052D03*
X6546Y-12710D03*
X29024Y19650D03*
X202548Y-46816D03*
X114837Y255535D03*
X183882Y255114D03*
X183461Y229011D03*
X114416Y229432D03*
X183461Y201225D03*
X114416Y201646D03*
X148096D03*
X183882Y174702D03*
X114837Y175123D03*
X148517D03*
X618637Y-57964D03*
X542899Y-57306D03*
X468073Y172540D03*
D15*
X234744Y63991D03*
X229574Y147870D03*
D14*
X664738Y-57964D03*
D15*
X402291Y236547D03*
D14*
X66474Y137899D03*
X59422Y-69859D03*
X148096Y229432D03*
X172105Y291159D03*
X117842Y54364D03*
X148517Y255535D03*
X128315Y290103D03*
D16*
X599618Y212725D03*
X579120Y264160D03*
D14*
X298806Y167259D03*
X228971Y35251D03*
X330225Y166827D03*
X168224Y22403D03*
X361239Y166700D03*
X256453Y-19176D03*
X64770Y107188D03*
X357682Y235710D03*
X302516Y237023D03*
X58420Y60198D03*
X290068Y191516D03*
X432755Y233902D03*
X379271Y210049D03*
X129033Y78067D03*
X189403Y60609D03*
X230886Y166116D03*
X249428Y166370D03*
X376547Y271748D03*
X646436Y183040D03*
X569889Y291713D03*
X469322Y222806D03*
X402388Y189034D03*
X527829Y223478D03*
X552375D03*
X422159Y-20523D03*
X468650Y196915D03*
X496894Y197587D03*
X527157D03*
X552712Y197251D03*
X470163Y233061D03*
X575240Y197251D03*
X23114Y47498D03*
X616123Y291187D03*
X646436Y238206D03*
X656578Y290137D03*
X687050Y285408D03*
X695982Y265443D03*
X648012Y197751D03*
X626444Y224473D03*
X676402Y224282D03*
X605166Y242308D03*
X677418Y196342D03*
X574904Y225832D03*
X676640Y256283D03*
X657469Y124722D03*
X685315Y100554D03*
X678485Y163076D03*
X504496Y126791D03*
X210826Y259881D03*
X439041Y32554D03*
X522224Y101854D03*
X606503Y113032D03*
X579374Y-21844D03*
X212092Y232023D03*
X600710Y4572D03*
X698551Y-2187D03*
X685800Y10160D03*
X698551Y-29507D03*
X660400Y10160D03*
X451866Y102870D03*
X646058Y97124D03*
X545476Y130822D03*
X602488Y-22606D03*
X439409Y5272D03*
X230318Y-17290D03*
X580490Y114537D03*
X622841Y101209D03*
X648012Y224546D03*
X625677Y197587D03*
X547116Y147066D03*
X367713Y187983D03*
X647525Y67914D03*
X449988Y252396D03*
X626565Y68451D03*
X646176Y84328D03*
X163504Y91281D03*
X646611Y25327D03*
X626662Y40461D03*
X318934Y201559D03*
X540571Y-5129D03*
X559906Y9582D03*
X603100Y40805D03*
X53340Y90170D03*
X631952Y6350D03*
X467437Y126582D03*
X603455Y67645D03*
X579539Y66570D03*
X677672Y67310D03*
X128054Y126276D03*
X554881Y115034D03*
X553204Y67108D03*
X523607Y68049D03*
X505723Y67358D03*
X678180Y40640D03*
X486160Y68647D03*
X579195Y40805D03*
X291750Y-18906D03*
X554086Y40977D03*
X530697Y40117D03*
X216154Y289560D03*
X292354Y-49022D03*
X635562Y-25304D03*
X422878Y185356D03*
X287756Y272273D03*
X386156Y166980D03*
X534267Y22191D03*
X673753Y-14796D03*
X548132Y-23622D03*
X146304Y15748D03*
X467981Y37162D03*
X442098Y-17020D03*
X459740Y-45720D03*
X414782Y-46228D03*
X379318Y-19445D03*
X375158Y-46228D03*
X338363Y-19176D03*
X413842Y166853D03*
X337058Y-46482D03*
X250190Y-49022D03*
X229240Y5613D03*
X265430Y166980D03*
D15*
X497231Y223142D03*
X142534Y89844D03*
X455355Y290662D03*
X177580Y125464D03*
X188783Y90419D03*
X492760Y288798D03*
X233882Y88408D03*
X218658Y135518D03*
X565993Y246932D03*
X326815Y229142D03*
X349400Y208658D03*
X533637Y288035D03*
D17*
X51486Y-27280D03*
X22123Y-27661D03*
X30480Y96520D03*
X84328Y1956D03*
X680720Y-38100D03*
X683260Y121920D03*
D15*
X229861Y111389D03*
X212625Y90419D03*
D14*
X467068Y141144D03*
X439050Y151283D03*
X438681Y124186D03*
X429755Y104295D03*
X456037Y49210D03*
X431915Y49570D03*
M02*

