G04 ===== Begin FILE IDENTIFICATION =====*
G04 File Format:  Gerber RS274X*
G04 ===== End FILE IDENTIFICATION =====*
%FSLAX24Y24*%
%MOMM*%
%SFA1.0000B1.0000*%
%OFA0.0B0.0*%
%ADD10C,0.025000*%
%LNsilkscreen_top*%
%IPPOS*%
%LPD*%
G75*
G36*
G01X230655Y266200D02*
G01X230687Y266002D01*
G01X230518Y265983D01*
G01X230330Y266021D01*
G01X230236Y266122D01*
G01X230208Y266386D01*
G01Y267143D01*
G01X230045D01*
G01Y267317D01*
G01X230208D01*
G01Y267643D01*
G01X230430Y267777D01*
G01Y267317D01*
G01X230655D01*
G01Y267143D01*
G01X230430D01*
G01Y266373D01*
G01X230442Y266251D01*
G01X230481Y266207D01*
G01X230557Y266191D01*
G01X230655Y266200D01*
G37*
G36*
G01X230804Y266647D02*
G01X230974Y266148D01*
G01X231432Y265970D01*
G01X231809Y266082D01*
G01X232011Y266396D01*
G01X231780Y266424D01*
G01X231643Y266218D01*
G01X231433Y266154D01*
G01X231158Y266269D01*
G01X231035Y266602D01*
G01X232017D01*
G01X232018Y266661D01*
G01X231851Y267167D01*
G01X231422Y267346D01*
G01Y267163D01*
G01X231698Y267034D01*
G01X231783Y266785D01*
G01X231047D01*
G01X231163Y267060D01*
G01X231422Y267163D01*
G01Y267346D01*
G01X231419Y267347D01*
G01X230975Y267163D01*
G01X230804Y266647D01*
G37*
G36*
G01X232212Y266393D02*
G01X232432Y266428D01*
G01X232536Y266224D01*
G01X232774Y266154D01*
G01X233002Y266216D01*
G01X233076Y266363D01*
G01X233010Y266482D01*
G01X232782Y266558D01*
G01X232442Y266665D01*
G01X232298Y266791D01*
G01X232249Y266967D01*
G01X232289Y267130D01*
G01X232399Y267255D01*
G01X232541Y267320D01*
G01X232734Y267347D01*
G01X233006Y267302D01*
G01X233179Y267181D01*
G01X233256Y266977D01*
G01X233038Y266948D01*
G01X232952Y267106D01*
G01X232750Y267163D01*
G01X232530Y267112D01*
G01X232465Y266993D01*
G01X232492Y266915D01*
G01X232578Y266856D01*
G01X232775Y266799D01*
G01X233105Y266695D01*
G01X233252Y266578D01*
G01X233306Y266387D01*
G01X233241Y266177D01*
G01X233053Y266024D01*
G01X232775Y265970D01*
G01X232384Y266077D01*
G01X232212Y266393D01*
G37*
G36*
G01X234109Y266200D02*
G01X234141Y266002D01*
G01X233973Y265983D01*
G01X233784Y266021D01*
G01X233690Y266122D01*
G01X233663Y266386D01*
G01Y267143D01*
G01X233499D01*
G01Y267317D01*
G01X233663D01*
G01Y267643D01*
G01X233885Y267777D01*
G01Y267317D01*
G01X234109D01*
G01Y267143D01*
G01X233885D01*
G01Y266373D01*
G01X233897Y266251D01*
G01X233935Y266207D01*
G01X234011Y266191D01*
G01X234109Y266200D01*
G37*
M02*

