G04 ===== Begin FILE IDENTIFICATION =====*
G04 File Format:  Gerber RS274X*
G04 ===== End FILE IDENTIFICATION =====*
%FSLAX24Y24*%
%MOMM*%
%SFA1.0000B1.0000*%
%OFA0.0B0.0*%
%ADD14R,1.806400X1.606400*%
%ADD15R,4.606400X1.756400*%
%ADD16R,1.676400X4.006400*%
%ADD17R,1.756400X4.606400*%
%ADD18R,0.625600X2.117600*%
%ADD19R,1.854200X1.701800*%
%ADD20R,2.311400X2.311400*%
%ADD21R,1.906400X1.706400*%
%ADD22R,1.706400X1.906400*%
%ADD23R,2.816400X2.186400*%
%ADD24R,4.006400X1.676400*%
%ADD25R,1.106400X1.306400*%
%ADD26R,0.886400X1.612800*%
%ADD27R,1.612800X0.886400*%
%ADD28C,2.286000*%
%ADD29R,0.812800X1.752600*%
%ADD30R,2.006600X1.803400*%
%ADD31R,3.911600X1.371600*%
%ADD32R,1.506400X1.406400*%
%ADD33R,1.676400X1.066800*%
%ADD34R,1.306400X1.106400*%
%ADD35R,1.676400X1.041400*%
%ADD36R,10.769600X11.125200*%
%ADD37R,1.906400X1.906400*%
%LNsoldermask_top*%
%IPPOS*%
%LPD*%
G75*
G36*
G01X609829Y168673D02*
G01X610060Y168683D01*
G01X610114Y168693D01*
G01X610168Y168697D01*
G01X610394Y168745D01*
G01X610620Y168787D01*
G01X610672Y168804D01*
G01X610726Y168816D01*
G01X610942Y168895D01*
G01X611160Y168968D01*
G01X611209Y168993D01*
G01X611261Y169012D01*
G01X611464Y169120D01*
G01X611669Y169223D01*
G01X611715Y169254D01*
G01X611763Y169280D01*
G01X611949Y169416D01*
G01X612138Y169547D01*
G01X612179Y169584D01*
G01X612223Y169617D01*
G01X612388Y169777D01*
G01X612557Y169933D01*
G01X612592Y169976D01*
G01X612631Y170014D01*
G01X612772Y170196D01*
G01X612918Y170374D01*
G01X612946Y170422D01*
G01X612980Y170465D01*
G01X613094Y170665D01*
G01X613213Y170862D01*
G01X613235Y170912D01*
G01X613262Y170960D01*
G01X613347Y171174D01*
G01X613438Y171385D01*
G01X613452Y171438D01*
G01X613472Y171489D01*
G01X613527Y171714D01*
G01X613587Y171935D01*
G01X613591Y171979D01*
G01X613607Y172043D01*
G01X613662Y172610D01*
G01X613659Y172676D01*
G01X613663Y172720D01*
G01Y194057D01*
G01X701040D01*
G01X701269Y194073D01*
G01X701500Y194083D01*
G01X701554Y194093D01*
G01X701608Y194097D01*
G01X701834Y194145D01*
G01X702060Y194187D01*
G01X702112Y194204D01*
G01X702166Y194216D01*
G01X702382Y194295D01*
G01X702600Y194368D01*
G01X702649Y194393D01*
G01X702701Y194412D01*
G01X702904Y194520D01*
G01X703109Y194623D01*
G01X703155Y194654D01*
G01X703203Y194680D01*
G01X703389Y194816D01*
G01X703578Y194947D01*
G01X703619Y194984D01*
G01X703663Y195017D01*
G01X703828Y195177D01*
G01X703997Y195333D01*
G01X704032Y195376D01*
G01X704071Y195414D01*
G01X704212Y195596D01*
G01X704358Y195774D01*
G01X704386Y195822D01*
G01X704420Y195865D01*
G01X704534Y196065D01*
G01X704653Y196262D01*
G01X704675Y196312D01*
G01X704702Y196360D01*
G01X704787Y196574D01*
G01X704878Y196785D01*
G01X704892Y196838D01*
G01X704912Y196889D01*
G01X704967Y197114D01*
G01X705027Y197335D01*
G01X705031Y197379D01*
G01X705047Y197443D01*
G01X705102Y198010D01*
G01X705099Y198076D01*
G01X705103Y198120D01*
G01Y220980D01*
G01X705087Y221209D01*
G01X705077Y221440D01*
G01X705067Y221494D01*
G01X705063Y221548D01*
G01X705015Y221774D01*
G01X704973Y222000D01*
G01X704956Y222052D01*
G01X704944Y222106D01*
G01X704865Y222322D01*
G01X704792Y222540D01*
G01X704767Y222589D01*
G01X704748Y222641D01*
G01X704640Y222844D01*
G01X704537Y223049D01*
G01X704506Y223095D01*
G01X704480Y223143D01*
G01X704344Y223329D01*
G01X704213Y223518D01*
G01X704176Y223559D01*
G01X704143Y223603D01*
G01X703983Y223768D01*
G01X703827Y223937D01*
G01X703784Y223972D01*
G01X703746Y224011D01*
G01X703564Y224152D01*
G01X703386Y224298D01*
G01X703338Y224326D01*
G01X703295Y224360D01*
G01X703095Y224474D01*
G01X702898Y224593D01*
G01X702848Y224615D01*
G01X702800Y224642D01*
G01X702586Y224727D01*
G01X702375Y224818D01*
G01X702322Y224832D01*
G01X702271Y224852D01*
G01X702046Y224907D01*
G01X701825Y224967D01*
G01X701781Y224971D01*
G01X701717Y224987D01*
G01X701150Y225042D01*
G01X701084Y225039D01*
G01X701040Y225043D01*
G01X609600D01*
G01X609371Y225027D01*
G01X609140Y225017D01*
G01X609086Y225007D01*
G01X609032Y225003D01*
G01X608806Y224955D01*
G01X608580Y224913D01*
G01X608528Y224896D01*
G01X608474Y224884D01*
G01X608258Y224805D01*
G01X608040Y224732D01*
G01X607991Y224707D01*
G01X607939Y224688D01*
G01X607736Y224580D01*
G01X607531Y224477D01*
G01X607485Y224446D01*
G01X607437Y224420D01*
G01X607251Y224284D01*
G01X607062Y224153D01*
G01X607021Y224116D01*
G01X606977Y224083D01*
G01X606812Y223923D01*
G01X606643Y223767D01*
G01X606608Y223724D01*
G01X606569Y223686D01*
G01X606428Y223504D01*
G01X606282Y223326D01*
G01X606254Y223278D01*
G01X606220Y223235D01*
G01X606106Y223035D01*
G01X605987Y222838D01*
G01X605965Y222788D01*
G01X605938Y222740D01*
G01X605853Y222526D01*
G01X605762Y222315D01*
G01X605748Y222262D01*
G01X605728Y222211D01*
G01X605673Y221986D01*
G01X605613Y221765D01*
G01X605609Y221721D01*
G01X605594Y221657D01*
G01X605538Y221090D01*
G01X605541Y221024D01*
G01X605537Y220980D01*
G01Y199643D01*
G01X600963D01*
G01Y200660D01*
G01X600947Y200889D01*
G01X600937Y201120D01*
G01X600927Y201174D01*
G01X600923Y201228D01*
G01X600875Y201454D01*
G01X600833Y201680D01*
G01X600816Y201732D01*
G01X600804Y201786D01*
G01X600725Y202002D01*
G01X600652Y202220D01*
G01X600627Y202269D01*
G01X600608Y202321D01*
G01X600500Y202524D01*
G01X600397Y202729D01*
G01X600366Y202775D01*
G01X600340Y202823D01*
G01X600204Y203009D01*
G01X600073Y203198D01*
G01X600036Y203239D01*
G01X600003Y203283D01*
G01X599843Y203448D01*
G01X599687Y203617D01*
G01X599644Y203652D01*
G01X599606Y203691D01*
G01X599424Y203832D01*
G01X599246Y203978D01*
G01X599198Y204006D01*
G01X599155Y204040D01*
G01X598955Y204154D01*
G01X598758Y204273D01*
G01X598708Y204295D01*
G01X598660Y204322D01*
G01X598446Y204407D01*
G01X598235Y204498D01*
G01X598182Y204512D01*
G01X598131Y204532D01*
G01X597906Y204587D01*
G01X597685Y204647D01*
G01X597641Y204651D01*
G01X597577Y204667D01*
G01X597010Y204722D01*
G01X596944Y204719D01*
G01X596900Y204723D01*
G01X586740D01*
G01X586511Y204707D01*
G01X586280Y204697D01*
G01X586226Y204687D01*
G01X586172Y204683D01*
G01X585946Y204635D01*
G01X585723Y204594D01*
G01Y218440D01*
G01X585719Y218500D01*
G01X585721Y218561D01*
G01X585699Y218784D01*
G01X585683Y219008D01*
G01X585671Y219068D01*
G01X585665Y219128D01*
G01X585611Y219346D01*
G01X585564Y219566D01*
G01X585544Y219622D01*
G01X585529Y219681D01*
G01X585446Y219890D01*
G01X585368Y220101D01*
G01X585340Y220154D01*
G01X585318Y220210D01*
G01X585206Y220405D01*
G01X585100Y220603D01*
G01X585064Y220652D01*
G01X585034Y220704D01*
G01X584959Y220795D01*
G01X584763Y221063D01*
G01X584606Y221224D01*
G01X584533Y221313D01*
G01X581993Y223853D01*
G01X581949Y223891D01*
G01X581910Y223933D01*
G01X581909Y223934D01*
G01X581907Y223937D01*
G01X581733Y224079D01*
G01X581563Y224227D01*
G01X581512Y224260D01*
G01X581466Y224298D01*
G01X581273Y224415D01*
G01X581085Y224537D01*
G01X581030Y224562D01*
G01X580978Y224593D01*
G01X580772Y224682D01*
G01X580568Y224777D01*
G01X580510Y224794D01*
G01X580455Y224818D01*
G01X580238Y224876D01*
G01X580023Y224942D01*
G01X579963Y224951D01*
G01X579905Y224967D01*
G01X579788Y224978D01*
G01X579460Y225029D01*
G01X579235Y225032D01*
G01X579120Y225043D01*
G01X464820D01*
G01X464591Y225027D01*
G01X464360Y225017D01*
G01X464306Y225007D01*
G01X464252Y225003D01*
G01X464026Y224955D01*
G01X463800Y224913D01*
G01X463748Y224896D01*
G01X463694Y224884D01*
G01X463478Y224805D01*
G01X463260Y224732D01*
G01X463211Y224707D01*
G01X463159Y224688D01*
G01X462956Y224580D01*
G01X462751Y224477D01*
G01X462705Y224446D01*
G01X462657Y224420D01*
G01X462471Y224284D01*
G01X462282Y224153D01*
G01X462241Y224116D01*
G01X462197Y224083D01*
G01X462032Y223923D01*
G01X461863Y223767D01*
G01X461828Y223724D01*
G01X461789Y223686D01*
G01X461648Y223504D01*
G01X461502Y223326D01*
G01X461474Y223278D01*
G01X461440Y223235D01*
G01X461326Y223035D01*
G01X461207Y222838D01*
G01X461185Y222788D01*
G01X461158Y222740D01*
G01X461073Y222526D01*
G01X460982Y222315D01*
G01X460968Y222262D01*
G01X460948Y222211D01*
G01X460893Y221986D01*
G01X460833Y221765D01*
G01X460829Y221721D01*
G01X460814Y221657D01*
G01X460758Y221090D01*
G01Y221086D01*
G01X460761Y221023D01*
G01X460757Y220980D01*
G01Y200660D01*
G01X460773Y200431D01*
G01X460783Y200200D01*
G01X460793Y200146D01*
G01X460797Y200092D01*
G01X460845Y199866D01*
G01X460887Y199640D01*
G01X460904Y199588D01*
G01X460916Y199534D01*
G01X460995Y199318D01*
G01X461068Y199100D01*
G01X461093Y199051D01*
G01X461112Y198999D01*
G01X461220Y198796D01*
G01X461323Y198591D01*
G01X461354Y198545D01*
G01X461380Y198497D01*
G01X461516Y198311D01*
G01X461647Y198122D01*
G01X461684Y198081D01*
G01X461717Y198037D01*
G01X461877Y197872D01*
G01X462033Y197703D01*
G01X462076Y197668D01*
G01X462114Y197629D01*
G01X462296Y197488D01*
G01X462474Y197342D01*
G01X462522Y197314D01*
G01X462565Y197280D01*
G01X462765Y197166D01*
G01X462962Y197047D01*
G01X463012Y197025D01*
G01X463060Y196998D01*
G01X463274Y196913D01*
G01X463485Y196822D01*
G01X463538Y196808D01*
G01X463589Y196788D01*
G01X463814Y196733D01*
G01X464035Y196673D01*
G01X464079Y196669D01*
G01X464143Y196654D01*
G01X464710Y196598D01*
G01X464776Y196601D01*
G01X464820Y196597D01*
G01X581660D01*
G01X581889Y196613D01*
G01X582120Y196623D01*
G01X582174Y196633D01*
G01X582228Y196637D01*
G01X582454Y196685D01*
G01X582677Y196726D01*
G01Y175260D01*
G01X582693Y175031D01*
G01X582703Y174800D01*
G01X582713Y174746D01*
G01X582717Y174692D01*
G01X582765Y174466D01*
G01X582807Y174240D01*
G01X582824Y174188D01*
G01X582836Y174134D01*
G01X582915Y173918D01*
G01X582988Y173700D01*
G01X583013Y173651D01*
G01X583032Y173599D01*
G01X583140Y173396D01*
G01X583243Y173191D01*
G01X583274Y173145D01*
G01X583300Y173097D01*
G01X583436Y172911D01*
G01X583567Y172722D01*
G01X583604Y172681D01*
G01X583637Y172637D01*
G01X583797Y172472D01*
G01X583953Y172303D01*
G01X583996Y172268D01*
G01X584034Y172229D01*
G01X584216Y172088D01*
G01X584394Y171942D01*
G01X584442Y171914D01*
G01X584485Y171880D01*
G01X584685Y171766D01*
G01X584882Y171647D01*
G01X584932Y171625D01*
G01X584980Y171598D01*
G01X585194Y171513D01*
G01X585405Y171422D01*
G01X585458Y171408D01*
G01X585509Y171388D01*
G01X585734Y171333D01*
G01X585955Y171273D01*
G01X585999Y171269D01*
G01X586063Y171254D01*
G01X586630Y171198D01*
G01X586696Y171201D01*
G01X586740Y171197D01*
G01X595676D01*
G01X595688Y171160D01*
G01X595713Y171111D01*
G01X595732Y171059D01*
G01X595840Y170856D01*
G01X595943Y170651D01*
G01X595974Y170605D01*
G01X596000Y170557D01*
G01X596136Y170371D01*
G01X596267Y170182D01*
G01X596304Y170141D01*
G01X596337Y170097D01*
G01X596497Y169932D01*
G01X596653Y169763D01*
G01X596696Y169728D01*
G01X596734Y169689D01*
G01X596916Y169548D01*
G01X597094Y169402D01*
G01X597142Y169374D01*
G01X597185Y169340D01*
G01X597385Y169226D01*
G01X597582Y169107D01*
G01X597632Y169085D01*
G01X597680Y169058D01*
G01X597894Y168973D01*
G01X598105Y168882D01*
G01X598158Y168868D01*
G01X598209Y168848D01*
G01X598434Y168793D01*
G01X598655Y168733D01*
G01X598699Y168729D01*
G01X598763Y168714D01*
G01X599330Y168658D01*
G01X599396Y168661D01*
G01X599440Y168657D01*
G01X609600D01*
G01X609829Y168673D01*
G37*
D14*
X200863Y-5424D03*
X257099Y238622D03*
D15*
X677882Y82987D03*
X677120Y181935D03*
D16*
X330835Y273888D03*
D17*
X302585Y271888D03*
D18*
X458528Y192833D03*
G36*
G01X107913Y20246D02*
G01X103243Y24916D01*
G01X111145Y32818D01*
G01X115815Y28148D01*
G01X107913Y20246D01*
G37*
G36*
G01X123738Y31684D02*
G01X128408Y36354D01*
G01X136310Y28452D01*
G01X131640Y23782D01*
G01X123738Y31684D01*
G37*
G36*
G01X139014Y44276D02*
G01X134344Y48946D01*
G01X142246Y56848D01*
G01X146916Y52178D01*
G01X139014Y44276D01*
G37*
G36*
G01X100842Y27317D02*
G01X96172Y31987D01*
G01X104074Y39889D01*
G01X108744Y35219D01*
G01X100842Y27317D01*
G37*
G36*
G01X116667Y24613D02*
G01X121337Y29283D01*
G01X129239Y21381D01*
G01X124569Y16711D01*
G01X116667Y24613D01*
G37*
G36*
G01X130809Y38755D02*
G01X135479Y43425D01*
G01X143381Y35523D01*
G01X138711Y30853D01*
G01X130809Y38755D01*
G37*
D19*
X147158Y-51055D03*
D20*
X100908D03*
D21*
X514680Y19380D03*
D22*
X505536Y156083D03*
X201143Y-26238D03*
D21*
X234061Y189458D03*
D18*
X448528Y233633D03*
D23*
X451028Y213233D03*
G36*
G01X111448Y16711D02*
G01X106778Y21381D01*
G01X114680Y29283D01*
G01X119350Y24613D01*
G01X111448Y16711D01*
G37*
G36*
G01X127273Y35219D02*
G01X131943Y39889D01*
G01X139845Y31987D01*
G01X135175Y27317D01*
G01X127273Y35219D01*
G37*
G36*
G01X527832Y-53590D02*
G01X527851Y-53592D01*
G01X527953Y-53570D01*
G01X528055Y-53554D01*
G01X528072Y-53544D01*
G01X528092Y-53540D01*
G01X528181Y-53487D01*
G01X528272Y-53438D01*
G01X528286Y-53424D01*
G01X528303Y-53414D01*
G01X528370Y-53335D01*
G01X528442Y-53260D01*
G01X528450Y-53242D01*
G01X528463Y-53227D01*
G01X528502Y-53131D01*
G01X528545Y-53037D01*
G01X528547Y-53017D01*
G01X528555Y-52999D01*
G01X528573Y-52832D01*
G01Y41657D01*
G01X652019D01*
G01Y17079D01*
G01X651480Y16540D01*
G01X651438Y16482D01*
G01X651389Y16430D01*
G01X651367Y16383D01*
G01X651336Y16341D01*
G01X651315Y16272D01*
G01X651285Y16207D01*
G01X651279Y16155D01*
G01X651264Y16105D01*
G01X651266Y16034D01*
G01X651258Y15963D01*
G01X651269Y15912D01*
G01X651270Y15860D01*
G01X651295Y15792D01*
G01X651310Y15722D01*
G01X651337Y15678D01*
G01X651355Y15629D01*
G01X651400Y15573D01*
G01X651436Y15511D01*
G01X651476Y15477D01*
G01X651508Y15437D01*
G01X651569Y15398D01*
G01X651623Y15351D01*
G01X651671Y15332D01*
G01X651715Y15304D01*
G01X651785Y15286D01*
G01X651851Y15259D01*
G01X651923Y15251D01*
G01X651954Y15243D01*
G01X651977Y15245D01*
G01X652018Y15241D01*
G01X700532D01*
G01X700622Y15256D01*
G01X700713Y15263D01*
G01X700743Y15275D01*
G01X700775Y15281D01*
G01X700855Y15323D01*
G01X700939Y15359D01*
G01X700971Y15385D01*
G01X700992Y15396D01*
G01X701014Y15419D01*
G01X701070Y15464D01*
G01X702594Y16988D01*
G01X702636Y17046D01*
G01X702684Y17096D01*
G01X702692Y17114D01*
G01X702707Y17131D01*
G01X702719Y17161D01*
G01X702738Y17187D01*
G01X702760Y17261D01*
G01X702788Y17320D01*
G01X702789Y17336D01*
G01X702799Y17359D01*
G01X702803Y17400D01*
G01X702810Y17423D01*
G01X702809Y17455D01*
G01X702817Y17526D01*
G01Y42074D01*
G01X702904Y42120D01*
G01X703109Y42223D01*
G01X703155Y42254D01*
G01X703203Y42280D01*
G01X703389Y42416D01*
G01X703578Y42547D01*
G01X703619Y42584D01*
G01X703663Y42617D01*
G01X703828Y42777D01*
G01X703997Y42933D01*
G01X704032Y42976D01*
G01X704071Y43014D01*
G01X704212Y43196D01*
G01X704358Y43374D01*
G01X704386Y43422D01*
G01X704420Y43465D01*
G01X704534Y43665D01*
G01X704653Y43862D01*
G01X704675Y43912D01*
G01X704702Y43960D01*
G01X704787Y44174D01*
G01X704878Y44385D01*
G01X704892Y44438D01*
G01X704912Y44489D01*
G01X704967Y44714D01*
G01X705027Y44935D01*
G01X705031Y44979D01*
G01X705047Y45043D01*
G01X705102Y45610D01*
G01X705099Y45676D01*
G01X705103Y45720D01*
G01Y60960D01*
G01X705099Y61020D01*
G01X705101Y61081D01*
G01X705079Y61304D01*
G01X705063Y61528D01*
G01X705051Y61588D01*
G01X705045Y61648D01*
G01X704991Y61866D01*
G01X704944Y62086D01*
G01X704924Y62142D01*
G01X704909Y62201D01*
G01X704826Y62410D01*
G01X704748Y62621D01*
G01X704720Y62674D01*
G01X704698Y62730D01*
G01X704586Y62925D01*
G01X704480Y63123D01*
G01X704444Y63172D01*
G01X704414Y63224D01*
G01X704339Y63315D01*
G01X704143Y63583D01*
G01X703986Y63744D01*
G01X703913Y63833D01*
G01X702817Y64929D01*
G01Y93726D01*
G01X702803Y93816D01*
G01X702795Y93907D01*
G01X702783Y93937D01*
G01X702778Y93969D01*
G01X702735Y94049D01*
G01X702699Y94133D01*
G01X702673Y94165D01*
G01X702662Y94186D01*
G01X702639Y94208D01*
G01X702594Y94264D01*
G01X701832Y95026D01*
G01X701758Y95079D01*
G01X701689Y95139D01*
G01X701659Y95151D01*
G01X701633Y95170D01*
G01X701546Y95197D01*
G01X701461Y95231D01*
G01X701420Y95235D01*
G01X701397Y95242D01*
G01X701365Y95241D01*
G01X701294Y95249D01*
G01X652780D01*
G01X652690Y95235D01*
G01X652599Y95227D01*
G01X652569Y95215D01*
G01X652537Y95210D01*
G01X652457Y95167D01*
G01X652373Y95131D01*
G01X652341Y95105D01*
G01X652320Y95094D01*
G01X652298Y95071D01*
G01X652242Y95026D01*
G01X651988Y94772D01*
G01X651946Y94714D01*
G01X651897Y94662D01*
G01X651875Y94615D01*
G01X651844Y94573D01*
G01X651823Y94504D01*
G01X651793Y94439D01*
G01X651787Y94387D01*
G01X651772Y94337D01*
G01X651774Y94266D01*
G01X651766Y94195D01*
G01X651777Y94144D01*
G01X651778Y94092D01*
G01X651803Y94024D01*
G01X651818Y93954D01*
G01X651845Y93910D01*
G01X651863Y93861D01*
G01X651908Y93805D01*
G01X651944Y93743D01*
G01X651984Y93709D01*
G01X652016Y93669D01*
G01X652019Y93667D01*
G01Y70103D01*
G01X520700D01*
G01X520471Y70087D01*
G01X520240Y70077D01*
G01X520186Y70067D01*
G01X520132Y70063D01*
G01X519906Y70015D01*
G01X519680Y69973D01*
G01X519628Y69956D01*
G01X519574Y69944D01*
G01X519358Y69865D01*
G01X519140Y69792D01*
G01X519091Y69767D01*
G01X519039Y69748D01*
G01X518836Y69640D01*
G01X518631Y69537D01*
G01X518585Y69506D01*
G01X518537Y69480D01*
G01X518351Y69344D01*
G01X518162Y69213D01*
G01X518121Y69176D01*
G01X518077Y69143D01*
G01X517912Y68983D01*
G01X517743Y68827D01*
G01X517708Y68784D01*
G01X517669Y68746D01*
G01X517528Y68564D01*
G01X517382Y68386D01*
G01X517354Y68338D01*
G01X517320Y68295D01*
G01X517206Y68095D01*
G01X517087Y67898D01*
G01X517065Y67848D01*
G01X517038Y67800D01*
G01X516953Y67586D01*
G01X516862Y67375D01*
G01X516848Y67322D01*
G01X516828Y67271D01*
G01X516775Y67055D01*
G01X503682D01*
G01X503659Y67052D01*
G01X503636Y67054D01*
G01X503538Y67032D01*
G01X503439Y67016D01*
G01X503419Y67005D01*
G01X503396Y67000D01*
G01X503311Y66947D01*
G01X503222Y66900D01*
G01X503206Y66884D01*
G01X503186Y66872D01*
G01X503122Y66795D01*
G01X503053Y66722D01*
G01X503043Y66701D01*
G01X503028Y66684D01*
G01X502991Y66590D01*
G01X502949Y66499D01*
G01X502946Y66476D01*
G01X502938Y66455D01*
G01X502921Y66288D01*
G01X503672Y-25909D01*
G01X486156D01*
G01X486066Y-25924D01*
G01X485975Y-25931D01*
G01X485945Y-25943D01*
G01X485913Y-25949D01*
G01X485833Y-25991D01*
G01X485749Y-26027D01*
G01X485717Y-26053D01*
G01X485696Y-26064D01*
G01X485674Y-26087D01*
G01X485618Y-26132D01*
G01X484856Y-26894D01*
G01X484803Y-26968D01*
G01X484743Y-27037D01*
G01X484731Y-27067D01*
G01X484712Y-27093D01*
G01X484685Y-27180D01*
G01X484651Y-27265D01*
G01X484647Y-27306D01*
G01X484640Y-27329D01*
G01X484641Y-27361D01*
G01X484633Y-27432D01*
G01Y-52578D01*
G01X484648Y-52668D01*
G01X484655Y-52759D01*
G01X484667Y-52789D01*
G01X484673Y-52821D01*
G01X484715Y-52901D01*
G01X484751Y-52985D01*
G01X484777Y-53017D01*
G01X484788Y-53038D01*
G01X484811Y-53060D01*
G01X484856Y-53116D01*
G01X485110Y-53370D01*
G01X485184Y-53423D01*
G01X485253Y-53483D01*
G01X485283Y-53495D01*
G01X485309Y-53514D01*
G01X485396Y-53541D01*
G01X485481Y-53575D01*
G01X485522Y-53579D01*
G01X485545Y-53586D01*
G01X485577Y-53585D01*
G01X485648Y-53593D01*
G01X527812D01*
G01X527832Y-53590D01*
G37*
G36*
G01X118047Y24034D02*
G01X118151Y24036D01*
G01X118170Y24043D01*
G01X118189Y24045D01*
G01X118284Y24085D01*
G01X118382Y24121D01*
G01X118398Y24133D01*
G01X118416Y24141D01*
G01X118547Y24246D01*
G01X139381Y45080D01*
G01X139393Y45096D01*
G01X139408Y45109D01*
G01X139464Y45196D01*
G01X139524Y45280D01*
G01X139530Y45299D01*
G01X139541Y45316D01*
G01X139566Y45416D01*
G01X139597Y45515D01*
G01X139596Y45535D01*
G01X139601Y45554D01*
G01X139593Y45657D01*
G01X139590Y45761D01*
G01X139584Y45780D01*
G01X139582Y45799D01*
G01X139542Y45894D01*
G01X139506Y45992D01*
G01X139494Y46007D01*
G01X139486Y46026D01*
G01X139381Y46157D01*
G01X118547Y66991D01*
G01X118531Y67002D01*
G01X118518Y67018D01*
G01X118431Y67074D01*
G01X118347Y67134D01*
G01X118328Y67140D01*
G01X118311Y67151D01*
G01X118211Y67176D01*
G01X118112Y67207D01*
G01X118092Y67206D01*
G01X118073Y67211D01*
G01X117970Y67203D01*
G01X117866Y67200D01*
G01X117847Y67194D01*
G01X117827Y67192D01*
G01X117733Y67152D01*
G01X117635Y67116D01*
G01X117619Y67103D01*
G01X117601Y67096D01*
G01X117470Y66991D01*
G01X96636Y46157D01*
G01X96624Y46141D01*
G01X96609Y46128D01*
G01X96553Y46041D01*
G01X96492Y45957D01*
G01X96487Y45938D01*
G01X96476Y45921D01*
G01X96450Y45821D01*
G01X96420Y45722D01*
G01X96421Y45702D01*
G01X96416Y45683D01*
G01X96424Y45580D01*
G01X96426Y45476D01*
G01X96433Y45457D01*
G01X96435Y45437D01*
G01X96475Y45343D01*
G01X96511Y45245D01*
G01X96523Y45229D01*
G01X96531Y45211D01*
G01X96636Y45080D01*
G01X117470Y24246D01*
G01X117486Y24234D01*
G01X117499Y24219D01*
G01X117586Y24163D01*
G01X117670Y24102D01*
G01X117689Y24097D01*
G01X117706Y24086D01*
G01X117806Y24060D01*
G01X117905Y24030D01*
G01X117925Y24031D01*
G01X117944Y24026D01*
G01X118047Y24034D01*
G37*
D14*
X200863Y24576D03*
D24*
X679882Y54737D03*
X679120Y210185D03*
D15*
X677120Y238435D03*
D17*
X359085Y271888D03*
D25*
X592148Y240665D03*
X511838Y54610D03*
X453316Y88621D03*
D22*
X543967Y177343D03*
D26*
X479958Y49862D03*
D27*
X483792Y103124D03*
X504776Y112624D03*
D28*
X30480Y96520D03*
D24*
X26594Y32639D03*
D15*
X28594Y60889D03*
D29*
X99908Y-24285D03*
X106408D03*
X112908D03*
X119408D03*
X125908D03*
D30*
X144908Y-26555D03*
D22*
X487452Y156083D03*
X524536D03*
D21*
X515214Y-17958D03*
X234061Y208458D03*
D18*
X453528Y233633D03*
X443528Y192833D03*
X453528D03*
G36*
G01X104377Y23782D02*
G01X99707Y28452D01*
G01X107609Y36354D01*
G01X112279Y31684D01*
G01X104377Y23782D01*
G37*
G36*
G01X120202Y28148D02*
G01X124872Y32818D01*
G01X132774Y24916D01*
G01X128104Y20246D01*
G01X120202Y28148D01*
G37*
G36*
G01X134344Y42290D02*
G01X139014Y46960D01*
G01X146916Y39058D01*
G01X142246Y34388D01*
G01X134344Y42290D01*
G37*
G36*
G01X135479Y47812D02*
G01X130809Y52482D01*
G01X138711Y60384D01*
G01X143381Y55714D01*
G01X135479Y47812D01*
G37*
G36*
G01X128408Y54883D02*
G01X123738Y59553D01*
G01X131640Y67455D01*
G01X136310Y62785D01*
G01X128408Y54883D01*
G37*
G36*
G01X106778Y69856D02*
G01X111448Y74526D01*
G01X119350Y66624D01*
G01X114680Y61954D01*
G01X106778Y69856D01*
G37*
G36*
G01X96172Y59250D02*
G01X100842Y63920D01*
G01X108744Y56018D01*
G01X104074Y51348D01*
G01X96172Y59250D01*
G37*
D31*
X51892Y267081D03*
Y190881D03*
D32*
X87334Y91999D03*
D22*
X105512Y118059D03*
D21*
X19939Y191490D03*
D25*
X36604Y146939D03*
D32*
X215570Y76445D03*
G36*
G01X618891Y179829D02*
G01X626714Y172006D01*
G01X617477Y162769D01*
G01X609654Y170592D01*
G01X618891Y179829D01*
G37*
G36*
G01X571760Y172006D02*
G01X579583Y179829D01*
G01X588820Y170592D01*
G01X580997Y162769D01*
G01X571760Y172006D01*
G37*
D32*
X618296Y150241D03*
X635296Y128651D03*
X562670Y150241D03*
D25*
X631218Y210185D03*
X455450Y63551D03*
X524838Y54610D03*
X466316Y88621D03*
D21*
X514782Y-40868D03*
D26*
X479958Y28878D03*
D27*
X483792Y93624D03*
D28*
X683260Y121920D03*
G36*
G01X124872Y58419D02*
G01X120202Y63089D01*
G01X128104Y70991D01*
G01X132774Y66321D01*
G01X124872Y58419D01*
G37*
D33*
X248920Y76200D03*
G36*
G01X611118Y201693D02*
G01X617118D01*
G03Y208757I0J3532D01*
G01X611118D01*
G03Y201693I0J-3532D01*
G37*
G36*
G01X617118Y223757D02*
G01X611118D01*
G03Y216693I0J-3532D01*
G01X617118D01*
G03Y223757I0J3532D01*
G37*
G36*
G01X588118Y223757D02*
G01X582118D01*
G03Y216693I0J-3532D01*
G01X588118D01*
G03Y223757I0J3532D01*
G37*
G36*
G01X582118Y201693D02*
G01X588118D01*
G03Y208757I0J3532D01*
G01X582118D01*
G03Y201693I0J-3532D01*
G37*
G36*
G01X598586Y201225D02*
G01Y195225D01*
G03X605650I3532J0D01*
G01Y201225D01*
G03X598586I-3532J0D01*
G37*
G36*
G01X103243Y66321D02*
G01X107913Y70991D01*
G01X115815Y63089D01*
G01X111145Y58419D01*
G01X103243Y66321D01*
G37*
G36*
G01X92636Y55714D02*
G01X97306Y60384D01*
G01X105208Y52482D01*
G01X100538Y47812D01*
G01X92636Y55714D01*
G37*
D31*
X51892Y241681D03*
Y165481D03*
D32*
X104334Y91999D03*
D22*
X51638Y287401D03*
D21*
X19939Y210490D03*
D32*
X162230Y76699D03*
D25*
X195908Y76835D03*
G36*
G01X609699Y189021D02*
G01X617522Y181198D01*
G01X608285Y171961D01*
G01X600462Y179784D01*
G01X609699Y189021D01*
G37*
D32*
X579670Y128905D03*
X635296Y150241D03*
X579670D03*
D25*
X644218Y210185D03*
X579148Y240665D03*
X468450Y63551D03*
D34*
X453466Y168831D03*
D22*
X524967Y177343D03*
D26*
X498958Y49862D03*
Y28878D03*
D27*
X504776Y93624D03*
D28*
X680720Y-38100D03*
X22123Y-27661D03*
D35*
X419100Y63500D03*
G36*
G01X611118Y211693D02*
G01X617118D01*
G03Y218757I0J3532D01*
G01X611118D01*
G03Y211693I0J-3532D01*
G37*
G36*
G01X600650Y224225D02*
G01Y230225D01*
G03X593586I-3532J0D01*
G01Y224225D01*
G03X600650I3532J0D01*
G37*
G36*
G01X588118Y213757D02*
G01X582118D01*
G03Y206693I0J-3532D01*
G01X588118D01*
G03Y213757I0J3532D01*
G37*
G36*
G01X600650Y195225D02*
G01Y201225D01*
G03X593586I-3532J0D01*
G01Y195225D01*
G03X600650I3532J0D01*
G37*
G36*
G01X437897Y111760D02*
G01X437901Y111700D01*
G01X437899Y111639D01*
G01X437921Y111416D01*
G01X437937Y111192D01*
G01X437949Y111132D01*
G01X437955Y111073D01*
G01X438009Y110854D01*
G01X438056Y110634D01*
G01X438076Y110578D01*
G01X438091Y110519D01*
G01X438174Y110310D01*
G01X438252Y110099D01*
G01X438280Y110046D01*
G01X438303Y109990D01*
G01X438414Y109795D01*
G01X438520Y109597D01*
G01X438556Y109548D01*
G01X438586Y109496D01*
G01X438661Y109405D01*
G01X438857Y109137D01*
G01X439014Y108976D01*
G01X439087Y108887D01*
G01X442310Y105663D01*
G01X434573D01*
G01Y166116D01*
G01X230886D01*
G01Y98043D01*
G01X142240D01*
G01X142180Y98039D01*
G01X142119Y98041D01*
G01X141896Y98019D01*
G01X141672Y98003D01*
G01X141612Y97991D01*
G01X141553Y97985D01*
G01X141334Y97931D01*
G01X141114Y97884D01*
G01X141058Y97864D01*
G01X140999Y97849D01*
G01X140790Y97766D01*
G01X140579Y97688D01*
G01X140526Y97660D01*
G01X140470Y97638D01*
G01X140275Y97526D01*
G01X140077Y97420D01*
G01X140028Y97384D01*
G01X139976Y97354D01*
G01X139885Y97279D01*
G01X139617Y97083D01*
G01X139456Y96926D01*
G01X139367Y96853D01*
G01X131747Y89233D01*
G01X131707Y89188D01*
G01X131663Y89147D01*
G01X131521Y88973D01*
G01X131373Y88803D01*
G01X131340Y88752D01*
G01X131302Y88706D01*
G01X131185Y88513D01*
G01X131063Y88325D01*
G01X131038Y88270D01*
G01X131007Y88218D01*
G01X130918Y88012D01*
G01X130824Y87808D01*
G01X130806Y87750D01*
G01X130782Y87695D01*
G01X130724Y87478D01*
G01X130658Y87263D01*
G01X130649Y87203D01*
G01X130633Y87145D01*
G01X130622Y87028D01*
G01X130571Y86700D01*
G01X130568Y86475D01*
G01X130557Y86360D01*
G01Y75343D01*
G01X124127Y68913D01*
G01X123753Y68483D01*
G01X123443Y68005D01*
G01X123204Y67488D01*
G01X123038Y66943D01*
G01X122951Y66380D01*
G01X122943Y65810D01*
G01X123015Y65245D01*
G01X123166Y64695D01*
G01X123392Y64172D01*
G01X123688Y63686D01*
G01X124050Y63245D01*
G01X124470Y62860D01*
G01X124940Y62538D01*
G01X125450Y62284D01*
G01X125991Y62104D01*
G01X126551Y62002D01*
G01X127121Y61979D01*
G01X127688Y62035D01*
G01X128241Y62171D01*
G01X128770Y62383D01*
G01X129264Y62666D01*
G01X129873Y63167D01*
G01X132080Y65374D01*
G01X139367Y58087D01*
G01X139412Y58047D01*
G01X139453Y58003D01*
G01X139627Y57861D01*
G01X139797Y57713D01*
G01X139848Y57680D01*
G01X139894Y57642D01*
G01X140087Y57525D01*
G01X140275Y57403D01*
G01X140330Y57378D01*
G01X140382Y57347D01*
G01X140588Y57258D01*
G01X140792Y57164D01*
G01X140850Y57146D01*
G01X140905Y57122D01*
G01X141122Y57064D01*
G01X141337Y56998D01*
G01X141397Y56989D01*
G01X141455Y56973D01*
G01X141572Y56962D01*
G01X141900Y56911D01*
G01X142125Y56908D01*
G01X142240Y56897D01*
G01X230886D01*
G01Y-14912D01*
G01X434573D01*
G01Y49277D01*
G01X482600D01*
G01X482829Y49293D01*
G01X483060Y49303D01*
G01X483114Y49313D01*
G01X483168Y49317D01*
G01X483394Y49365D01*
G01X483620Y49407D01*
G01X483672Y49424D01*
G01X483726Y49436D01*
G01X483942Y49515D01*
G01X484160Y49588D01*
G01X484209Y49613D01*
G01X484261Y49632D01*
G01X484464Y49740D01*
G01X484669Y49843D01*
G01X484715Y49874D01*
G01X484763Y49900D01*
G01X484949Y50036D01*
G01X485138Y50167D01*
G01X485179Y50204D01*
G01X485223Y50237D01*
G01X485388Y50397D01*
G01X485557Y50553D01*
G01X485592Y50596D01*
G01X485631Y50634D01*
G01X485772Y50816D01*
G01X485918Y50994D01*
G01X485946Y51042D01*
G01X485980Y51085D01*
G01X486094Y51285D01*
G01X486213Y51482D01*
G01X486235Y51532D01*
G01X486262Y51580D01*
G01X486347Y51794D01*
G01X486438Y52005D01*
G01X486452Y52058D01*
G01X486472Y52109D01*
G01X486527Y52334D01*
G01X486587Y52555D01*
G01X486591Y52599D01*
G01X486607Y52663D01*
G01X486662Y53230D01*
G01X486659Y53296D01*
G01X486663Y53340D01*
G01Y71120D01*
G01X486659Y71180D01*
G01X486661Y71241D01*
G01X486639Y71464D01*
G01X486623Y71688D01*
G01X486611Y71748D01*
G01X486605Y71808D01*
G01X486551Y72026D01*
G01X486504Y72246D01*
G01X486484Y72302D01*
G01X486469Y72361D01*
G01X486386Y72570D01*
G01X486308Y72781D01*
G01X486280Y72834D01*
G01X486258Y72890D01*
G01X486146Y73085D01*
G01X486040Y73283D01*
G01X486004Y73332D01*
G01X485974Y73384D01*
G01X485899Y73475D01*
G01X485703Y73743D01*
G01X485546Y73904D01*
G01X485473Y73993D01*
G01X481507Y77959D01*
G01X481511Y77999D01*
G01X481527Y78063D01*
G01X481582Y78630D01*
G01X481579Y78696D01*
G01X481583Y78740D01*
G01Y84677D01*
G01X485473Y88567D01*
G01X485513Y88612D01*
G01X485557Y88653D01*
G01X485699Y88827D01*
G01X485847Y88997D01*
G01X485880Y89048D01*
G01X485918Y89094D01*
G01X486035Y89287D01*
G01X486157Y89475D01*
G01X486182Y89530D01*
G01X486213Y89582D01*
G01X486302Y89788D01*
G01X486397Y89992D01*
G01X486414Y90050D01*
G01X486438Y90105D01*
G01X486496Y90322D01*
G01X486562Y90537D01*
G01X486571Y90597D01*
G01X486587Y90655D01*
G01X486598Y90772D01*
G01X486649Y91100D01*
G01X486652Y91325D01*
G01X486663Y91440D01*
G01Y101600D01*
G01X486647Y101829D01*
G01X486637Y102060D01*
G01X486627Y102114D01*
G01X486623Y102168D01*
G01X486575Y102394D01*
G01X486533Y102620D01*
G01X486516Y102672D01*
G01X486504Y102726D01*
G01X486425Y102942D01*
G01X486352Y103160D01*
G01X486327Y103209D01*
G01X486308Y103261D01*
G01X486200Y103464D01*
G01X486097Y103669D01*
G01X486066Y103715D01*
G01X486040Y103763D01*
G01X485904Y103949D01*
G01X485773Y104138D01*
G01X485736Y104179D01*
G01X485703Y104223D01*
G01X485543Y104388D01*
G01X485387Y104557D01*
G01X485344Y104592D01*
G01X485306Y104631D01*
G01X485124Y104772D01*
G01X484946Y104918D01*
G01X484898Y104946D01*
G01X484855Y104980D01*
G01X484655Y105094D01*
G01X484458Y105213D01*
G01X484408Y105235D01*
G01X484360Y105262D01*
G01X484146Y105347D01*
G01X484123Y105357D01*
G01Y121920D01*
G01X484107Y122149D01*
G01X484097Y122380D01*
G01X484087Y122434D01*
G01X484083Y122488D01*
G01X484035Y122714D01*
G01X483993Y122940D01*
G01X483976Y122992D01*
G01X483964Y123046D01*
G01X483885Y123262D01*
G01X483812Y123480D01*
G01X483787Y123529D01*
G01X483768Y123581D01*
G01X483660Y123784D01*
G01X483557Y123989D01*
G01X483526Y124035D01*
G01X483500Y124083D01*
G01X483364Y124269D01*
G01X483233Y124458D01*
G01X483196Y124499D01*
G01X483163Y124543D01*
G01X483003Y124708D01*
G01X482847Y124877D01*
G01X482804Y124912D01*
G01X482766Y124951D01*
G01X482584Y125092D01*
G01X482406Y125238D01*
G01X482358Y125266D01*
G01X482315Y125300D01*
G01X482115Y125414D01*
G01X481918Y125533D01*
G01X481868Y125555D01*
G01X481820Y125582D01*
G01X481606Y125667D01*
G01X481395Y125758D01*
G01X481342Y125772D01*
G01X481291Y125792D01*
G01X481066Y125847D01*
G01X480845Y125907D01*
G01X480801Y125911D01*
G01X480737Y125927D01*
G01X480170Y125982D01*
G01X480104Y125979D01*
G01X480060Y125983D01*
G01X471583D01*
G01X468883Y128683D01*
G01Y153257D01*
G01X470233Y154607D01*
G01X470309Y154694D01*
G01X470391Y154774D01*
G01X470495Y154909D01*
G01X470607Y155037D01*
G01X470670Y155134D01*
G01X470740Y155225D01*
G01X470824Y155373D01*
G01X470917Y155515D01*
G01X470965Y155620D01*
G01X471022Y155720D01*
G01X471085Y155878D01*
G01X471157Y156032D01*
G01X471190Y156142D01*
G01X471232Y156249D01*
G01X471273Y156415D01*
G01X471322Y156577D01*
G01X471339Y156691D01*
G01X471367Y156803D01*
G01X471383Y156973D01*
G01X471409Y157140D01*
G01X471411Y157255D01*
G01X471422Y157370D01*
G01X471414Y157540D01*
G01X471417Y157710D01*
G01X471402Y157824D01*
G01X471397Y157940D01*
G01X471366Y158107D01*
G01X471345Y158275D01*
G01X471314Y158387D01*
G01X471293Y158500D01*
G01X471239Y158661D01*
G01X471194Y158825D01*
G01X471149Y158931D01*
G01X471112Y159040D01*
G01X471036Y159192D01*
G01X470968Y159348D01*
G01X470908Y159446D01*
G01X470857Y159549D01*
G01X470760Y159689D01*
G01X470672Y159834D01*
G01X470598Y159923D01*
G01X470533Y160018D01*
G01X470417Y160143D01*
G01X470310Y160275D01*
G01X470225Y160352D01*
G01X470147Y160437D01*
G01X470015Y160545D01*
G01X469890Y160660D01*
G01X469795Y160725D01*
G01X469706Y160798D01*
G01X469560Y160886D01*
G01X469420Y160982D01*
G01X469317Y161034D01*
G01X469218Y161093D01*
G01X469062Y161160D01*
G01X468910Y161236D01*
G01X468801Y161272D01*
G01X468695Y161318D01*
G01X468531Y161362D01*
G01X468369Y161416D01*
G01X468256Y161437D01*
G01X468145Y161467D01*
G01X468030Y161478D01*
G01X467809Y161518D01*
G01X467477Y161532D01*
G01X467360Y161543D01*
G01X441960D01*
G01X441731Y161527D01*
G01X441500Y161517D01*
G01X441446Y161507D01*
G01X441392Y161503D01*
G01X441166Y161455D01*
G01X440940Y161413D01*
G01X440888Y161396D01*
G01X440834Y161384D01*
G01X440618Y161305D01*
G01X440400Y161232D01*
G01X440351Y161207D01*
G01X440299Y161188D01*
G01X440096Y161080D01*
G01X439891Y160977D01*
G01X439845Y160946D01*
G01X439797Y160920D01*
G01X439611Y160784D01*
G01X439422Y160653D01*
G01X439381Y160616D01*
G01X439337Y160583D01*
G01X439172Y160423D01*
G01X439003Y160267D01*
G01X438968Y160224D01*
G01X438929Y160186D01*
G01X438788Y160004D01*
G01X438642Y159826D01*
G01X438614Y159778D01*
G01X438580Y159735D01*
G01X438466Y159535D01*
G01X438347Y159338D01*
G01X438325Y159288D01*
G01X438298Y159240D01*
G01X438213Y159026D01*
G01X438122Y158815D01*
G01X438108Y158762D01*
G01X438088Y158711D01*
G01X438033Y158486D01*
G01X437973Y158265D01*
G01X437969Y158221D01*
G01X437954Y158157D01*
G01X437898Y157590D01*
G01X437901Y157524D01*
G01X437897Y157480D01*
G01Y111760D01*
G37*
G36*
G01X99707Y62785D02*
G01X104377Y67455D01*
G01X112279Y59553D01*
G01X107609Y54883D01*
G01X99707Y62785D01*
G37*
G36*
G01X89101Y52178D02*
G01X93771Y56848D01*
G01X101673Y48946D01*
G01X97003Y44276D01*
G01X89101Y52178D01*
G37*
D31*
X51892Y216281D03*
D36*
X148412D03*
D22*
X86512Y118059D03*
X70638Y287401D03*
D25*
X49604Y146939D03*
X182908Y76835D03*
G36*
G01X580952Y181198D02*
G01X588775Y189021D01*
G01X598012Y179784D01*
G01X590189Y171961D01*
G01X580952Y181198D01*
G37*
D32*
X562670Y128905D03*
X618296Y128651D03*
G36*
G01X121337Y61954D02*
G01X116667Y66624D01*
G01X124569Y74526D01*
G01X129239Y69856D01*
G01X121337Y61954D01*
G37*
D35*
X419100Y88900D03*
G36*
G01X617118Y213757D02*
G01X611118D01*
G03Y206693I0J-3532D01*
G01X617118D01*
G03Y213757I0J3532D01*
G37*
G36*
G01X598586Y230225D02*
G01Y224225D01*
G03X605650I3532J0D01*
G01Y230225D01*
G03X598586I-3532J0D01*
G37*
G36*
G01X582118Y211693D02*
G01X588118D01*
G03Y218757I0J3532D01*
G01X582118D01*
G03Y211693I0J-3532D01*
G37*
G36*
G01X588586Y201225D02*
G01Y195225D01*
G03X595650I3532J0D01*
G01Y201225D01*
G03X588586I-3532J0D01*
G37*
G36*
G01X610650Y195225D02*
G01Y201225D01*
G03X603586I-3532J0D01*
G01Y195225D01*
G03X610650I3532J0D01*
G37*
D30*
X80908Y-26555D03*
D20*
X124908Y-51055D03*
D21*
X514680Y38380D03*
X515214Y1042D03*
D22*
X182143Y-26238D03*
D18*
X458528Y233633D03*
X443528D03*
D32*
X162230Y59699D03*
D21*
X514782Y-59868D03*
D34*
X453466Y155831D03*
D15*
X677882Y26487D03*
D22*
X468452Y156083D03*
D32*
X215570Y59445D03*
D37*
X599618Y212725D03*
G36*
G01X131943Y51348D02*
G01X127273Y56018D01*
G01X135175Y63920D01*
G01X139845Y59250D01*
G01X131943Y51348D01*
G37*
G36*
G01X588586Y230225D02*
G01Y224225D01*
G03X595650I3532J0D01*
G01Y230225D01*
G03X588586I-3532J0D01*
G37*
D14*
X257099Y208622D03*
D19*
X78658Y-51055D03*
D26*
X489458Y28878D03*
D25*
X592148Y251587D03*
D26*
X489458Y49862D03*
D27*
X483792Y112624D03*
G36*
G01X97306Y30853D02*
G01X92636Y35523D01*
G01X100538Y43425D01*
G01X105208Y38755D01*
G01X97306Y30853D01*
G37*
D15*
X28594Y4389D03*
D27*
X504776Y103124D03*
D28*
X84328Y1956D03*
X51486Y-27280D03*
D18*
X448528Y192833D03*
G36*
G01X610650Y224225D02*
G01Y230225D01*
G03X603586I-3532J0D01*
G01Y224225D01*
G03X610650I3532J0D01*
G37*
D25*
X579148Y251587D03*
G36*
G01X93771Y34388D02*
G01X89101Y39058D01*
G01X97003Y46960D01*
G01X101673Y42290D01*
G01X93771Y34388D01*
G37*
M02*

