G04 EAGLE Gerber RS-274X export*
G75*
%MOMM*%
%FSLAX34Y34*%
%LPD*%
%INBottom Copper*%
%IPPOS*%
%AMOC8*
5,1,8,0,0,1.08239X$1,22.5*%
G01*
%ADD10R,4.200000X1.350000*%
%ADD11C,0.604000*%

G36*
X874794Y323345D02*
X874794Y323345D01*
X874812Y323343D01*
X874994Y323364D01*
X875177Y323383D01*
X875194Y323388D01*
X875211Y323390D01*
X875386Y323447D01*
X875562Y323501D01*
X875577Y323509D01*
X875594Y323515D01*
X875754Y323605D01*
X875916Y323693D01*
X875929Y323704D01*
X875945Y323713D01*
X876084Y323833D01*
X876225Y323950D01*
X876236Y323964D01*
X876250Y323976D01*
X876362Y324121D01*
X876477Y324264D01*
X876485Y324280D01*
X876496Y324294D01*
X876578Y324459D01*
X876663Y324621D01*
X876668Y324638D01*
X876676Y324654D01*
X876723Y324833D01*
X876774Y325008D01*
X876776Y325026D01*
X876780Y325043D01*
X876807Y325374D01*
X876807Y525526D01*
X876805Y525544D01*
X876807Y525562D01*
X876786Y525744D01*
X876767Y525927D01*
X876762Y525944D01*
X876760Y525961D01*
X876703Y526136D01*
X876649Y526312D01*
X876641Y526327D01*
X876635Y526344D01*
X876545Y526504D01*
X876457Y526666D01*
X876446Y526679D01*
X876437Y526695D01*
X876317Y526834D01*
X876200Y526975D01*
X876186Y526986D01*
X876174Y527000D01*
X876029Y527112D01*
X875886Y527227D01*
X875870Y527235D01*
X875856Y527246D01*
X875691Y527328D01*
X875529Y527413D01*
X875512Y527418D01*
X875496Y527426D01*
X875317Y527473D01*
X875142Y527524D01*
X875124Y527526D01*
X875107Y527530D01*
X874776Y527557D01*
X541274Y527557D01*
X541256Y527555D01*
X541238Y527557D01*
X541056Y527536D01*
X540873Y527517D01*
X540856Y527512D01*
X540839Y527510D01*
X540664Y527453D01*
X540488Y527399D01*
X540473Y527391D01*
X540456Y527385D01*
X540296Y527295D01*
X540134Y527207D01*
X540121Y527196D01*
X540105Y527187D01*
X539966Y527067D01*
X539825Y526950D01*
X539814Y526936D01*
X539800Y526924D01*
X539688Y526779D01*
X539573Y526636D01*
X539565Y526620D01*
X539554Y526606D01*
X539471Y526441D01*
X539387Y526279D01*
X539382Y526262D01*
X539374Y526246D01*
X539327Y526067D01*
X539276Y525892D01*
X539274Y525874D01*
X539270Y525857D01*
X539243Y525526D01*
X539243Y325374D01*
X539245Y325356D01*
X539243Y325338D01*
X539264Y325156D01*
X539283Y324973D01*
X539288Y324956D01*
X539290Y324939D01*
X539347Y324764D01*
X539401Y324588D01*
X539409Y324573D01*
X539415Y324556D01*
X539505Y324396D01*
X539593Y324234D01*
X539604Y324221D01*
X539613Y324205D01*
X539733Y324066D01*
X539850Y323925D01*
X539864Y323914D01*
X539876Y323900D01*
X540021Y323788D01*
X540164Y323673D01*
X540180Y323665D01*
X540194Y323654D01*
X540359Y323572D01*
X540521Y323487D01*
X540538Y323482D01*
X540554Y323474D01*
X540733Y323427D01*
X540908Y323376D01*
X540926Y323374D01*
X540943Y323370D01*
X541274Y323343D01*
X874776Y323343D01*
X874794Y323345D01*
G37*
%LPC*%
G36*
X852274Y514224D02*
X852274Y514224D01*
X852274Y520141D01*
X870235Y520141D01*
X870881Y519968D01*
X871460Y519633D01*
X871933Y519160D01*
X872268Y518581D01*
X872441Y517935D01*
X872441Y514224D01*
X852274Y514224D01*
G37*
%LPD*%
%LPC*%
G36*
X825359Y514224D02*
X825359Y514224D01*
X825359Y517935D01*
X825532Y518581D01*
X825867Y519160D01*
X826340Y519633D01*
X826919Y519968D01*
X827565Y520141D01*
X845526Y520141D01*
X845526Y514224D01*
X825359Y514224D01*
G37*
%LPD*%
%LPC*%
G36*
X548689Y464694D02*
X548689Y464694D01*
X548689Y468405D01*
X548862Y469051D01*
X549197Y469630D01*
X549670Y470103D01*
X550249Y470438D01*
X550895Y470611D01*
X568856Y470611D01*
X568856Y464694D01*
X548689Y464694D01*
G37*
%LPD*%
%LPC*%
G36*
X825359Y457724D02*
X825359Y457724D01*
X825359Y461435D01*
X825532Y462081D01*
X825867Y462660D01*
X826340Y463133D01*
X826919Y463468D01*
X827565Y463641D01*
X845526Y463641D01*
X845526Y457724D01*
X825359Y457724D01*
G37*
%LPD*%
%LPC*%
G36*
X548689Y408194D02*
X548689Y408194D01*
X548689Y411905D01*
X548862Y412551D01*
X549197Y413130D01*
X549670Y413603D01*
X550249Y413938D01*
X550895Y414111D01*
X568856Y414111D01*
X568856Y408194D01*
X548689Y408194D01*
G37*
%LPD*%
%LPC*%
G36*
X825359Y399924D02*
X825359Y399924D01*
X825359Y403635D01*
X825532Y404281D01*
X825867Y404860D01*
X826340Y405333D01*
X826919Y405668D01*
X827565Y405841D01*
X845526Y405841D01*
X845526Y399924D01*
X825359Y399924D01*
G37*
%LPD*%
%LPC*%
G36*
X825359Y343424D02*
X825359Y343424D01*
X825359Y347135D01*
X825532Y347781D01*
X825867Y348360D01*
X826340Y348833D01*
X826919Y349168D01*
X827565Y349341D01*
X845526Y349341D01*
X845526Y343424D01*
X825359Y343424D01*
G37*
%LPD*%
%LPC*%
G36*
X575604Y464694D02*
X575604Y464694D01*
X575604Y470611D01*
X593565Y470611D01*
X594211Y470438D01*
X594790Y470103D01*
X595263Y469630D01*
X595598Y469051D01*
X595771Y468405D01*
X595771Y464694D01*
X575604Y464694D01*
G37*
%LPD*%
%LPC*%
G36*
X852274Y457724D02*
X852274Y457724D01*
X852274Y463641D01*
X870235Y463641D01*
X870881Y463468D01*
X871460Y463133D01*
X871933Y462660D01*
X872268Y462081D01*
X872441Y461435D01*
X872441Y457724D01*
X852274Y457724D01*
G37*
%LPD*%
%LPC*%
G36*
X575604Y408194D02*
X575604Y408194D01*
X575604Y414111D01*
X593565Y414111D01*
X594211Y413938D01*
X594790Y413603D01*
X595263Y413130D01*
X595598Y412551D01*
X595771Y411905D01*
X595771Y408194D01*
X575604Y408194D01*
G37*
%LPD*%
%LPC*%
G36*
X852274Y399924D02*
X852274Y399924D01*
X852274Y405841D01*
X870235Y405841D01*
X870881Y405668D01*
X871460Y405333D01*
X871933Y404860D01*
X872268Y404281D01*
X872441Y403635D01*
X872441Y399924D01*
X852274Y399924D01*
G37*
%LPD*%
%LPC*%
G36*
X852274Y343424D02*
X852274Y343424D01*
X852274Y349341D01*
X870235Y349341D01*
X870881Y349168D01*
X871460Y348833D01*
X871933Y348360D01*
X872268Y347781D01*
X872441Y347135D01*
X872441Y343424D01*
X852274Y343424D01*
G37*
%LPD*%
%LPC*%
G36*
X852274Y501559D02*
X852274Y501559D01*
X852274Y507476D01*
X872441Y507476D01*
X872441Y503765D01*
X872268Y503119D01*
X871933Y502540D01*
X871460Y502067D01*
X870881Y501732D01*
X870235Y501559D01*
X852274Y501559D01*
G37*
%LPD*%
%LPC*%
G36*
X575604Y452029D02*
X575604Y452029D01*
X575604Y457946D01*
X595771Y457946D01*
X595771Y454235D01*
X595598Y453589D01*
X595263Y453010D01*
X594790Y452537D01*
X594211Y452202D01*
X593565Y452029D01*
X575604Y452029D01*
G37*
%LPD*%
%LPC*%
G36*
X852274Y445059D02*
X852274Y445059D01*
X852274Y450976D01*
X872441Y450976D01*
X872441Y447265D01*
X872268Y446619D01*
X871933Y446040D01*
X871460Y445567D01*
X870881Y445232D01*
X870235Y445059D01*
X852274Y445059D01*
G37*
%LPD*%
%LPC*%
G36*
X575604Y395529D02*
X575604Y395529D01*
X575604Y401446D01*
X595771Y401446D01*
X595771Y397735D01*
X595598Y397089D01*
X595263Y396510D01*
X594790Y396037D01*
X594211Y395702D01*
X593565Y395529D01*
X575604Y395529D01*
G37*
%LPD*%
%LPC*%
G36*
X852274Y387259D02*
X852274Y387259D01*
X852274Y393176D01*
X872441Y393176D01*
X872441Y389465D01*
X872268Y388819D01*
X871933Y388240D01*
X871460Y387767D01*
X870881Y387432D01*
X870235Y387259D01*
X852274Y387259D01*
G37*
%LPD*%
%LPC*%
G36*
X852274Y330759D02*
X852274Y330759D01*
X852274Y336676D01*
X872441Y336676D01*
X872441Y332965D01*
X872268Y332319D01*
X871933Y331740D01*
X871460Y331267D01*
X870881Y330932D01*
X870235Y330759D01*
X852274Y330759D01*
G37*
%LPD*%
%LPC*%
G36*
X827565Y501559D02*
X827565Y501559D01*
X826919Y501732D01*
X826340Y502067D01*
X825867Y502540D01*
X825532Y503119D01*
X825359Y503765D01*
X825359Y507476D01*
X845526Y507476D01*
X845526Y501559D01*
X827565Y501559D01*
G37*
%LPD*%
%LPC*%
G36*
X550895Y452029D02*
X550895Y452029D01*
X550249Y452202D01*
X549670Y452537D01*
X549197Y453010D01*
X548862Y453589D01*
X548689Y454235D01*
X548689Y457946D01*
X568856Y457946D01*
X568856Y452029D01*
X550895Y452029D01*
G37*
%LPD*%
%LPC*%
G36*
X827565Y445059D02*
X827565Y445059D01*
X826919Y445232D01*
X826340Y445567D01*
X825867Y446040D01*
X825532Y446619D01*
X825359Y447265D01*
X825359Y450976D01*
X845526Y450976D01*
X845526Y445059D01*
X827565Y445059D01*
G37*
%LPD*%
%LPC*%
G36*
X550895Y395529D02*
X550895Y395529D01*
X550249Y395702D01*
X549670Y396037D01*
X549197Y396510D01*
X548862Y397089D01*
X548689Y397735D01*
X548689Y401446D01*
X568856Y401446D01*
X568856Y395529D01*
X550895Y395529D01*
G37*
%LPD*%
%LPC*%
G36*
X827565Y387259D02*
X827565Y387259D01*
X826919Y387432D01*
X826340Y387767D01*
X825867Y388240D01*
X825532Y388819D01*
X825359Y389465D01*
X825359Y393176D01*
X845526Y393176D01*
X845526Y387259D01*
X827565Y387259D01*
G37*
%LPD*%
%LPC*%
G36*
X827565Y330759D02*
X827565Y330759D01*
X826919Y330932D01*
X826340Y331267D01*
X825867Y331740D01*
X825532Y332319D01*
X825359Y332965D01*
X825359Y336676D01*
X845526Y336676D01*
X845526Y330759D01*
X827565Y330759D01*
G37*
%LPD*%
D10*
X572230Y461320D03*
X572230Y404820D03*
X848900Y454350D03*
X848900Y510850D03*
X848900Y340050D03*
X848900Y396550D03*
D11*
X560070Y419100D03*
X836930Y382270D03*
X840740Y468630D03*
X859790Y355600D03*
X859790Y382270D03*
X836930Y354330D03*
X858520Y496570D03*
X838200Y496570D03*
X858520Y468630D03*
X581660Y447040D03*
X580390Y417830D03*
X558800Y447040D03*
M02*
