G04 EAGLE Gerber RS-274X export*
G75*
%MOMM*%
%FSLAX34Y34*%
%LPD*%
%INTop Copper*%
%IPPOS*%
%AMOC8*
5,1,8,0,0,1.08239X$1,22.5*%
G01*
%ADD10R,1.270000X0.660400*%
%ADD11R,1.270000X0.635000*%
%ADD12R,3.600000X1.270000*%
%ADD13R,4.200000X1.350000*%
%ADD14C,0.604000*%
%ADD15C,1.117600*%

G36*
X874794Y323345D02*
X874794Y323345D01*
X874812Y323343D01*
X874994Y323364D01*
X875177Y323383D01*
X875194Y323388D01*
X875211Y323390D01*
X875386Y323447D01*
X875562Y323501D01*
X875577Y323509D01*
X875594Y323515D01*
X875754Y323605D01*
X875916Y323693D01*
X875929Y323704D01*
X875945Y323713D01*
X876084Y323833D01*
X876225Y323950D01*
X876236Y323964D01*
X876250Y323976D01*
X876362Y324121D01*
X876477Y324264D01*
X876485Y324280D01*
X876496Y324294D01*
X876578Y324459D01*
X876663Y324621D01*
X876668Y324638D01*
X876676Y324654D01*
X876723Y324833D01*
X876774Y325008D01*
X876776Y325026D01*
X876780Y325043D01*
X876807Y325374D01*
X876807Y525526D01*
X876805Y525544D01*
X876807Y525562D01*
X876786Y525744D01*
X876767Y525927D01*
X876762Y525944D01*
X876760Y525961D01*
X876703Y526136D01*
X876649Y526312D01*
X876641Y526327D01*
X876635Y526344D01*
X876545Y526504D01*
X876457Y526666D01*
X876446Y526679D01*
X876437Y526695D01*
X876317Y526834D01*
X876200Y526975D01*
X876186Y526986D01*
X876174Y527000D01*
X876029Y527112D01*
X875886Y527227D01*
X875870Y527235D01*
X875856Y527246D01*
X875691Y527328D01*
X875529Y527413D01*
X875512Y527418D01*
X875496Y527426D01*
X875317Y527473D01*
X875142Y527524D01*
X875124Y527526D01*
X875107Y527530D01*
X874776Y527557D01*
X541274Y527557D01*
X541256Y527555D01*
X541238Y527557D01*
X541056Y527536D01*
X540873Y527517D01*
X540856Y527512D01*
X540839Y527510D01*
X540664Y527453D01*
X540488Y527399D01*
X540473Y527391D01*
X540456Y527385D01*
X540296Y527295D01*
X540134Y527207D01*
X540121Y527196D01*
X540105Y527187D01*
X539966Y527067D01*
X539825Y526950D01*
X539814Y526936D01*
X539800Y526924D01*
X539688Y526779D01*
X539573Y526636D01*
X539565Y526620D01*
X539554Y526606D01*
X539471Y526441D01*
X539387Y526279D01*
X539382Y526262D01*
X539374Y526246D01*
X539327Y526067D01*
X539276Y525892D01*
X539274Y525874D01*
X539270Y525857D01*
X539243Y525526D01*
X539243Y325374D01*
X539245Y325356D01*
X539243Y325338D01*
X539264Y325156D01*
X539283Y324973D01*
X539288Y324956D01*
X539290Y324939D01*
X539347Y324764D01*
X539401Y324588D01*
X539409Y324573D01*
X539415Y324556D01*
X539505Y324396D01*
X539593Y324234D01*
X539604Y324221D01*
X539613Y324205D01*
X539733Y324066D01*
X539850Y323925D01*
X539864Y323914D01*
X539876Y323900D01*
X540021Y323788D01*
X540164Y323673D01*
X540180Y323665D01*
X540194Y323654D01*
X540359Y323572D01*
X540521Y323487D01*
X540538Y323482D01*
X540554Y323474D01*
X540733Y323427D01*
X540908Y323376D01*
X540926Y323374D01*
X540943Y323370D01*
X541274Y323343D01*
X874776Y323343D01*
X874794Y323345D01*
G37*
%LPC*%
G36*
X832268Y360425D02*
X832268Y360425D01*
X831108Y361586D01*
X831022Y361656D01*
X830943Y361734D01*
X830867Y361783D01*
X830797Y361841D01*
X830699Y361893D01*
X830606Y361953D01*
X830506Y361995D01*
X830441Y362029D01*
X830381Y362047D01*
X830299Y362081D01*
X823255Y364370D01*
X814923Y370423D01*
X808870Y378755D01*
X805687Y388551D01*
X805687Y393700D01*
X805681Y393766D01*
X805681Y393859D01*
X805481Y396402D01*
X805468Y396475D01*
X805464Y396548D01*
X805425Y396713D01*
X805410Y396799D01*
X805397Y396829D01*
X805388Y396871D01*
X803816Y401708D01*
X803755Y401848D01*
X803700Y401991D01*
X803671Y402038D01*
X803654Y402076D01*
X803605Y402147D01*
X803528Y402274D01*
X800538Y406389D01*
X800436Y406503D01*
X800340Y406622D01*
X800298Y406658D01*
X800270Y406689D01*
X800201Y406741D01*
X800089Y406838D01*
X795974Y409828D01*
X795842Y409905D01*
X795714Y409988D01*
X795663Y410009D01*
X795626Y410031D01*
X795545Y410059D01*
X795408Y410116D01*
X794116Y410536D01*
X793976Y410566D01*
X793837Y410605D01*
X793779Y410609D01*
X793723Y410621D01*
X793579Y410624D01*
X793435Y410634D01*
X793378Y410627D01*
X793321Y410628D01*
X793179Y410602D01*
X793036Y410584D01*
X792981Y410566D01*
X792925Y410555D01*
X792791Y410502D01*
X792654Y410456D01*
X792604Y410427D01*
X792551Y410406D01*
X792430Y410327D01*
X792305Y410255D01*
X792255Y410212D01*
X792214Y410185D01*
X792155Y410127D01*
X792052Y410040D01*
X791919Y409906D01*
X782216Y409906D01*
X782199Y409905D01*
X782181Y409906D01*
X781998Y409885D01*
X781816Y409867D01*
X781799Y409861D01*
X781781Y409859D01*
X781606Y409802D01*
X781431Y409748D01*
X781415Y409740D01*
X781398Y409734D01*
X781238Y409644D01*
X781077Y409557D01*
X781063Y409545D01*
X781048Y409536D01*
X780908Y409416D01*
X780768Y409299D01*
X780756Y409285D01*
X780743Y409273D01*
X780630Y409128D01*
X780515Y408985D01*
X780507Y408969D01*
X780496Y408955D01*
X780414Y408790D01*
X780330Y408628D01*
X780325Y408611D01*
X780317Y408595D01*
X780269Y408417D01*
X780218Y408241D01*
X780217Y408223D01*
X780212Y408206D01*
X780185Y407875D01*
X780185Y379961D01*
X768271Y368047D01*
X636298Y368047D01*
X634737Y369608D01*
X634737Y369609D01*
X625945Y378400D01*
X624384Y379961D01*
X624384Y420499D01*
X624382Y420517D01*
X624384Y420535D01*
X624362Y420717D01*
X624344Y420900D01*
X624339Y420917D01*
X624337Y420934D01*
X624280Y421109D01*
X624226Y421285D01*
X624218Y421300D01*
X624212Y421317D01*
X624122Y421477D01*
X624034Y421639D01*
X624023Y421652D01*
X624014Y421668D01*
X623894Y421807D01*
X623777Y421948D01*
X623763Y421959D01*
X623751Y421973D01*
X623606Y422085D01*
X623463Y422200D01*
X623447Y422208D01*
X623433Y422219D01*
X623268Y422301D01*
X623105Y422386D01*
X623088Y422391D01*
X623072Y422399D01*
X622894Y422446D01*
X622719Y422497D01*
X622701Y422499D01*
X622684Y422503D01*
X622353Y422530D01*
X612650Y422530D01*
X611089Y424092D01*
X611084Y424096D01*
X611077Y424105D01*
X611063Y424116D01*
X611051Y424130D01*
X610906Y424242D01*
X610875Y424267D01*
X610778Y424347D01*
X610773Y424349D01*
X610763Y424357D01*
X610747Y424365D01*
X610733Y424376D01*
X610568Y424458D01*
X610524Y424481D01*
X610422Y424535D01*
X610417Y424537D01*
X610405Y424543D01*
X610388Y424548D01*
X610372Y424556D01*
X610194Y424603D01*
X610141Y424619D01*
X610036Y424650D01*
X610031Y424651D01*
X610019Y424654D01*
X610001Y424656D01*
X609984Y424660D01*
X609653Y424687D01*
X568815Y424687D01*
X567962Y425041D01*
X567932Y425050D01*
X567904Y425064D01*
X567740Y425108D01*
X567577Y425157D01*
X567546Y425160D01*
X567515Y425168D01*
X567185Y425195D01*
X551598Y425195D01*
X550705Y426088D01*
X550705Y440052D01*
X551598Y440945D01*
X588862Y440945D01*
X590299Y439508D01*
X590319Y439491D01*
X590337Y439470D01*
X590475Y439363D01*
X590610Y439253D01*
X590634Y439240D01*
X590655Y439224D01*
X590812Y439146D01*
X590966Y439064D01*
X590991Y439056D01*
X591015Y439044D01*
X591185Y438999D01*
X591352Y438949D01*
X591378Y438947D01*
X591404Y438940D01*
X591735Y438913D01*
X609804Y438913D01*
X609831Y438915D01*
X609858Y438913D01*
X610032Y438935D01*
X610205Y438953D01*
X610231Y438960D01*
X610257Y438964D01*
X610423Y439019D01*
X610590Y439071D01*
X610614Y439084D01*
X610639Y439092D01*
X610791Y439179D01*
X610944Y439263D01*
X610965Y439280D01*
X610988Y439293D01*
X611241Y439508D01*
X612650Y440917D01*
X622353Y440917D01*
X622371Y440919D01*
X622388Y440918D01*
X622571Y440939D01*
X622753Y440957D01*
X622771Y440962D01*
X622788Y440965D01*
X622963Y441021D01*
X623138Y441075D01*
X623154Y441084D01*
X623171Y441089D01*
X623331Y441180D01*
X623492Y441267D01*
X623506Y441279D01*
X623522Y441287D01*
X623661Y441408D01*
X623802Y441525D01*
X623813Y441539D01*
X623826Y441550D01*
X623939Y441695D01*
X624054Y441839D01*
X624062Y441854D01*
X624073Y441869D01*
X624155Y442033D01*
X624239Y442196D01*
X624244Y442213D01*
X624252Y442229D01*
X624300Y442407D01*
X624351Y442583D01*
X624352Y442601D01*
X624357Y442618D01*
X624384Y442949D01*
X624384Y483487D01*
X625945Y485048D01*
X634737Y493839D01*
X636298Y495400D01*
X768271Y495400D01*
X780185Y483487D01*
X780185Y455572D01*
X780187Y455555D01*
X780185Y455537D01*
X780207Y455354D01*
X780225Y455172D01*
X780230Y455155D01*
X780232Y455137D01*
X780289Y454962D01*
X780343Y454787D01*
X780352Y454771D01*
X780357Y454754D01*
X780448Y454594D01*
X780535Y454433D01*
X780546Y454419D01*
X780555Y454404D01*
X780676Y454264D01*
X780793Y454124D01*
X780807Y454112D01*
X780818Y454099D01*
X780963Y453986D01*
X781106Y453871D01*
X781122Y453863D01*
X781136Y453852D01*
X781301Y453770D01*
X781464Y453686D01*
X781481Y453681D01*
X781497Y453673D01*
X781675Y453625D01*
X781851Y453574D01*
X781868Y453573D01*
X781886Y453568D01*
X782216Y453541D01*
X791919Y453541D01*
X793252Y452208D01*
X793273Y452191D01*
X793290Y452170D01*
X793428Y452063D01*
X793564Y451953D01*
X793587Y451940D01*
X793608Y451924D01*
X793765Y451846D01*
X793919Y451764D01*
X793945Y451756D01*
X793969Y451744D01*
X794138Y451699D01*
X794305Y451649D01*
X794332Y451647D01*
X794358Y451640D01*
X794689Y451613D01*
X800100Y451613D01*
X800178Y451621D01*
X800299Y451623D01*
X800993Y451691D01*
X801123Y451717D01*
X801255Y451734D01*
X801331Y451758D01*
X801388Y451770D01*
X801459Y451800D01*
X801571Y451836D01*
X802853Y452367D01*
X802880Y452381D01*
X802910Y452391D01*
X803058Y452477D01*
X803208Y452557D01*
X803232Y452577D01*
X803259Y452592D01*
X803512Y452807D01*
X804493Y453788D01*
X804513Y453812D01*
X804536Y453833D01*
X804640Y453968D01*
X804748Y454100D01*
X804763Y454127D01*
X804782Y454152D01*
X804933Y454447D01*
X805464Y455729D01*
X805503Y455856D01*
X805550Y455981D01*
X805564Y456059D01*
X805581Y456114D01*
X805588Y456192D01*
X805609Y456307D01*
X805677Y457001D01*
X805677Y457080D01*
X805687Y457200D01*
X805687Y462349D01*
X808870Y472145D01*
X814923Y480477D01*
X823255Y486530D01*
X830299Y488819D01*
X830401Y488863D01*
X830506Y488899D01*
X830585Y488944D01*
X830668Y488981D01*
X830759Y489044D01*
X830855Y489100D01*
X830938Y489170D01*
X830998Y489212D01*
X831041Y489258D01*
X831108Y489314D01*
X832268Y490475D01*
X869532Y490475D01*
X870425Y489582D01*
X870425Y475618D01*
X869532Y474725D01*
X833928Y474725D01*
X833776Y474710D01*
X833623Y474702D01*
X833569Y474690D01*
X833527Y474685D01*
X833445Y474660D01*
X833300Y474626D01*
X830192Y473616D01*
X830052Y473555D01*
X829909Y473500D01*
X829862Y473471D01*
X829824Y473454D01*
X829753Y473405D01*
X829626Y473328D01*
X825511Y470338D01*
X825397Y470236D01*
X825278Y470140D01*
X825242Y470098D01*
X825211Y470070D01*
X825159Y470001D01*
X825062Y469889D01*
X822072Y465774D01*
X821995Y465642D01*
X821912Y465514D01*
X821891Y465463D01*
X821869Y465426D01*
X821841Y465345D01*
X821784Y465208D01*
X820212Y460371D01*
X820197Y460299D01*
X820172Y460230D01*
X820145Y460062D01*
X820126Y459977D01*
X820126Y459944D01*
X820119Y459902D01*
X819919Y457359D01*
X819920Y457293D01*
X819913Y457200D01*
X819913Y453259D01*
X816896Y445977D01*
X811323Y440404D01*
X804041Y437387D01*
X794916Y437387D01*
X794899Y437385D01*
X794881Y437387D01*
X794698Y437366D01*
X794516Y437347D01*
X794499Y437342D01*
X794481Y437340D01*
X794306Y437283D01*
X794131Y437229D01*
X794115Y437221D01*
X794098Y437215D01*
X793938Y437125D01*
X793777Y437037D01*
X793763Y437026D01*
X793748Y437017D01*
X793608Y436897D01*
X793468Y436780D01*
X793456Y436766D01*
X793443Y436754D01*
X793330Y436609D01*
X793215Y436466D01*
X793207Y436450D01*
X793196Y436436D01*
X793191Y436427D01*
X791919Y435154D01*
X769927Y435154D01*
X768961Y436120D01*
X768961Y482145D01*
X768959Y482163D01*
X768961Y482180D01*
X768939Y482363D01*
X768921Y482545D01*
X768916Y482563D01*
X768914Y482580D01*
X768857Y482755D01*
X768803Y482930D01*
X768794Y482946D01*
X768789Y482963D01*
X768698Y483123D01*
X768611Y483284D01*
X768600Y483298D01*
X768591Y483314D01*
X768471Y483453D01*
X768353Y483594D01*
X768339Y483605D01*
X768328Y483618D01*
X768183Y483731D01*
X768040Y483846D01*
X768024Y483854D01*
X768010Y483865D01*
X767845Y483947D01*
X767682Y484031D01*
X767665Y484036D01*
X767649Y484044D01*
X767471Y484092D01*
X767295Y484143D01*
X767278Y484144D01*
X767260Y484149D01*
X766930Y484176D01*
X637640Y484176D01*
X637622Y484174D01*
X637604Y484176D01*
X637422Y484154D01*
X637239Y484136D01*
X637222Y484131D01*
X637204Y484129D01*
X637030Y484072D01*
X636854Y484018D01*
X636838Y484010D01*
X636821Y484004D01*
X636661Y483914D01*
X636500Y483826D01*
X636486Y483815D01*
X636471Y483806D01*
X636332Y483686D01*
X636191Y483569D01*
X636180Y483555D01*
X636166Y483543D01*
X636054Y483398D01*
X635938Y483255D01*
X635930Y483239D01*
X635919Y483225D01*
X635837Y483060D01*
X635753Y482897D01*
X635748Y482880D01*
X635740Y482864D01*
X635692Y482686D01*
X635642Y482511D01*
X635640Y482493D01*
X635635Y482476D01*
X635608Y482145D01*
X635608Y381303D01*
X635610Y381285D01*
X635609Y381267D01*
X635630Y381085D01*
X635648Y380902D01*
X635653Y380885D01*
X635656Y380867D01*
X635712Y380693D01*
X635766Y380517D01*
X635775Y380502D01*
X635780Y380485D01*
X635871Y380324D01*
X635958Y380163D01*
X635970Y380150D01*
X635978Y380134D01*
X636099Y379995D01*
X636216Y379854D01*
X636230Y379843D01*
X636241Y379829D01*
X636386Y379717D01*
X636530Y379602D01*
X636545Y379593D01*
X636560Y379582D01*
X636724Y379500D01*
X636887Y379416D01*
X636904Y379411D01*
X636920Y379403D01*
X637098Y379355D01*
X637274Y379305D01*
X637292Y379303D01*
X637309Y379299D01*
X637640Y379272D01*
X766930Y379272D01*
X766947Y379273D01*
X766965Y379272D01*
X767148Y379293D01*
X767330Y379311D01*
X767347Y379317D01*
X767365Y379319D01*
X767540Y379376D01*
X767715Y379430D01*
X767731Y379438D01*
X767748Y379444D01*
X767908Y379534D01*
X768069Y379621D01*
X768083Y379633D01*
X768098Y379642D01*
X768238Y379762D01*
X768378Y379879D01*
X768390Y379893D01*
X768403Y379905D01*
X768516Y380050D01*
X768631Y380193D01*
X768639Y380209D01*
X768650Y380223D01*
X768732Y380388D01*
X768816Y380550D01*
X768821Y380567D01*
X768829Y380583D01*
X768877Y380761D01*
X768928Y380937D01*
X768929Y380955D01*
X768934Y380972D01*
X768961Y381303D01*
X768961Y427327D01*
X769927Y428294D01*
X791919Y428294D01*
X792910Y427302D01*
X792915Y427278D01*
X792925Y427179D01*
X792955Y427081D01*
X792975Y426981D01*
X793014Y426889D01*
X793043Y426794D01*
X793092Y426704D01*
X793131Y426610D01*
X793187Y426528D01*
X793235Y426440D01*
X793300Y426362D01*
X793358Y426277D01*
X793429Y426207D01*
X793493Y426131D01*
X793572Y426067D01*
X793645Y425995D01*
X793729Y425941D01*
X793806Y425878D01*
X793897Y425831D01*
X793983Y425776D01*
X794094Y425729D01*
X794164Y425693D01*
X794218Y425677D01*
X794289Y425648D01*
X802345Y423030D01*
X810677Y416977D01*
X816730Y408645D01*
X819913Y398849D01*
X819913Y393700D01*
X819919Y393634D01*
X819919Y393541D01*
X820119Y390998D01*
X820132Y390925D01*
X820136Y390852D01*
X820175Y390687D01*
X820190Y390601D01*
X820203Y390571D01*
X820212Y390529D01*
X821784Y385692D01*
X821838Y385568D01*
X821863Y385493D01*
X821879Y385465D01*
X821900Y385409D01*
X821929Y385362D01*
X821946Y385324D01*
X821995Y385253D01*
X822039Y385180D01*
X822061Y385143D01*
X822066Y385136D01*
X822072Y385126D01*
X825062Y381011D01*
X825164Y380897D01*
X825260Y380778D01*
X825302Y380742D01*
X825330Y380711D01*
X825399Y380659D01*
X825511Y380562D01*
X829626Y377572D01*
X829758Y377495D01*
X829886Y377412D01*
X829937Y377391D01*
X829974Y377369D01*
X830055Y377341D01*
X830192Y377284D01*
X833300Y376274D01*
X833449Y376242D01*
X833597Y376202D01*
X833652Y376197D01*
X833693Y376188D01*
X833779Y376187D01*
X833928Y376175D01*
X869532Y376175D01*
X870425Y375282D01*
X870425Y361318D01*
X869532Y360425D01*
X832268Y360425D01*
G37*
%LPD*%
G36*
X767592Y369575D02*
X767592Y369575D01*
X767596Y369573D01*
X767676Y369609D01*
X778623Y380557D01*
X778625Y380561D01*
X778629Y380563D01*
X778660Y380644D01*
X778660Y411432D01*
X791235Y411432D01*
X791238Y411433D01*
X791241Y411432D01*
X791282Y411452D01*
X791325Y411470D01*
X791326Y411473D01*
X791329Y411474D01*
X791360Y411556D01*
X791360Y426644D01*
X791358Y426647D01*
X791360Y426649D01*
X791340Y426691D01*
X791321Y426734D01*
X791318Y426735D01*
X791317Y426737D01*
X791235Y426768D01*
X770611Y426768D01*
X770608Y426767D01*
X770605Y426768D01*
X770564Y426748D01*
X770521Y426730D01*
X770520Y426727D01*
X770517Y426726D01*
X770486Y426644D01*
X770486Y377746D01*
X634083Y377746D01*
X634083Y485702D01*
X770486Y485702D01*
X770486Y436804D01*
X770488Y436801D01*
X770486Y436798D01*
X770506Y436757D01*
X770525Y436714D01*
X770528Y436713D01*
X770529Y436710D01*
X770611Y436680D01*
X791235Y436680D01*
X791238Y436681D01*
X791241Y436680D01*
X791282Y436700D01*
X791325Y436718D01*
X791326Y436721D01*
X791329Y436722D01*
X791360Y436804D01*
X791360Y451891D01*
X791358Y451894D01*
X791360Y451897D01*
X791340Y451938D01*
X791321Y451981D01*
X791318Y451982D01*
X791317Y451985D01*
X791235Y452016D01*
X778660Y452016D01*
X778660Y482803D01*
X778658Y482807D01*
X778659Y482812D01*
X778623Y482891D01*
X767676Y493838D01*
X767672Y493840D01*
X767670Y493844D01*
X767588Y493875D01*
X636981Y493875D01*
X636977Y493873D01*
X636973Y493875D01*
X636893Y493838D01*
X625946Y482891D01*
X625944Y482887D01*
X625940Y482885D01*
X625910Y482803D01*
X625910Y439392D01*
X613334Y439392D01*
X613331Y439391D01*
X613328Y439392D01*
X613287Y439372D01*
X613244Y439353D01*
X613243Y439351D01*
X613240Y439349D01*
X613210Y439268D01*
X613210Y424180D01*
X613211Y424177D01*
X613210Y424174D01*
X613230Y424133D01*
X613248Y424090D01*
X613251Y424089D01*
X613252Y424086D01*
X613334Y424056D01*
X625910Y424056D01*
X625910Y380644D01*
X625911Y380640D01*
X625910Y380636D01*
X625946Y380557D01*
X636893Y369609D01*
X636898Y369608D01*
X636899Y369603D01*
X636981Y369573D01*
X767588Y369573D01*
X767592Y369575D01*
G37*
%LPC*%
G36*
X852274Y514224D02*
X852274Y514224D01*
X852274Y520141D01*
X870235Y520141D01*
X870881Y519968D01*
X871460Y519633D01*
X871933Y519160D01*
X872268Y518581D01*
X872441Y517935D01*
X872441Y514224D01*
X852274Y514224D01*
G37*
%LPD*%
%LPC*%
G36*
X825359Y514224D02*
X825359Y514224D01*
X825359Y517935D01*
X825532Y518581D01*
X825867Y519160D01*
X826340Y519633D01*
X826919Y519968D01*
X827565Y520141D01*
X845526Y520141D01*
X845526Y514224D01*
X825359Y514224D01*
G37*
%LPD*%
%LPC*%
G36*
X548689Y464694D02*
X548689Y464694D01*
X548689Y468405D01*
X548862Y469051D01*
X549197Y469630D01*
X549670Y470103D01*
X550249Y470438D01*
X550895Y470611D01*
X568856Y470611D01*
X568856Y464694D01*
X548689Y464694D01*
G37*
%LPD*%
%LPC*%
G36*
X825359Y457724D02*
X825359Y457724D01*
X825359Y461435D01*
X825532Y462081D01*
X825867Y462660D01*
X826340Y463133D01*
X826919Y463468D01*
X827565Y463641D01*
X845526Y463641D01*
X845526Y457724D01*
X825359Y457724D01*
G37*
%LPD*%
%LPC*%
G36*
X548689Y408194D02*
X548689Y408194D01*
X548689Y411905D01*
X548862Y412551D01*
X549197Y413130D01*
X549670Y413603D01*
X550249Y413938D01*
X550895Y414111D01*
X568856Y414111D01*
X568856Y408194D01*
X548689Y408194D01*
G37*
%LPD*%
%LPC*%
G36*
X825359Y399924D02*
X825359Y399924D01*
X825359Y403635D01*
X825532Y404281D01*
X825867Y404860D01*
X826340Y405333D01*
X826919Y405668D01*
X827565Y405841D01*
X845526Y405841D01*
X845526Y399924D01*
X825359Y399924D01*
G37*
%LPD*%
%LPC*%
G36*
X825359Y343424D02*
X825359Y343424D01*
X825359Y347135D01*
X825532Y347781D01*
X825867Y348360D01*
X826340Y348833D01*
X826919Y349168D01*
X827565Y349341D01*
X845526Y349341D01*
X845526Y343424D01*
X825359Y343424D01*
G37*
%LPD*%
%LPC*%
G36*
X575604Y464694D02*
X575604Y464694D01*
X575604Y470611D01*
X593565Y470611D01*
X594211Y470438D01*
X594790Y470103D01*
X595263Y469630D01*
X595598Y469051D01*
X595771Y468405D01*
X595771Y464694D01*
X575604Y464694D01*
G37*
%LPD*%
%LPC*%
G36*
X852274Y457724D02*
X852274Y457724D01*
X852274Y463641D01*
X870235Y463641D01*
X870881Y463468D01*
X871460Y463133D01*
X871933Y462660D01*
X872268Y462081D01*
X872441Y461435D01*
X872441Y457724D01*
X852274Y457724D01*
G37*
%LPD*%
%LPC*%
G36*
X575604Y408194D02*
X575604Y408194D01*
X575604Y414111D01*
X593565Y414111D01*
X594211Y413938D01*
X594790Y413603D01*
X595263Y413130D01*
X595598Y412551D01*
X595771Y411905D01*
X595771Y408194D01*
X575604Y408194D01*
G37*
%LPD*%
%LPC*%
G36*
X852274Y399924D02*
X852274Y399924D01*
X852274Y405841D01*
X870235Y405841D01*
X870881Y405668D01*
X871460Y405333D01*
X871933Y404860D01*
X872268Y404281D01*
X872441Y403635D01*
X872441Y399924D01*
X852274Y399924D01*
G37*
%LPD*%
%LPC*%
G36*
X852274Y343424D02*
X852274Y343424D01*
X852274Y349341D01*
X870235Y349341D01*
X870881Y349168D01*
X871460Y348833D01*
X871933Y348360D01*
X872268Y347781D01*
X872441Y347135D01*
X872441Y343424D01*
X852274Y343424D01*
G37*
%LPD*%
%LPC*%
G36*
X852274Y501559D02*
X852274Y501559D01*
X852274Y507476D01*
X872441Y507476D01*
X872441Y503765D01*
X872268Y503119D01*
X871933Y502540D01*
X871460Y502067D01*
X870881Y501732D01*
X870235Y501559D01*
X852274Y501559D01*
G37*
%LPD*%
%LPC*%
G36*
X575604Y452029D02*
X575604Y452029D01*
X575604Y457946D01*
X595771Y457946D01*
X595771Y454235D01*
X595598Y453589D01*
X595263Y453010D01*
X594790Y452537D01*
X594211Y452202D01*
X593565Y452029D01*
X575604Y452029D01*
G37*
%LPD*%
%LPC*%
G36*
X852274Y445059D02*
X852274Y445059D01*
X852274Y450976D01*
X872441Y450976D01*
X872441Y447265D01*
X872268Y446619D01*
X871933Y446040D01*
X871460Y445567D01*
X870881Y445232D01*
X870235Y445059D01*
X852274Y445059D01*
G37*
%LPD*%
%LPC*%
G36*
X575604Y395529D02*
X575604Y395529D01*
X575604Y401446D01*
X595771Y401446D01*
X595771Y397735D01*
X595598Y397089D01*
X595263Y396510D01*
X594790Y396037D01*
X594211Y395702D01*
X593565Y395529D01*
X575604Y395529D01*
G37*
%LPD*%
%LPC*%
G36*
X852274Y387259D02*
X852274Y387259D01*
X852274Y393176D01*
X872441Y393176D01*
X872441Y389465D01*
X872268Y388819D01*
X871933Y388240D01*
X871460Y387767D01*
X870881Y387432D01*
X870235Y387259D01*
X852274Y387259D01*
G37*
%LPD*%
%LPC*%
G36*
X852274Y330759D02*
X852274Y330759D01*
X852274Y336676D01*
X872441Y336676D01*
X872441Y332965D01*
X872268Y332319D01*
X871933Y331740D01*
X871460Y331267D01*
X870881Y330932D01*
X870235Y330759D01*
X852274Y330759D01*
G37*
%LPD*%
%LPC*%
G36*
X827565Y501559D02*
X827565Y501559D01*
X826919Y501732D01*
X826340Y502067D01*
X825867Y502540D01*
X825532Y503119D01*
X825359Y503765D01*
X825359Y507476D01*
X845526Y507476D01*
X845526Y501559D01*
X827565Y501559D01*
G37*
%LPD*%
%LPC*%
G36*
X550895Y452029D02*
X550895Y452029D01*
X550249Y452202D01*
X549670Y452537D01*
X549197Y453010D01*
X548862Y453589D01*
X548689Y454235D01*
X548689Y457946D01*
X568856Y457946D01*
X568856Y452029D01*
X550895Y452029D01*
G37*
%LPD*%
%LPC*%
G36*
X827565Y445059D02*
X827565Y445059D01*
X826919Y445232D01*
X826340Y445567D01*
X825867Y446040D01*
X825532Y446619D01*
X825359Y447265D01*
X825359Y450976D01*
X845526Y450976D01*
X845526Y445059D01*
X827565Y445059D01*
G37*
%LPD*%
%LPC*%
G36*
X550895Y395529D02*
X550895Y395529D01*
X550249Y395702D01*
X549670Y396037D01*
X549197Y396510D01*
X548862Y397089D01*
X548689Y397735D01*
X548689Y401446D01*
X568856Y401446D01*
X568856Y395529D01*
X550895Y395529D01*
G37*
%LPD*%
%LPC*%
G36*
X827565Y387259D02*
X827565Y387259D01*
X826919Y387432D01*
X826340Y387767D01*
X825867Y388240D01*
X825532Y388819D01*
X825359Y389465D01*
X825359Y393176D01*
X845526Y393176D01*
X845526Y387259D01*
X827565Y387259D01*
G37*
%LPD*%
%LPC*%
G36*
X827565Y330759D02*
X827565Y330759D01*
X826919Y330932D01*
X826340Y331267D01*
X825867Y331740D01*
X825532Y332319D01*
X825359Y332965D01*
X825359Y336676D01*
X845526Y336676D01*
X845526Y330759D01*
X827565Y330759D01*
G37*
%LPD*%
D10*
X617220Y431800D03*
D11*
X787400Y444500D03*
X787400Y419100D03*
D12*
X570230Y433070D03*
D13*
X572230Y461320D03*
X572230Y404820D03*
D12*
X850900Y482600D03*
D13*
X848900Y454350D03*
X848900Y510850D03*
D12*
X850900Y368300D03*
D13*
X848900Y340050D03*
X848900Y396550D03*
D14*
X560070Y419100D03*
X836930Y382270D03*
X840740Y468630D03*
X859790Y355600D03*
X859790Y382270D03*
X836930Y354330D03*
X858520Y496570D03*
X838200Y496570D03*
X858520Y468630D03*
X581660Y447040D03*
X580390Y417830D03*
X558800Y447040D03*
D15*
X570230Y433070D02*
X570230Y431800D01*
X617220Y431800D01*
X787400Y444500D02*
X800100Y444500D01*
X800407Y444504D01*
X800714Y444515D01*
X801020Y444533D01*
X801326Y444559D01*
X801631Y444593D01*
X801935Y444633D01*
X802238Y444681D01*
X802540Y444737D01*
X802840Y444799D01*
X803139Y444869D01*
X803436Y444946D01*
X803732Y445030D01*
X804025Y445122D01*
X804315Y445220D01*
X804603Y445325D01*
X804889Y445438D01*
X805172Y445557D01*
X805452Y445683D01*
X805729Y445815D01*
X806002Y445955D01*
X806272Y446101D01*
X806538Y446253D01*
X806801Y446412D01*
X807060Y446577D01*
X807314Y446748D01*
X807565Y446925D01*
X807811Y447109D01*
X808053Y447298D01*
X808289Y447493D01*
X808522Y447694D01*
X808749Y447900D01*
X808971Y448112D01*
X809188Y448329D01*
X809400Y448551D01*
X809606Y448778D01*
X809807Y449011D01*
X810002Y449247D01*
X810191Y449489D01*
X810375Y449735D01*
X810552Y449986D01*
X810723Y450240D01*
X810888Y450499D01*
X811047Y450762D01*
X811199Y451028D01*
X811345Y451298D01*
X811485Y451571D01*
X811617Y451848D01*
X811743Y452128D01*
X811862Y452411D01*
X811975Y452697D01*
X812080Y452985D01*
X812178Y453275D01*
X812270Y453568D01*
X812354Y453864D01*
X812431Y454161D01*
X812501Y454460D01*
X812563Y454760D01*
X812619Y455062D01*
X812667Y455365D01*
X812707Y455669D01*
X812741Y455974D01*
X812767Y456280D01*
X812785Y456586D01*
X812796Y456893D01*
X812800Y457200D01*
X812807Y457814D01*
X812830Y458427D01*
X812867Y459040D01*
X812919Y459651D01*
X812985Y460262D01*
X813067Y460870D01*
X813163Y461476D01*
X813273Y462080D01*
X813398Y462681D01*
X813538Y463279D01*
X813692Y463873D01*
X813861Y464463D01*
X814043Y465049D01*
X814240Y465630D01*
X814451Y466207D01*
X814675Y466778D01*
X814913Y467344D01*
X815165Y467904D01*
X815431Y468457D01*
X815709Y469004D01*
X816001Y469544D01*
X816306Y470077D01*
X816624Y470602D01*
X816954Y471120D01*
X817296Y471629D01*
X817651Y472130D01*
X818018Y472622D01*
X818396Y473105D01*
X818786Y473579D01*
X819188Y474043D01*
X819600Y474498D01*
X820024Y474942D01*
X820458Y475376D01*
X820902Y475800D01*
X821357Y476212D01*
X821821Y476614D01*
X822295Y477004D01*
X822778Y477382D01*
X823270Y477749D01*
X823771Y478104D01*
X824280Y478446D01*
X824798Y478776D01*
X825323Y479094D01*
X825856Y479399D01*
X826396Y479691D01*
X826943Y479969D01*
X827496Y480235D01*
X828056Y480487D01*
X828622Y480725D01*
X829193Y480949D01*
X829770Y481160D01*
X830351Y481357D01*
X830937Y481539D01*
X831527Y481708D01*
X832121Y481862D01*
X832719Y482002D01*
X833320Y482127D01*
X833924Y482237D01*
X834530Y482333D01*
X835138Y482415D01*
X835749Y482481D01*
X836360Y482533D01*
X836973Y482570D01*
X837586Y482593D01*
X838200Y482600D01*
X850900Y482600D01*
X787400Y419100D02*
X788014Y419093D01*
X788627Y419070D01*
X789240Y419033D01*
X789851Y418981D01*
X790462Y418915D01*
X791070Y418833D01*
X791676Y418737D01*
X792280Y418627D01*
X792881Y418502D01*
X793479Y418362D01*
X794073Y418208D01*
X794663Y418039D01*
X795249Y417857D01*
X795830Y417660D01*
X796407Y417449D01*
X796978Y417225D01*
X797544Y416987D01*
X798104Y416735D01*
X798657Y416469D01*
X799204Y416191D01*
X799744Y415899D01*
X800277Y415594D01*
X800802Y415276D01*
X801320Y414946D01*
X801829Y414604D01*
X802330Y414249D01*
X802822Y413882D01*
X803305Y413504D01*
X803779Y413114D01*
X804243Y412712D01*
X804698Y412300D01*
X805142Y411876D01*
X805576Y411442D01*
X806000Y410998D01*
X806412Y410543D01*
X806814Y410079D01*
X807204Y409605D01*
X807582Y409122D01*
X807949Y408630D01*
X808304Y408129D01*
X808646Y407620D01*
X808976Y407102D01*
X809294Y406577D01*
X809599Y406044D01*
X809891Y405504D01*
X810169Y404957D01*
X810435Y404404D01*
X810687Y403844D01*
X810925Y403278D01*
X811149Y402707D01*
X811360Y402130D01*
X811557Y401549D01*
X811739Y400963D01*
X811908Y400373D01*
X812062Y399779D01*
X812202Y399181D01*
X812327Y398580D01*
X812437Y397976D01*
X812533Y397370D01*
X812615Y396762D01*
X812681Y396151D01*
X812733Y395540D01*
X812770Y394927D01*
X812793Y394314D01*
X812800Y393700D01*
X812807Y393086D01*
X812830Y392473D01*
X812867Y391860D01*
X812919Y391249D01*
X812985Y390638D01*
X813067Y390030D01*
X813163Y389424D01*
X813273Y388820D01*
X813398Y388219D01*
X813538Y387621D01*
X813692Y387027D01*
X813861Y386437D01*
X814043Y385851D01*
X814240Y385270D01*
X814451Y384693D01*
X814675Y384122D01*
X814913Y383556D01*
X815165Y382996D01*
X815431Y382443D01*
X815709Y381896D01*
X816001Y381356D01*
X816306Y380823D01*
X816624Y380298D01*
X816954Y379780D01*
X817296Y379271D01*
X817651Y378770D01*
X818018Y378278D01*
X818396Y377795D01*
X818786Y377321D01*
X819188Y376857D01*
X819600Y376402D01*
X820024Y375958D01*
X820458Y375524D01*
X820902Y375100D01*
X821357Y374688D01*
X821821Y374286D01*
X822295Y373896D01*
X822778Y373518D01*
X823270Y373151D01*
X823771Y372796D01*
X824280Y372454D01*
X824798Y372124D01*
X825323Y371806D01*
X825856Y371501D01*
X826396Y371209D01*
X826943Y370931D01*
X827496Y370665D01*
X828056Y370413D01*
X828622Y370175D01*
X829193Y369951D01*
X829770Y369740D01*
X830351Y369543D01*
X830937Y369361D01*
X831527Y369192D01*
X832121Y369038D01*
X832719Y368898D01*
X833320Y368773D01*
X833924Y368663D01*
X834530Y368567D01*
X835138Y368485D01*
X835749Y368419D01*
X836360Y368367D01*
X836973Y368330D01*
X837586Y368307D01*
X838200Y368300D01*
X850900Y368300D01*
M02*
