G04 EAGLE Gerber RS-274X export*
G75*
%MOMM*%
%FSLAX34Y34*%
%LPD*%
%INSilkscreen Top*%
%IPPOS*%
%AMOC8*
5,1,8,0,0,1.08239X$1,22.5*%
G01*
%ADD10C,0.127000*%
%ADD11C,0.280000*%
%ADD12C,0.101600*%


D10*
X552230Y452070D02*
X552230Y442070D01*
X552230Y424070D02*
X552230Y414070D01*
X589330Y442070D02*
X589330Y452070D01*
X589330Y424070D02*
X589330Y414070D01*
D11*
X591830Y433070D02*
X591832Y433145D01*
X591838Y433219D01*
X591848Y433293D01*
X591862Y433366D01*
X591879Y433438D01*
X591901Y433510D01*
X591926Y433580D01*
X591955Y433648D01*
X591988Y433716D01*
X592024Y433781D01*
X592063Y433844D01*
X592106Y433905D01*
X592152Y433964D01*
X592201Y434020D01*
X592253Y434073D01*
X592308Y434124D01*
X592365Y434171D01*
X592425Y434216D01*
X592487Y434257D01*
X592552Y434295D01*
X592618Y434329D01*
X592686Y434360D01*
X592755Y434387D01*
X592826Y434410D01*
X592898Y434430D01*
X592971Y434446D01*
X593044Y434458D01*
X593118Y434466D01*
X593193Y434470D01*
X593267Y434470D01*
X593342Y434466D01*
X593416Y434458D01*
X593489Y434446D01*
X593562Y434430D01*
X593634Y434410D01*
X593705Y434387D01*
X593774Y434360D01*
X593842Y434329D01*
X593908Y434295D01*
X593973Y434257D01*
X594035Y434216D01*
X594095Y434171D01*
X594152Y434124D01*
X594207Y434073D01*
X594259Y434020D01*
X594308Y433964D01*
X594354Y433905D01*
X594397Y433844D01*
X594436Y433781D01*
X594472Y433716D01*
X594505Y433648D01*
X594534Y433580D01*
X594559Y433510D01*
X594581Y433438D01*
X594598Y433366D01*
X594612Y433293D01*
X594622Y433219D01*
X594628Y433145D01*
X594630Y433070D01*
X594628Y432995D01*
X594622Y432921D01*
X594612Y432847D01*
X594598Y432774D01*
X594581Y432702D01*
X594559Y432630D01*
X594534Y432560D01*
X594505Y432492D01*
X594472Y432424D01*
X594436Y432359D01*
X594397Y432296D01*
X594354Y432235D01*
X594308Y432176D01*
X594259Y432120D01*
X594207Y432067D01*
X594152Y432016D01*
X594095Y431969D01*
X594035Y431924D01*
X593973Y431883D01*
X593908Y431845D01*
X593842Y431811D01*
X593774Y431780D01*
X593705Y431753D01*
X593634Y431730D01*
X593562Y431710D01*
X593489Y431694D01*
X593416Y431682D01*
X593342Y431674D01*
X593267Y431670D01*
X593193Y431670D01*
X593118Y431674D01*
X593044Y431682D01*
X592971Y431694D01*
X592898Y431710D01*
X592826Y431730D01*
X592755Y431753D01*
X592686Y431780D01*
X592618Y431811D01*
X592552Y431845D01*
X592487Y431883D01*
X592425Y431924D01*
X592365Y431969D01*
X592308Y432016D01*
X592253Y432067D01*
X592201Y432120D01*
X592152Y432176D01*
X592106Y432235D01*
X592063Y432296D01*
X592024Y432359D01*
X591988Y432424D01*
X591955Y432492D01*
X591926Y432560D01*
X591901Y432630D01*
X591879Y432702D01*
X591862Y432774D01*
X591848Y432847D01*
X591838Y432921D01*
X591832Y432995D01*
X591830Y433070D01*
D12*
X597785Y455838D02*
X606889Y455838D01*
X606889Y455837D02*
X606989Y455835D01*
X607088Y455829D01*
X607187Y455820D01*
X607286Y455807D01*
X607384Y455789D01*
X607482Y455769D01*
X607578Y455744D01*
X607674Y455716D01*
X607768Y455684D01*
X607861Y455648D01*
X607953Y455609D01*
X608043Y455567D01*
X608132Y455521D01*
X608218Y455472D01*
X608303Y455419D01*
X608385Y455363D01*
X608466Y455305D01*
X608544Y455243D01*
X608620Y455178D01*
X608693Y455110D01*
X608763Y455040D01*
X608831Y454967D01*
X608896Y454891D01*
X608958Y454813D01*
X609016Y454732D01*
X609072Y454650D01*
X609125Y454565D01*
X609174Y454479D01*
X609220Y454390D01*
X609262Y454300D01*
X609301Y454208D01*
X609337Y454115D01*
X609369Y454021D01*
X609397Y453925D01*
X609422Y453829D01*
X609442Y453731D01*
X609460Y453633D01*
X609473Y453534D01*
X609482Y453435D01*
X609488Y453336D01*
X609490Y453236D01*
X609491Y453236D02*
X609491Y451936D01*
X600386Y461119D02*
X597785Y464371D01*
X609491Y464371D01*
X609491Y461119D02*
X609491Y467623D01*
D10*
X868900Y463600D02*
X868900Y473600D01*
X868900Y491600D02*
X868900Y501600D01*
X831800Y473600D02*
X831800Y463600D01*
X831800Y491600D02*
X831800Y501600D01*
D11*
X826500Y482600D02*
X826502Y482675D01*
X826508Y482749D01*
X826518Y482823D01*
X826532Y482896D01*
X826549Y482968D01*
X826571Y483040D01*
X826596Y483110D01*
X826625Y483178D01*
X826658Y483246D01*
X826694Y483311D01*
X826733Y483374D01*
X826776Y483435D01*
X826822Y483494D01*
X826871Y483550D01*
X826923Y483603D01*
X826978Y483654D01*
X827035Y483701D01*
X827095Y483746D01*
X827157Y483787D01*
X827222Y483825D01*
X827288Y483859D01*
X827356Y483890D01*
X827425Y483917D01*
X827496Y483940D01*
X827568Y483960D01*
X827641Y483976D01*
X827714Y483988D01*
X827788Y483996D01*
X827863Y484000D01*
X827937Y484000D01*
X828012Y483996D01*
X828086Y483988D01*
X828159Y483976D01*
X828232Y483960D01*
X828304Y483940D01*
X828375Y483917D01*
X828444Y483890D01*
X828512Y483859D01*
X828578Y483825D01*
X828643Y483787D01*
X828705Y483746D01*
X828765Y483701D01*
X828822Y483654D01*
X828877Y483603D01*
X828929Y483550D01*
X828978Y483494D01*
X829024Y483435D01*
X829067Y483374D01*
X829106Y483311D01*
X829142Y483246D01*
X829175Y483178D01*
X829204Y483110D01*
X829229Y483040D01*
X829251Y482968D01*
X829268Y482896D01*
X829282Y482823D01*
X829292Y482749D01*
X829298Y482675D01*
X829300Y482600D01*
X829298Y482525D01*
X829292Y482451D01*
X829282Y482377D01*
X829268Y482304D01*
X829251Y482232D01*
X829229Y482160D01*
X829204Y482090D01*
X829175Y482022D01*
X829142Y481954D01*
X829106Y481889D01*
X829067Y481826D01*
X829024Y481765D01*
X828978Y481706D01*
X828929Y481650D01*
X828877Y481597D01*
X828822Y481546D01*
X828765Y481499D01*
X828705Y481454D01*
X828643Y481413D01*
X828578Y481375D01*
X828512Y481341D01*
X828444Y481310D01*
X828375Y481283D01*
X828304Y481260D01*
X828232Y481240D01*
X828159Y481224D01*
X828086Y481212D01*
X828012Y481204D01*
X827937Y481200D01*
X827863Y481200D01*
X827788Y481204D01*
X827714Y481212D01*
X827641Y481224D01*
X827568Y481240D01*
X827496Y481260D01*
X827425Y481283D01*
X827356Y481310D01*
X827288Y481341D01*
X827222Y481375D01*
X827157Y481413D01*
X827095Y481454D01*
X827035Y481499D01*
X826978Y481546D01*
X826923Y481597D01*
X826871Y481650D01*
X826822Y481706D01*
X826776Y481765D01*
X826733Y481826D01*
X826694Y481889D01*
X826658Y481954D01*
X826625Y482022D01*
X826596Y482090D01*
X826571Y482160D01*
X826549Y482232D01*
X826532Y482304D01*
X826518Y482377D01*
X826508Y482451D01*
X826502Y482525D01*
X826500Y482600D01*
D12*
X820744Y451950D02*
X811639Y451950D01*
X820744Y451949D02*
X820844Y451947D01*
X820943Y451941D01*
X821042Y451932D01*
X821141Y451919D01*
X821239Y451901D01*
X821337Y451881D01*
X821433Y451856D01*
X821529Y451828D01*
X821623Y451796D01*
X821716Y451760D01*
X821808Y451721D01*
X821898Y451679D01*
X821987Y451633D01*
X822073Y451584D01*
X822158Y451531D01*
X822240Y451475D01*
X822321Y451417D01*
X822399Y451355D01*
X822475Y451290D01*
X822548Y451222D01*
X822618Y451152D01*
X822686Y451079D01*
X822751Y451003D01*
X822813Y450925D01*
X822871Y450844D01*
X822927Y450762D01*
X822980Y450677D01*
X823029Y450591D01*
X823075Y450502D01*
X823117Y450412D01*
X823156Y450320D01*
X823192Y450227D01*
X823224Y450133D01*
X823252Y450037D01*
X823277Y449941D01*
X823297Y449843D01*
X823315Y449745D01*
X823328Y449646D01*
X823337Y449547D01*
X823343Y449448D01*
X823345Y449348D01*
X823345Y448048D01*
X811639Y460808D02*
X811641Y460915D01*
X811647Y461022D01*
X811657Y461128D01*
X811670Y461234D01*
X811688Y461340D01*
X811709Y461444D01*
X811734Y461548D01*
X811763Y461651D01*
X811796Y461753D01*
X811832Y461854D01*
X811872Y461953D01*
X811916Y462050D01*
X811963Y462146D01*
X812014Y462241D01*
X812068Y462333D01*
X812125Y462423D01*
X812186Y462511D01*
X812249Y462597D01*
X812316Y462680D01*
X812386Y462761D01*
X812459Y462840D01*
X812534Y462915D01*
X812613Y462988D01*
X812694Y463058D01*
X812777Y463125D01*
X812863Y463188D01*
X812951Y463249D01*
X813041Y463306D01*
X813133Y463360D01*
X813228Y463411D01*
X813324Y463458D01*
X813421Y463502D01*
X813520Y463542D01*
X813621Y463578D01*
X813723Y463611D01*
X813826Y463640D01*
X813930Y463665D01*
X814034Y463686D01*
X814140Y463704D01*
X814246Y463717D01*
X814352Y463727D01*
X814459Y463733D01*
X814566Y463735D01*
X811639Y460808D02*
X811641Y460687D01*
X811647Y460566D01*
X811657Y460445D01*
X811670Y460324D01*
X811688Y460204D01*
X811709Y460085D01*
X811734Y459966D01*
X811763Y459849D01*
X811796Y459732D01*
X811833Y459616D01*
X811873Y459502D01*
X811917Y459389D01*
X811965Y459278D01*
X812016Y459168D01*
X812070Y459059D01*
X812128Y458953D01*
X812190Y458849D01*
X812255Y458746D01*
X812323Y458646D01*
X812394Y458548D01*
X812469Y458452D01*
X812546Y458359D01*
X812627Y458268D01*
X812710Y458180D01*
X812796Y458095D01*
X812885Y458012D01*
X812976Y457933D01*
X813070Y457856D01*
X813167Y457782D01*
X813265Y457712D01*
X813366Y457645D01*
X813469Y457581D01*
X813574Y457520D01*
X813681Y457463D01*
X813790Y457410D01*
X813900Y457360D01*
X814012Y457313D01*
X814126Y457270D01*
X814241Y457231D01*
X816842Y462759D02*
X816764Y462837D01*
X816684Y462913D01*
X816601Y462986D01*
X816515Y463057D01*
X816427Y463124D01*
X816337Y463188D01*
X816244Y463248D01*
X816150Y463306D01*
X816053Y463360D01*
X815955Y463410D01*
X815855Y463458D01*
X815753Y463501D01*
X815650Y463541D01*
X815545Y463578D01*
X815440Y463610D01*
X815333Y463639D01*
X815225Y463664D01*
X815116Y463685D01*
X815007Y463703D01*
X814897Y463716D01*
X814787Y463726D01*
X814677Y463732D01*
X814566Y463734D01*
X816842Y462759D02*
X823345Y457231D01*
X823345Y463734D01*
D10*
X868900Y359300D02*
X868900Y349300D01*
X868900Y377300D02*
X868900Y387300D01*
X831800Y359300D02*
X831800Y349300D01*
X831800Y377300D02*
X831800Y387300D01*
D11*
X826500Y368300D02*
X826502Y368375D01*
X826508Y368449D01*
X826518Y368523D01*
X826532Y368596D01*
X826549Y368668D01*
X826571Y368740D01*
X826596Y368810D01*
X826625Y368878D01*
X826658Y368946D01*
X826694Y369011D01*
X826733Y369074D01*
X826776Y369135D01*
X826822Y369194D01*
X826871Y369250D01*
X826923Y369303D01*
X826978Y369354D01*
X827035Y369401D01*
X827095Y369446D01*
X827157Y369487D01*
X827222Y369525D01*
X827288Y369559D01*
X827356Y369590D01*
X827425Y369617D01*
X827496Y369640D01*
X827568Y369660D01*
X827641Y369676D01*
X827714Y369688D01*
X827788Y369696D01*
X827863Y369700D01*
X827937Y369700D01*
X828012Y369696D01*
X828086Y369688D01*
X828159Y369676D01*
X828232Y369660D01*
X828304Y369640D01*
X828375Y369617D01*
X828444Y369590D01*
X828512Y369559D01*
X828578Y369525D01*
X828643Y369487D01*
X828705Y369446D01*
X828765Y369401D01*
X828822Y369354D01*
X828877Y369303D01*
X828929Y369250D01*
X828978Y369194D01*
X829024Y369135D01*
X829067Y369074D01*
X829106Y369011D01*
X829142Y368946D01*
X829175Y368878D01*
X829204Y368810D01*
X829229Y368740D01*
X829251Y368668D01*
X829268Y368596D01*
X829282Y368523D01*
X829292Y368449D01*
X829298Y368375D01*
X829300Y368300D01*
X829298Y368225D01*
X829292Y368151D01*
X829282Y368077D01*
X829268Y368004D01*
X829251Y367932D01*
X829229Y367860D01*
X829204Y367790D01*
X829175Y367722D01*
X829142Y367654D01*
X829106Y367589D01*
X829067Y367526D01*
X829024Y367465D01*
X828978Y367406D01*
X828929Y367350D01*
X828877Y367297D01*
X828822Y367246D01*
X828765Y367199D01*
X828705Y367154D01*
X828643Y367113D01*
X828578Y367075D01*
X828512Y367041D01*
X828444Y367010D01*
X828375Y366983D01*
X828304Y366960D01*
X828232Y366940D01*
X828159Y366924D01*
X828086Y366912D01*
X828012Y366904D01*
X827937Y366900D01*
X827863Y366900D01*
X827788Y366904D01*
X827714Y366912D01*
X827641Y366924D01*
X827568Y366940D01*
X827496Y366960D01*
X827425Y366983D01*
X827356Y367010D01*
X827288Y367041D01*
X827222Y367075D01*
X827157Y367113D01*
X827095Y367154D01*
X827035Y367199D01*
X826978Y367246D01*
X826923Y367297D01*
X826871Y367350D01*
X826822Y367406D01*
X826776Y367465D01*
X826733Y367526D01*
X826694Y367589D01*
X826658Y367654D01*
X826625Y367722D01*
X826596Y367790D01*
X826571Y367860D01*
X826549Y367932D01*
X826532Y368004D01*
X826518Y368077D01*
X826508Y368151D01*
X826502Y368225D01*
X826500Y368300D01*
D12*
X820744Y337650D02*
X811639Y337650D01*
X820744Y337649D02*
X820844Y337647D01*
X820943Y337641D01*
X821042Y337632D01*
X821141Y337619D01*
X821239Y337601D01*
X821337Y337581D01*
X821433Y337556D01*
X821529Y337528D01*
X821623Y337496D01*
X821716Y337460D01*
X821808Y337421D01*
X821898Y337379D01*
X821987Y337333D01*
X822073Y337284D01*
X822158Y337231D01*
X822240Y337175D01*
X822321Y337117D01*
X822399Y337055D01*
X822475Y336990D01*
X822548Y336922D01*
X822618Y336852D01*
X822686Y336779D01*
X822751Y336703D01*
X822813Y336625D01*
X822871Y336544D01*
X822927Y336462D01*
X822980Y336377D01*
X823029Y336291D01*
X823075Y336202D01*
X823117Y336112D01*
X823156Y336020D01*
X823192Y335927D01*
X823224Y335833D01*
X823252Y335737D01*
X823277Y335641D01*
X823297Y335543D01*
X823315Y335445D01*
X823328Y335346D01*
X823337Y335247D01*
X823343Y335148D01*
X823345Y335048D01*
X823345Y333748D01*
X823345Y342931D02*
X823345Y346183D01*
X823346Y346183D02*
X823344Y346295D01*
X823338Y346407D01*
X823329Y346519D01*
X823315Y346631D01*
X823298Y346742D01*
X823276Y346852D01*
X823252Y346961D01*
X823223Y347070D01*
X823190Y347177D01*
X823154Y347284D01*
X823114Y347388D01*
X823071Y347492D01*
X823024Y347594D01*
X822974Y347694D01*
X822920Y347793D01*
X822862Y347889D01*
X822802Y347984D01*
X822738Y348076D01*
X822671Y348166D01*
X822601Y348254D01*
X822528Y348339D01*
X822452Y348422D01*
X822374Y348502D01*
X822292Y348580D01*
X822208Y348654D01*
X822122Y348726D01*
X822033Y348794D01*
X821941Y348859D01*
X821848Y348922D01*
X821752Y348980D01*
X821655Y349036D01*
X821555Y349088D01*
X821454Y349137D01*
X821351Y349182D01*
X821247Y349224D01*
X821142Y349262D01*
X821035Y349296D01*
X820927Y349327D01*
X820818Y349353D01*
X820708Y349377D01*
X820597Y349396D01*
X820486Y349411D01*
X820374Y349423D01*
X820262Y349431D01*
X820150Y349435D01*
X820038Y349435D01*
X819926Y349431D01*
X819814Y349423D01*
X819702Y349411D01*
X819591Y349396D01*
X819480Y349377D01*
X819370Y349353D01*
X819261Y349327D01*
X819153Y349296D01*
X819046Y349262D01*
X818941Y349224D01*
X818837Y349182D01*
X818734Y349137D01*
X818633Y349088D01*
X818533Y349036D01*
X818436Y348980D01*
X818340Y348922D01*
X818247Y348859D01*
X818155Y348794D01*
X818066Y348726D01*
X817980Y348654D01*
X817896Y348580D01*
X817814Y348502D01*
X817736Y348422D01*
X817660Y348339D01*
X817587Y348254D01*
X817517Y348166D01*
X817450Y348076D01*
X817386Y347984D01*
X817326Y347889D01*
X817268Y347793D01*
X817214Y347694D01*
X817164Y347594D01*
X817117Y347492D01*
X817074Y347388D01*
X817034Y347284D01*
X816998Y347177D01*
X816965Y347070D01*
X816936Y346961D01*
X816912Y346852D01*
X816890Y346742D01*
X816873Y346631D01*
X816859Y346519D01*
X816850Y346407D01*
X816844Y346295D01*
X816842Y346183D01*
X811639Y346833D02*
X811639Y342931D01*
X811640Y346833D02*
X811642Y346934D01*
X811648Y347035D01*
X811658Y347135D01*
X811671Y347235D01*
X811689Y347334D01*
X811710Y347433D01*
X811735Y347531D01*
X811764Y347627D01*
X811797Y347723D01*
X811833Y347817D01*
X811873Y347909D01*
X811917Y348000D01*
X811964Y348090D01*
X812014Y348177D01*
X812068Y348262D01*
X812125Y348345D01*
X812185Y348426D01*
X812249Y348505D01*
X812315Y348581D01*
X812384Y348654D01*
X812456Y348725D01*
X812531Y348793D01*
X812608Y348858D01*
X812688Y348919D01*
X812770Y348978D01*
X812854Y349033D01*
X812941Y349086D01*
X813029Y349134D01*
X813119Y349180D01*
X813211Y349221D01*
X813304Y349259D01*
X813399Y349294D01*
X813495Y349325D01*
X813592Y349352D01*
X813690Y349375D01*
X813789Y349394D01*
X813889Y349410D01*
X813989Y349422D01*
X814090Y349430D01*
X814191Y349434D01*
X814291Y349434D01*
X814392Y349430D01*
X814493Y349422D01*
X814593Y349410D01*
X814693Y349394D01*
X814792Y349375D01*
X814890Y349352D01*
X814987Y349325D01*
X815083Y349294D01*
X815178Y349259D01*
X815271Y349221D01*
X815363Y349180D01*
X815453Y349134D01*
X815542Y349086D01*
X815628Y349033D01*
X815712Y348978D01*
X815794Y348919D01*
X815874Y348858D01*
X815951Y348793D01*
X816026Y348725D01*
X816098Y348654D01*
X816167Y348581D01*
X816233Y348505D01*
X816297Y348426D01*
X816357Y348345D01*
X816414Y348262D01*
X816468Y348177D01*
X816518Y348090D01*
X816565Y348000D01*
X816609Y347909D01*
X816649Y347817D01*
X816685Y347723D01*
X816718Y347627D01*
X816747Y347531D01*
X816772Y347433D01*
X816793Y347334D01*
X816811Y347235D01*
X816824Y347135D01*
X816834Y347035D01*
X816840Y346934D01*
X816842Y346833D01*
X816842Y344232D01*
M02*
