G04 ===== Begin FILE IDENTIFICATION =====*
G04 File Format:  Gerber RS274X*
G04 ===== End FILE IDENTIFICATION =====*
%FSLAX24Y24*%
%MOMM*%
%SFA1.0000B1.0000*%
%OFA0.0B0.0*%
%ADD10C,0.025000*%
%LNprofile*%
%IPPOS*%
%LPD*%
G75*
G36*
G01X546485Y324256D02*
G01Y324234D01*
G01X546486Y324212D01*
G01X546487Y324190D01*
G01X546488Y324168D01*
G01X546490Y324146D01*
G01X546492Y324125D01*
G01X546494Y324103D01*
G01X546497Y324081D01*
G01X546500Y324059D01*
G01X546504Y324038D01*
G01X546508Y324016D01*
G01X546512Y323995D01*
G01X546517Y323973D01*
G01X546522Y323952D01*
G01X546528Y323931D01*
G01X546534Y323910D01*
G01X546540Y323888D01*
G01X546547Y323868D01*
G01X546553Y323847D01*
G01X546561Y323826D01*
G01X546568Y323806D01*
G01X546577Y323785D01*
G01X546585Y323765D01*
G01X546594Y323745D01*
G01X546603Y323725D01*
G01X546612Y323705D01*
G01X546622Y323685D01*
G01X546632Y323666D01*
G01X546643Y323647D01*
G01X546653Y323628D01*
G01X546665Y323609D01*
G01X546676Y323590D01*
G01X546688Y323571D01*
G01X546700Y323553D01*
G01X546712Y323535D01*
G01X546725Y323517D01*
G01X546738Y323500D01*
G01X546751Y323482D01*
G01X546765Y323465D01*
G01X546779Y323448D01*
G01X546793Y323431D01*
G01X546808Y323415D01*
G01X546823Y323399D01*
G01X546838Y323383D01*
G01X546853Y323367D01*
G01X546869Y323352D01*
G01X546885Y323337D01*
G01X546901Y323322D01*
G01X546917Y323307D01*
G01X546934Y323293D01*
G01X546951Y323279D01*
G01X546968Y323265D01*
G01X546986Y323252D01*
G01X547003Y323239D01*
G01X547021Y323226D01*
G01X547039Y323214D01*
G01X547057Y323202D01*
G01X547076Y323190D01*
G01X547095Y323179D01*
G01X547114Y323167D01*
G01X547133Y323157D01*
G01X547152Y323146D01*
G01X547171Y323136D01*
G01X547191Y323126D01*
G01X547211Y323117D01*
G01X547231Y323108D01*
G01X547251Y323099D01*
G01X547271Y323091D01*
G01X547292Y323082D01*
G01X547312Y323075D01*
G01X547333Y323067D01*
G01X547354Y323061D01*
G01X547374Y323054D01*
G01X547396Y323048D01*
G01X547417Y323042D01*
G01X547438Y323036D01*
G01X547459Y323031D01*
G01X547481Y323026D01*
G01X547502Y323022D01*
G01X547524Y323018D01*
G01X547545Y323014D01*
G01X547567Y323011D01*
G01X547589Y323008D01*
G01X547611Y323006D01*
G01X547632Y323004D01*
G01X547654Y323002D01*
G01X547676Y323001D01*
G01X547698Y323000D01*
G01X547720Y322999D01*
G01X547742D01*
G01Y323142D01*
G01X874515D01*
G01Y539398D01*
G01X549000D01*
G01Y536883D01*
G01X872000D01*
G01Y325657D01*
G01X549000D01*
G01Y536883D01*
G01Y539398D01*
G01X547742D01*
G01Y539255D01*
G01X547720D01*
G01X547698Y539254D01*
G01X547676Y539253D01*
G01X547654Y539252D01*
G01X547632Y539250D01*
G01X547611Y539248D01*
G01X547589Y539246D01*
G01X547567Y539243D01*
G01X547545Y539239D01*
G01X547524Y539236D01*
G01X547502Y539232D01*
G01X547481Y539227D01*
G01X547459Y539223D01*
G01X547438Y539218D01*
G01X547417Y539212D01*
G01X547395Y539206D01*
G01X547374Y539200D01*
G01X547353Y539193D01*
G01X547333Y539186D01*
G01X547312Y539179D01*
G01X547291Y539171D01*
G01X547271Y539163D01*
G01X547251Y539155D01*
G01X547231Y539146D01*
G01X547211Y539137D01*
G01X547191Y539128D01*
G01X547171Y539118D01*
G01X547152Y539108D01*
G01X547132Y539097D01*
G01X547113Y539086D01*
G01X547094Y539075D01*
G01X547076Y539064D01*
G01X547057Y539052D01*
G01X547039Y539040D01*
G01X547021Y539027D01*
G01X547003Y539015D01*
G01X546985Y539001D01*
G01X546968Y538988D01*
G01X546951Y538974D01*
G01X546934Y538960D01*
G01X546917Y538946D01*
G01X546901Y538932D01*
G01X546885Y538917D01*
G01X546869Y538902D01*
G01X546853Y538886D01*
G01X546838Y538871D01*
G01X546822Y538855D01*
G01X546808Y538839D01*
G01X546793Y538822D01*
G01X546779Y538805D01*
G01X546765Y538788D01*
G01X546751Y538771D01*
G01X546738Y538754D01*
G01X546725Y538736D01*
G01X546712Y538718D01*
G01X546700Y538700D01*
G01X546688Y538682D01*
G01X546676Y538663D01*
G01X546664Y538645D01*
G01X546653Y538626D01*
G01X546642Y538607D01*
G01X546632Y538587D01*
G01X546622Y538568D01*
G01X546612Y538548D01*
G01X546603Y538528D01*
G01X546594Y538509D01*
G01X546585Y538488D01*
G01X546576Y538468D01*
G01X546568Y538448D01*
G01X546561Y538427D01*
G01X546553Y538406D01*
G01X546546Y538386D01*
G01X546540Y538365D01*
G01X546534Y538344D01*
G01X546528Y538322D01*
G01X546522Y538301D01*
G01X546517Y538280D01*
G01X546512Y538258D01*
G01X546508Y538237D01*
G01X546504Y538215D01*
G01X546500Y538194D01*
G01X546497Y538172D01*
G01X546494Y538150D01*
G01X546492Y538128D01*
G01X546490Y538107D01*
G01X546488Y538085D01*
G01X546487Y538063D01*
G01X546486Y538041D01*
G01X546485Y538019D01*
G01Y537997D01*
G01Y324256D01*
G37*
M02*

