G04 ===== Begin FILE IDENTIFICATION =====*
G04 File Format:  Gerber RS274X*
G04 ===== End FILE IDENTIFICATION =====*
%FSLAX24Y24*%
%MOMM*%
%SFA1.0000B1.0000*%
%OFA0.0B0.0*%
%ADD14R,4.200000X1.350000*%
%ADD15C,1.879600*%
%ADD16C,1.200200*%
%LNcopper_bottom*%
%IPPOS*%
%LPD*%
G75*
G36*
G01X17529Y233671D02*
G01X17531Y233650D01*
G01X17527Y233590D01*
G01Y198210D01*
G01X17542Y198092D01*
G01X17549Y197973D01*
G01X17562Y197935D01*
G01X17567Y197894D01*
G01X17610Y197784D01*
G01X17647Y197671D01*
G01X17669Y197636D01*
G01X17684Y197599D01*
G01X17754Y197502D01*
G01X17817Y197402D01*
G01X17847Y197374D01*
G01X17870Y197341D01*
G01X17962Y197265D01*
G01X18049Y197184D01*
G01X18084Y197164D01*
G01X18115Y197139D01*
G01X18223Y197088D01*
G01X18327Y197030D01*
G01X18367Y197020D01*
G01X18403Y197003D01*
G01X18520Y196981D01*
G01X18635Y196951D01*
G01X18695Y196947D01*
G01X18715Y196943D01*
G01X18736Y196945D01*
G01X18796Y196941D01*
G01X37561D01*
G01Y188920D01*
G01X37576Y188802D01*
G01X37583Y188683D01*
G01X37596Y188645D01*
G01X37601Y188605D01*
G01X37645Y188494D01*
G01X37681Y188381D01*
G01X37703Y188346D01*
G01X37718Y188309D01*
G01X37788Y188213D01*
G01X37851Y188112D01*
G01X37881Y188084D01*
G01X37905Y188052D01*
G01X37996Y187976D01*
G01X38083Y187894D01*
G01X38118Y187875D01*
G01X38149Y187849D01*
G01X38257Y187798D01*
G01X38361Y187741D01*
G01X38401Y187730D01*
G01X38437Y187713D01*
G01X38554Y187691D01*
G01X38669Y187661D01*
G01X38730Y187657D01*
G01X38750Y187653D01*
G01X38770Y187655D01*
G01X38830Y187651D01*
G01X40101D01*
G01Y187649D01*
G01X38830D01*
G01X38712Y187634D01*
G01X38593Y187627D01*
G01X38555Y187614D01*
G01X38515Y187609D01*
G01X38404Y187565D01*
G01X38291Y187529D01*
G01X38256Y187507D01*
G01X38219Y187492D01*
G01X38123Y187422D01*
G01X38022Y187359D01*
G01X37994Y187329D01*
G01X37961Y187305D01*
G01X37886Y187214D01*
G01X37804Y187127D01*
G01X37784Y187092D01*
G01X37759Y187060D01*
G01X37708Y186953D01*
G01X37650Y186849D01*
G01X37640Y186809D01*
G01X37623Y186773D01*
G01X37601Y186656D01*
G01X37571Y186541D01*
G01X37567Y186480D01*
G01X37563Y186460D01*
G01X37565Y186440D01*
G01X37561Y186380D01*
G01Y178359D01*
G01X18796D01*
G01X18678Y178344D01*
G01X18559Y178337D01*
G01X18521Y178324D01*
G01X18480Y178319D01*
G01X18370Y178276D01*
G01X18257Y178239D01*
G01X18222Y178217D01*
G01X18185Y178202D01*
G01X18089Y178133D01*
G01X17988Y178069D01*
G01X17960Y178039D01*
G01X17927Y178016D01*
G01X17851Y177924D01*
G01X17770Y177837D01*
G01X17750Y177802D01*
G01X17725Y177771D01*
G01X17674Y177663D01*
G01X17616Y177559D01*
G01X17606Y177519D01*
G01X17589Y177483D01*
G01X17567Y177366D01*
G01X17537Y177251D01*
G01X17533Y177191D01*
G01X17529Y177171D01*
G01X17531Y177150D01*
G01X17527Y177090D01*
G01Y158496D01*
G01X17542Y158378D01*
G01X17549Y158259D01*
G01X17562Y158221D01*
G01X17567Y158180D01*
G01X17610Y158070D01*
G01X17647Y157957D01*
G01X17669Y157922D01*
G01X17684Y157885D01*
G01X17753Y157789D01*
G01X17817Y157688D01*
G01X17847Y157660D01*
G01X17870Y157627D01*
G01X17962Y157551D01*
G01X18049Y157470D01*
G01X18084Y157450D01*
G01X18115Y157425D01*
G01X18223Y157374D01*
G01X18327Y157316D01*
G01X18367Y157306D01*
G01X18403Y157289D01*
G01X18520Y157267D01*
G01X18635Y157237D01*
G01X18695Y157233D01*
G01X18715Y157229D01*
G01X18736Y157231D01*
G01X18796Y157227D01*
G01X352044D01*
G01X352162Y157242D01*
G01X352281Y157249D01*
G01X352319Y157262D01*
G01X352360Y157267D01*
G01X352470Y157310D01*
G01X352583Y157347D01*
G01X352618Y157369D01*
G01X352655Y157384D01*
G01X352751Y157453D01*
G01X352852Y157517D01*
G01X352880Y157547D01*
G01X352913Y157570D01*
G01X352989Y157662D01*
G01X353070Y157749D01*
G01X353090Y157784D01*
G01X353115Y157815D01*
G01X353166Y157923D01*
G01X353224Y158027D01*
G01X353234Y158067D01*
G01X353251Y158103D01*
G01X353273Y158220D01*
G01X353303Y158335D01*
G01X353307Y158395D01*
G01X353311Y158415D01*
G01X353309Y158436D01*
G01X353313Y158496D01*
G01Y178356D01*
G01X353296Y178494D01*
G01X353283Y178632D01*
G01X353276Y178651D01*
G01X353273Y178671D01*
G01X353222Y178801D01*
G01X353175Y178932D01*
G01X353164Y178948D01*
G01X353156Y178967D01*
G01X353075Y179080D01*
G01X352997Y179195D01*
G01X352981Y179208D01*
G01X352970Y179224D01*
G01X352862Y179314D01*
G01X352758Y179405D01*
G01X352740Y179414D01*
G01X352725Y179427D01*
G01X352599Y179487D01*
G01X352475Y179550D01*
G01X352455Y179554D01*
G01X352437Y179563D01*
G01X352301Y179589D01*
G01X352165Y179619D01*
G01X352144D01*
G01X352125Y179623D01*
G01X351986Y179614D01*
G01X351847Y179610D01*
G01X351827Y179604D01*
G01X351807Y179603D01*
G01X351675Y179560D01*
G01X351541Y179521D01*
G01X351524Y179511D01*
G01X351505Y179505D01*
G01X351387Y179431D01*
G01X351267Y179360D01*
G01X351246Y179341D01*
G01X351236Y179335D01*
G01X351222Y179320D01*
G01X351146Y179253D01*
G01X350760Y178867D01*
G01X350181Y178532D01*
G01X349534Y178359D01*
G01X330739D01*
G01Y186380D01*
G01X330724Y186498D01*
G01X330717Y186617D01*
G01X330704Y186655D01*
G01X330699Y186695D01*
G01X330655Y186806D01*
G01X330619Y186919D01*
G01X330597Y186954D01*
G01X330582Y186991D01*
G01X330512Y187087D01*
G01X330449Y187188D01*
G01X330419Y187216D01*
G01X330395Y187248D01*
G01X330304Y187324D01*
G01X330217Y187406D01*
G01X330182Y187425D01*
G01X330150Y187451D01*
G01X330043Y187502D01*
G01X329939Y187559D01*
G01X329899Y187570D01*
G01X329863Y187587D01*
G01X329746Y187609D01*
G01X329631Y187639D01*
G01X329570Y187643D01*
G01X329550Y187647D01*
G01X329530Y187645D01*
G01X329470Y187649D01*
G01X328199D01*
G01Y187651D01*
G01X329470D01*
G01X329588Y187666D01*
G01X329707Y187673D01*
G01X329745Y187686D01*
G01X329785Y187691D01*
G01X329896Y187735D01*
G01X330009Y187771D01*
G01X330044Y187793D01*
G01X330081Y187808D01*
G01X330177Y187878D01*
G01X330278Y187941D01*
G01X330306Y187971D01*
G01X330338Y187995D01*
G01X330414Y188086D01*
G01X330496Y188173D01*
G01X330515Y188208D01*
G01X330541Y188240D01*
G01X330592Y188347D01*
G01X330649Y188451D01*
G01X330660Y188491D01*
G01X330677Y188527D01*
G01X330699Y188644D01*
G01X330729Y188759D01*
G01X330733Y188820D01*
G01X330737Y188840D01*
G01X330735Y188860D01*
G01X330736Y188876D01*
G01X330737Y188877D01*
G01Y188879D01*
G01X330739Y188920D01*
G01Y196941D01*
G01X349534D01*
G01X350181Y196768D01*
G01X350760Y196433D01*
G01X351146Y196047D01*
G01X351256Y195961D01*
G01X351363Y195873D01*
G01X351382Y195864D01*
G01X351398Y195852D01*
G01X351526Y195796D01*
G01X351651Y195737D01*
G01X351671Y195733D01*
G01X351690Y195725D01*
G01X351828Y195703D01*
G01X351964Y195677D01*
G01X351984Y195679D01*
G01X352004Y195675D01*
G01X352143Y195689D01*
G01X352281Y195697D01*
G01X352300Y195703D01*
G01X352320Y195705D01*
G01X352451Y195752D01*
G01X352583Y195795D01*
G01X352601Y195806D01*
G01X352620Y195813D01*
G01X352734Y195891D01*
G01X352852Y195965D01*
G01X352866Y195980D01*
G01X352883Y195991D01*
G01X352975Y196095D01*
G01X353070Y196197D01*
G01X353080Y196215D01*
G01X353093Y196230D01*
G01X353156Y196354D01*
G01X353224Y196475D01*
G01X353229Y196495D01*
G01X353238Y196513D01*
G01X353268Y196649D01*
G01X353303Y196783D01*
G01X353305Y196811D01*
G01X353308Y196823D01*
G01X353307Y196844D01*
G01X353313Y196944D01*
G01Y234856D01*
G01X353296Y234994D01*
G01X353283Y235132D01*
G01X353276Y235151D01*
G01X353273Y235171D01*
G01X353222Y235301D01*
G01X353175Y235432D01*
G01X353164Y235448D01*
G01X353156Y235467D01*
G01X353075Y235580D01*
G01X352997Y235695D01*
G01X352981Y235708D01*
G01X352970Y235724D01*
G01X352862Y235814D01*
G01X352758Y235905D01*
G01X352740Y235914D01*
G01X352725Y235927D01*
G01X352599Y235987D01*
G01X352475Y236050D01*
G01X352455Y236054D01*
G01X352437Y236063D01*
G01X352301Y236089D01*
G01X352165Y236119D01*
G01X352144D01*
G01X352125Y236123D01*
G01X351986Y236114D01*
G01X351847Y236110D01*
G01X351827Y236104D01*
G01X351807Y236103D01*
G01X351675Y236060D01*
G01X351541Y236021D01*
G01X351524Y236011D01*
G01X351505Y236005D01*
G01X351387Y235930D01*
G01X351267Y235860D01*
G01X351246Y235841D01*
G01X351236Y235835D01*
G01X351222Y235820D01*
G01X351146Y235753D01*
G01X350760Y235367D01*
G01X350181Y235032D01*
G01X349534Y234859D01*
G01X330739D01*
G01Y242880D01*
G01X330724Y242998D01*
G01X330717Y243117D01*
G01X330704Y243155D01*
G01X330699Y243195D01*
G01X330655Y243306D01*
G01X330619Y243419D01*
G01X330597Y243454D01*
G01X330582Y243491D01*
G01X330512Y243587D01*
G01X330449Y243688D01*
G01X330419Y243716D01*
G01X330395Y243748D01*
G01X330304Y243824D01*
G01X330217Y243906D01*
G01X330182Y243925D01*
G01X330150Y243951D01*
G01X330043Y244002D01*
G01X329939Y244059D01*
G01X329899Y244070D01*
G01X329863Y244087D01*
G01X329746Y244109D01*
G01X329631Y244139D01*
G01X329570Y244143D01*
G01X329550Y244147D01*
G01X329530Y244145D01*
G01X329470Y244149D01*
G01X328199D01*
G01Y244151D01*
G01X329470D01*
G01X329588Y244166D01*
G01X329707Y244173D01*
G01X329745Y244186D01*
G01X329785Y244191D01*
G01X329896Y244235D01*
G01X330009Y244271D01*
G01X330044Y244293D01*
G01X330081Y244308D01*
G01X330177Y244378D01*
G01X330278Y244441D01*
G01X330306Y244471D01*
G01X330338Y244495D01*
G01X330414Y244586D01*
G01X330496Y244673D01*
G01X330515Y244708D01*
G01X330541Y244740D01*
G01X330592Y244847D01*
G01X330649Y244951D01*
G01X330660Y244991D01*
G01X330677Y245027D01*
G01X330699Y245144D01*
G01X330729Y245259D01*
G01X330733Y245320D01*
G01X330737Y245340D01*
G01X330735Y245360D01*
G01X330739Y245420D01*
G01Y253441D01*
G01X349534D01*
G01X350181Y253268D01*
G01X350760Y252933D01*
G01X351146Y252547D01*
G01X351256Y252461D01*
G01X351363Y252373D01*
G01X351382Y252364D01*
G01X351398Y252352D01*
G01X351526Y252296D01*
G01X351651Y252237D01*
G01X351671Y252233D01*
G01X351690Y252225D01*
G01X351828Y252203D01*
G01X351964Y252177D01*
G01X351984Y252179D01*
G01X352004Y252175D01*
G01X352143Y252189D01*
G01X352281Y252197D01*
G01X352300Y252203D01*
G01X352320Y252205D01*
G01X352451Y252252D01*
G01X352583Y252295D01*
G01X352601Y252306D01*
G01X352620Y252313D01*
G01X352734Y252391D01*
G01X352852Y252465D01*
G01X352866Y252480D01*
G01X352883Y252491D01*
G01X352975Y252595D01*
G01X353070Y252697D01*
G01X353080Y252715D01*
G01X353093Y252730D01*
G01X353156Y252854D01*
G01X353224Y252975D01*
G01X353229Y252995D01*
G01X353238Y253013D01*
G01X353268Y253149D01*
G01X353303Y253283D01*
G01X353305Y253311D01*
G01X353308Y253323D01*
G01X353307Y253344D01*
G01X353313Y253444D01*
G01Y326644D01*
G01X353298Y326762D01*
G01X353291Y326881D01*
G01X353278Y326919D01*
G01X353273Y326960D01*
G01X353230Y327070D01*
G01X353193Y327183D01*
G01X353171Y327218D01*
G01X353156Y327255D01*
G01X353087Y327351D01*
G01X353023Y327452D01*
G01X352993Y327480D01*
G01X352970Y327513D01*
G01X352878Y327589D01*
G01X352791Y327670D01*
G01X352756Y327690D01*
G01X352725Y327715D01*
G01X352617Y327766D01*
G01X352513Y327824D01*
G01X352473Y327834D01*
G01X352437Y327851D01*
G01X352320Y327873D01*
G01X352205Y327903D01*
G01X352145Y327907D01*
G01X352125Y327911D01*
G01X352104Y327909D01*
G01X352044Y327913D01*
G01X306866D01*
G01Y253441D01*
G01X325661D01*
G01Y246689D01*
G01X304659D01*
G01Y241611D01*
G01X325661D01*
G01Y234859D01*
G01X306866D01*
G01Y196941D01*
G01X325661D01*
G01Y190189D01*
G01X304659D01*
G01Y185111D01*
G01X325661D01*
G01Y178359D01*
G01X306866D01*
G01X306219Y178532D01*
G01X305640Y178867D01*
G01X305167Y179340D01*
G01X304832Y179919D01*
G01X304659Y180566D01*
G01Y185111D01*
G01Y190189D01*
G01Y194734D01*
G01X304832Y195381D01*
G01X305167Y195960D01*
G01X305640Y196433D01*
G01X306219Y196768D01*
G01X306866Y196941D01*
G01Y234859D01*
G01X306219Y235032D01*
G01X305640Y235367D01*
G01X305167Y235840D01*
G01X304832Y236419D01*
G01X304659Y237066D01*
G01Y241611D01*
G01Y246689D01*
G01Y251234D01*
G01X304832Y251881D01*
G01X305167Y252460D01*
G01X305640Y252933D01*
G01X306219Y253268D01*
G01X306866Y253441D01*
G01Y327913D01*
G01X289559D01*
G01Y316485D01*
G01X289816Y316445D01*
G01X291603Y315864D01*
G01X293277Y315011D01*
G01X294798Y313906D01*
G01X296126Y312578D01*
G01X297231Y311057D01*
G01X298084Y309383D01*
G01X298665Y307596D01*
G01X298705Y307339D01*
G01X289559D01*
G01Y302261D01*
G01X298705D01*
G01X298665Y302004D01*
G01X298084Y300217D01*
G01X297231Y298543D01*
G01X296126Y297022D01*
G01X294798Y295694D01*
G01X293277Y294589D01*
G01X291603Y293736D01*
G01X289816Y293155D01*
G01X289559Y293115D01*
G01Y302261D01*
G01Y307339D01*
G01Y316485D01*
G01Y327913D01*
G01X287019D01*
G01Y304801D01*
G01X287021D01*
G01Y304799D01*
G01X287019D01*
G01Y304801D01*
G01Y327913D01*
G01X284481D01*
G01Y316485D01*
G01Y307339D01*
G01X275335D01*
G01Y302261D01*
G01X284481D01*
G01Y293115D01*
G01X284224Y293155D01*
G01X282437Y293736D01*
G01X280763Y294589D01*
G01X279242Y295694D01*
G01X277914Y297022D01*
G01X276809Y298543D01*
G01X275956Y300217D01*
G01X275375Y302004D01*
G01X275335Y302261D01*
G01Y307339D01*
G01X275375Y307596D01*
G01X275956Y309383D01*
G01X276809Y311057D01*
G01X277914Y312578D01*
G01X279242Y313906D01*
G01X280763Y315011D01*
G01X282437Y315864D01*
G01X284224Y316445D01*
G01X284481Y316485D01*
G01Y327913D01*
G01X251335D01*
G01Y318199D01*
G01X256665D01*
G01X261590Y316159D01*
G01X265359Y312390D01*
G01X267399Y307465D01*
G01Y302135D01*
G01X265359Y297210D01*
G01X261590Y293441D01*
G01X256665Y291401D01*
G01X251335D01*
G01X246410Y293441D01*
G01X242641Y297210D01*
G01X240601Y302135D01*
G01Y307465D01*
G01X242641Y312390D01*
G01X246410Y316159D01*
G01X251335Y318199D01*
G01Y327913D01*
G01X77767D01*
G01Y200755D01*
G01X81745D01*
G01X85421Y199233D01*
G01X88235Y196419D01*
G01X89757Y192743D01*
G01Y188765D01*
G01X88235Y185089D01*
G01X85421Y182275D01*
G01X81745Y180753D01*
G01X77767D01*
G01X74091Y182275D01*
G01X71277Y185089D01*
G01X69755Y188765D01*
G01Y192743D01*
G01X71277Y196419D01*
G01X74091Y199233D01*
G01X77767Y200755D01*
G01Y327913D01*
G01X42639D01*
G01Y253441D01*
G01X61434D01*
G01X62081Y253268D01*
G01X62660Y252933D01*
G01X63133Y252460D01*
G01X63468Y251881D01*
G01X63641Y251234D01*
G01Y246689D01*
G01X42639D01*
G01Y241611D01*
G01X63641D01*
G01Y237066D01*
G01X63468Y236419D01*
G01X63133Y235840D01*
G01X62660Y235367D01*
G01X62081Y235032D01*
G01X61434Y234859D01*
G01X42639D01*
G01Y196941D01*
G01X61434D01*
G01X62081Y196768D01*
G01X62660Y196433D01*
G01X63133Y195960D01*
G01X63468Y195381D01*
G01X63641Y194734D01*
G01Y190189D01*
G01X42639D01*
G01Y185111D01*
G01X63641D01*
G01Y180566D01*
G01X63468Y179919D01*
G01X63133Y179340D01*
G01X62660Y178867D01*
G01X62081Y178532D01*
G01X61434Y178359D01*
G01X42639D01*
G01Y185111D01*
G01Y190189D01*
G01Y196941D01*
G01Y234859D01*
G01Y241611D01*
G01Y246689D01*
G01Y253441D01*
G01Y327913D01*
G01X18796D01*
G01X18678Y327898D01*
G01X18559Y327891D01*
G01X18521Y327878D01*
G01X18480Y327873D01*
G01X18370Y327830D01*
G01X18257Y327793D01*
G01X18222Y327771D01*
G01X18185Y327756D01*
G01X18089Y327687D01*
G01X17988Y327623D01*
G01X17960Y327593D01*
G01X17927Y327570D01*
G01X17851Y327478D01*
G01X17770Y327391D01*
G01X17750Y327356D01*
G01X17725Y327325D01*
G01X17674Y327217D01*
G01X17616Y327113D01*
G01X17606Y327073D01*
G01X17589Y327037D01*
G01X17567Y326920D01*
G01X17537Y326805D01*
G01X17533Y326745D01*
G01X17529Y326725D01*
G01X17531Y326704D01*
G01X17527Y326644D01*
G01Y254710D01*
G01X17542Y254592D01*
G01X17549Y254473D01*
G01X17562Y254435D01*
G01X17567Y254394D01*
G01X17610Y254284D01*
G01X17647Y254171D01*
G01X17669Y254136D01*
G01X17684Y254099D01*
G01X17754Y254002D01*
G01X17817Y253902D01*
G01X17847Y253874D01*
G01X17870Y253841D01*
G01X17962Y253765D01*
G01X18049Y253684D01*
G01X18084Y253664D01*
G01X18115Y253639D01*
G01X18223Y253588D01*
G01X18327Y253530D01*
G01X18367Y253520D01*
G01X18403Y253503D01*
G01X18520Y253481D01*
G01X18635Y253451D01*
G01X18695Y253447D01*
G01X18715Y253443D01*
G01X18736Y253445D01*
G01X18796Y253441D01*
G01X37561D01*
G01Y245420D01*
G01X37576Y245302D01*
G01X37583Y245183D01*
G01X37596Y245145D01*
G01X37601Y245105D01*
G01X37644Y244994D01*
G01X37681Y244881D01*
G01X37703Y244846D01*
G01X37718Y244809D01*
G01X37788Y244713D01*
G01X37851Y244612D01*
G01X37881Y244584D01*
G01X37905Y244552D01*
G01X37996Y244476D01*
G01X38083Y244394D01*
G01X38118Y244375D01*
G01X38149Y244349D01*
G01X38257Y244298D01*
G01X38361Y244241D01*
G01X38401Y244230D01*
G01X38437Y244213D01*
G01X38554Y244191D01*
G01X38669Y244161D01*
G01X38730Y244157D01*
G01X38750Y244153D01*
G01X38770Y244155D01*
G01X38830Y244151D01*
G01X40101D01*
G01Y244149D01*
G01X38830D01*
G01X38712Y244134D01*
G01X38593Y244127D01*
G01X38555Y244114D01*
G01X38515Y244109D01*
G01X38404Y244065D01*
G01X38291Y244029D01*
G01X38256Y244007D01*
G01X38219Y243992D01*
G01X38123Y243922D01*
G01X38022Y243859D01*
G01X37994Y243829D01*
G01X37961Y243805D01*
G01X37886Y243714D01*
G01X37804Y243627D01*
G01X37784Y243592D01*
G01X37759Y243560D01*
G01X37708Y243453D01*
G01X37650Y243349D01*
G01X37640Y243309D01*
G01X37623Y243273D01*
G01X37601Y243156D01*
G01X37571Y243041D01*
G01X37567Y242980D01*
G01X37563Y242960D01*
G01X37565Y242940D01*
G01X37561Y242880D01*
G01Y234859D01*
G01X18796D01*
G01X18678Y234844D01*
G01X18559Y234837D01*
G01X18521Y234824D01*
G01X18480Y234819D01*
G01X18370Y234776D01*
G01X18257Y234739D01*
G01X18222Y234717D01*
G01X18185Y234702D01*
G01X18089Y234633D01*
G01X17988Y234569D01*
G01X17960Y234539D01*
G01X17927Y234516D01*
G01X17851Y234424D01*
G01X17770Y234337D01*
G01X17750Y234302D01*
G01X17725Y234271D01*
G01X17674Y234163D01*
G01X17616Y234059D01*
G01X17606Y234019D01*
G01X17589Y233983D01*
G01X17567Y233866D01*
G01X17537Y233751D01*
G01X17533Y233691D01*
G01X17529Y233671D01*
G37*
D14*
X328200Y187650D03*
Y244150D03*
X40100D03*
Y187650D03*
D15*
X254000Y304800D03*
X287020D03*
D16*
X75438Y237490D03*
X102870Y190500D03*
X127000Y193040D03*
X169418Y233680D03*
X195834D03*
X194310Y197104D03*
X216408Y197358D03*
X285750Y271780D03*
X135890Y237490D03*
X285750Y195580D03*
X93472Y257556D03*
X260350Y238760D03*
X146050Y262890D03*
X283210Y237490D03*
X240030Y196850D03*
X107950Y240030D03*
X265430Y194310D03*
X184150Y262890D03*
X240030Y240030D03*
X79756Y190754D03*
G36*
G01X17529Y233671D02*
G01X17531Y233650D01*
G01X17527Y233590D01*
G01Y198210D01*
G01X17542Y198092D01*
G01X17549Y197973D01*
G01X17562Y197935D01*
G01X17567Y197894D01*
G01X17610Y197784D01*
G01X17647Y197671D01*
G01X17669Y197636D01*
G01X17684Y197599D01*
G01X17754Y197502D01*
G01X17817Y197402D01*
G01X17847Y197374D01*
G01X17870Y197341D01*
G01X17962Y197265D01*
G01X18049Y197184D01*
G01X18084Y197164D01*
G01X18115Y197139D01*
G01X18223Y197088D01*
G01X18327Y197030D01*
G01X18367Y197020D01*
G01X18403Y197003D01*
G01X18520Y196981D01*
G01X18635Y196951D01*
G01X18695Y196947D01*
G01X18715Y196943D01*
G01X18736Y196945D01*
G01X18796Y196941D01*
G01X37561D01*
G01Y188920D01*
G01X37576Y188802D01*
G01X37583Y188683D01*
G01X37596Y188645D01*
G01X37601Y188605D01*
G01X37645Y188494D01*
G01X37681Y188381D01*
G01X37703Y188346D01*
G01X37718Y188309D01*
G01X37788Y188213D01*
G01X37851Y188112D01*
G01X37881Y188084D01*
G01X37905Y188052D01*
G01X37996Y187976D01*
G01X38083Y187894D01*
G01X38118Y187875D01*
G01X38149Y187849D01*
G01X38257Y187798D01*
G01X38361Y187741D01*
G01X38401Y187730D01*
G01X38437Y187713D01*
G01X38554Y187691D01*
G01X38669Y187661D01*
G01X38730Y187657D01*
G01X38750Y187653D01*
G01X38770Y187655D01*
G01X38830Y187651D01*
G01X40101D01*
G01Y187649D01*
G01X38830D01*
G01X38712Y187634D01*
G01X38593Y187627D01*
G01X38555Y187614D01*
G01X38515Y187609D01*
G01X38404Y187565D01*
G01X38291Y187529D01*
G01X38256Y187507D01*
G01X38219Y187492D01*
G01X38123Y187422D01*
G01X38022Y187359D01*
G01X37994Y187329D01*
G01X37961Y187305D01*
G01X37886Y187214D01*
G01X37804Y187127D01*
G01X37784Y187092D01*
G01X37759Y187060D01*
G01X37708Y186953D01*
G01X37650Y186849D01*
G01X37640Y186809D01*
G01X37623Y186773D01*
G01X37601Y186656D01*
G01X37571Y186541D01*
G01X37567Y186480D01*
G01X37563Y186460D01*
G01X37565Y186440D01*
G01X37561Y186380D01*
G01Y178359D01*
G01X18796D01*
G01X18678Y178344D01*
G01X18559Y178337D01*
G01X18521Y178324D01*
G01X18480Y178319D01*
G01X18370Y178276D01*
G01X18257Y178239D01*
G01X18222Y178217D01*
G01X18185Y178202D01*
G01X18089Y178133D01*
G01X17988Y178069D01*
G01X17960Y178039D01*
G01X17927Y178016D01*
G01X17851Y177924D01*
G01X17770Y177837D01*
G01X17750Y177802D01*
G01X17725Y177771D01*
G01X17674Y177663D01*
G01X17616Y177559D01*
G01X17606Y177519D01*
G01X17589Y177483D01*
G01X17567Y177366D01*
G01X17537Y177251D01*
G01X17533Y177191D01*
G01X17529Y177171D01*
G01X17531Y177150D01*
G01X17527Y177090D01*
G01Y158496D01*
G01X17542Y158378D01*
G01X17549Y158259D01*
G01X17562Y158221D01*
G01X17567Y158180D01*
G01X17610Y158070D01*
G01X17647Y157957D01*
G01X17669Y157922D01*
G01X17684Y157885D01*
G01X17753Y157789D01*
G01X17817Y157688D01*
G01X17847Y157660D01*
G01X17870Y157627D01*
G01X17962Y157551D01*
G01X18049Y157470D01*
G01X18084Y157450D01*
G01X18115Y157425D01*
G01X18223Y157374D01*
G01X18327Y157316D01*
G01X18367Y157306D01*
G01X18403Y157289D01*
G01X18520Y157267D01*
G01X18635Y157237D01*
G01X18695Y157233D01*
G01X18715Y157229D01*
G01X18736Y157231D01*
G01X18796Y157227D01*
G01X352044D01*
G01X352162Y157242D01*
G01X352281Y157249D01*
G01X352319Y157262D01*
G01X352360Y157267D01*
G01X352470Y157310D01*
G01X352583Y157347D01*
G01X352618Y157369D01*
G01X352655Y157384D01*
G01X352751Y157453D01*
G01X352852Y157517D01*
G01X352880Y157547D01*
G01X352913Y157570D01*
G01X352989Y157662D01*
G01X353070Y157749D01*
G01X353090Y157784D01*
G01X353115Y157815D01*
G01X353166Y157923D01*
G01X353224Y158027D01*
G01X353234Y158067D01*
G01X353251Y158103D01*
G01X353273Y158220D01*
G01X353303Y158335D01*
G01X353307Y158395D01*
G01X353311Y158415D01*
G01X353309Y158436D01*
G01X353313Y158496D01*
G01Y178356D01*
G01X353296Y178494D01*
G01X353283Y178632D01*
G01X353276Y178651D01*
G01X353273Y178671D01*
G01X353222Y178801D01*
G01X353175Y178932D01*
G01X353164Y178948D01*
G01X353156Y178967D01*
G01X353075Y179080D01*
G01X352997Y179195D01*
G01X352981Y179208D01*
G01X352970Y179224D01*
G01X352862Y179314D01*
G01X352758Y179405D01*
G01X352740Y179414D01*
G01X352725Y179427D01*
G01X352599Y179487D01*
G01X352475Y179550D01*
G01X352455Y179554D01*
G01X352437Y179563D01*
G01X352301Y179589D01*
G01X352165Y179619D01*
G01X352144D01*
G01X352125Y179623D01*
G01X351986Y179614D01*
G01X351847Y179610D01*
G01X351827Y179604D01*
G01X351807Y179603D01*
G01X351675Y179560D01*
G01X351541Y179521D01*
G01X351524Y179511D01*
G01X351505Y179505D01*
G01X351387Y179431D01*
G01X351267Y179360D01*
G01X351246Y179341D01*
G01X351236Y179335D01*
G01X351222Y179320D01*
G01X351146Y179253D01*
G01X350760Y178867D01*
G01X350181Y178532D01*
G01X349534Y178359D01*
G01X330739D01*
G01Y186380D01*
G01X330724Y186498D01*
G01X330717Y186617D01*
G01X330704Y186655D01*
G01X330699Y186695D01*
G01X330655Y186806D01*
G01X330619Y186919D01*
G01X330597Y186954D01*
G01X330582Y186991D01*
G01X330512Y187087D01*
G01X330449Y187188D01*
G01X330419Y187216D01*
G01X330395Y187248D01*
G01X330304Y187324D01*
G01X330217Y187406D01*
G01X330182Y187425D01*
G01X330150Y187451D01*
G01X330043Y187502D01*
G01X329939Y187559D01*
G01X329899Y187570D01*
G01X329863Y187587D01*
G01X329746Y187609D01*
G01X329631Y187639D01*
G01X329570Y187643D01*
G01X329550Y187647D01*
G01X329530Y187645D01*
G01X329470Y187649D01*
G01X328199D01*
G01Y187651D01*
G01X329470D01*
G01X329588Y187666D01*
G01X329707Y187673D01*
G01X329745Y187686D01*
G01X329785Y187691D01*
G01X329896Y187735D01*
G01X330009Y187771D01*
G01X330044Y187793D01*
G01X330081Y187808D01*
G01X330177Y187878D01*
G01X330278Y187941D01*
G01X330306Y187971D01*
G01X330338Y187995D01*
G01X330414Y188086D01*
G01X330496Y188173D01*
G01X330515Y188208D01*
G01X330541Y188240D01*
G01X330592Y188347D01*
G01X330649Y188451D01*
G01X330660Y188491D01*
G01X330677Y188527D01*
G01X330699Y188644D01*
G01X330729Y188759D01*
G01X330733Y188820D01*
G01X330737Y188840D01*
G01X330735Y188860D01*
G01X330736Y188876D01*
G01X330737Y188877D01*
G01Y188879D01*
G01X330739Y188920D01*
G01Y196941D01*
G01X349534D01*
G01X350181Y196768D01*
G01X350760Y196433D01*
G01X351146Y196047D01*
G01X351256Y195961D01*
G01X351363Y195873D01*
G01X351382Y195864D01*
G01X351398Y195852D01*
G01X351526Y195796D01*
G01X351651Y195737D01*
G01X351671Y195733D01*
G01X351690Y195725D01*
G01X351828Y195703D01*
G01X351964Y195677D01*
G01X351984Y195679D01*
G01X352004Y195675D01*
G01X352143Y195689D01*
G01X352281Y195697D01*
G01X352300Y195703D01*
G01X352320Y195705D01*
G01X352451Y195752D01*
G01X352583Y195795D01*
G01X352601Y195806D01*
G01X352620Y195813D01*
G01X352734Y195891D01*
G01X352852Y195965D01*
G01X352866Y195980D01*
G01X352883Y195991D01*
G01X352975Y196095D01*
G01X353070Y196197D01*
G01X353080Y196215D01*
G01X353093Y196230D01*
G01X353156Y196354D01*
G01X353224Y196475D01*
G01X353229Y196495D01*
G01X353238Y196513D01*
G01X353268Y196649D01*
G01X353303Y196783D01*
G01X353305Y196811D01*
G01X353308Y196823D01*
G01X353307Y196844D01*
G01X353313Y196944D01*
G01Y234856D01*
G01X353296Y234994D01*
G01X353283Y235132D01*
G01X353276Y235151D01*
G01X353273Y235171D01*
G01X353222Y235301D01*
G01X353175Y235432D01*
G01X353164Y235448D01*
G01X353156Y235467D01*
G01X353075Y235580D01*
G01X352997Y235695D01*
G01X352981Y235708D01*
G01X352970Y235724D01*
G01X352862Y235814D01*
G01X352758Y235905D01*
G01X352740Y235914D01*
G01X352725Y235927D01*
G01X352599Y235987D01*
G01X352475Y236050D01*
G01X352455Y236054D01*
G01X352437Y236063D01*
G01X352301Y236089D01*
G01X352165Y236119D01*
G01X352144D01*
G01X352125Y236123D01*
G01X351986Y236114D01*
G01X351847Y236110D01*
G01X351827Y236104D01*
G01X351807Y236103D01*
G01X351675Y236060D01*
G01X351541Y236021D01*
G01X351524Y236011D01*
G01X351505Y236005D01*
G01X351387Y235930D01*
G01X351267Y235860D01*
G01X351246Y235841D01*
G01X351236Y235835D01*
G01X351222Y235820D01*
G01X351146Y235753D01*
G01X350760Y235367D01*
G01X350181Y235032D01*
G01X349534Y234859D01*
G01X330739D01*
G01Y242880D01*
G01X330724Y242998D01*
G01X330717Y243117D01*
G01X330704Y243155D01*
G01X330699Y243195D01*
G01X330655Y243306D01*
G01X330619Y243419D01*
G01X330597Y243454D01*
G01X330582Y243491D01*
G01X330512Y243587D01*
G01X330449Y243688D01*
G01X330419Y243716D01*
G01X330395Y243748D01*
G01X330304Y243824D01*
G01X330217Y243906D01*
G01X330182Y243925D01*
G01X330150Y243951D01*
G01X330043Y244002D01*
G01X329939Y244059D01*
G01X329899Y244070D01*
G01X329863Y244087D01*
G01X329746Y244109D01*
G01X329631Y244139D01*
G01X329570Y244143D01*
G01X329550Y244147D01*
G01X329530Y244145D01*
G01X329470Y244149D01*
G01X328199D01*
G01Y244151D01*
G01X329470D01*
G01X329588Y244166D01*
G01X329707Y244173D01*
G01X329745Y244186D01*
G01X329785Y244191D01*
G01X329896Y244235D01*
G01X330009Y244271D01*
G01X330044Y244293D01*
G01X330081Y244308D01*
G01X330177Y244378D01*
G01X330278Y244441D01*
G01X330306Y244471D01*
G01X330338Y244495D01*
G01X330414Y244586D01*
G01X330496Y244673D01*
G01X330515Y244708D01*
G01X330541Y244740D01*
G01X330592Y244847D01*
G01X330649Y244951D01*
G01X330660Y244991D01*
G01X330677Y245027D01*
G01X330699Y245144D01*
G01X330729Y245259D01*
G01X330733Y245320D01*
G01X330737Y245340D01*
G01X330735Y245360D01*
G01X330739Y245420D01*
G01Y253441D01*
G01X349534D01*
G01X350181Y253268D01*
G01X350760Y252933D01*
G01X351146Y252547D01*
G01X351256Y252461D01*
G01X351363Y252373D01*
G01X351382Y252364D01*
G01X351398Y252352D01*
G01X351526Y252296D01*
G01X351651Y252237D01*
G01X351671Y252233D01*
G01X351690Y252225D01*
G01X351828Y252203D01*
G01X351964Y252177D01*
G01X351984Y252179D01*
G01X352004Y252175D01*
G01X352143Y252189D01*
G01X352281Y252197D01*
G01X352300Y252203D01*
G01X352320Y252205D01*
G01X352451Y252252D01*
G01X352583Y252295D01*
G01X352601Y252306D01*
G01X352620Y252313D01*
G01X352734Y252391D01*
G01X352852Y252465D01*
G01X352866Y252480D01*
G01X352883Y252491D01*
G01X352975Y252595D01*
G01X353070Y252697D01*
G01X353080Y252715D01*
G01X353093Y252730D01*
G01X353156Y252854D01*
G01X353224Y252975D01*
G01X353229Y252995D01*
G01X353238Y253013D01*
G01X353268Y253149D01*
G01X353303Y253283D01*
G01X353305Y253311D01*
G01X353308Y253323D01*
G01X353307Y253344D01*
G01X353313Y253444D01*
G01Y326644D01*
G01X353298Y326762D01*
G01X353291Y326881D01*
G01X353278Y326919D01*
G01X353273Y326960D01*
G01X353230Y327070D01*
G01X353193Y327183D01*
G01X353171Y327218D01*
G01X353156Y327255D01*
G01X353087Y327351D01*
G01X353023Y327452D01*
G01X352993Y327480D01*
G01X352970Y327513D01*
G01X352878Y327589D01*
G01X352791Y327670D01*
G01X352756Y327690D01*
G01X352725Y327715D01*
G01X352617Y327766D01*
G01X352513Y327824D01*
G01X352473Y327834D01*
G01X352437Y327851D01*
G01X352320Y327873D01*
G01X352205Y327903D01*
G01X352145Y327907D01*
G01X352125Y327911D01*
G01X352104Y327909D01*
G01X352044Y327913D01*
G01X306866D01*
G01Y253441D01*
G01X325661D01*
G01Y246689D01*
G01X304659D01*
G01Y241611D01*
G01X325661D01*
G01Y234859D01*
G01X306866D01*
G01Y196941D01*
G01X325661D01*
G01Y190189D01*
G01X304659D01*
G01Y185111D01*
G01X325661D01*
G01Y178359D01*
G01X306866D01*
G01X306219Y178532D01*
G01X305640Y178867D01*
G01X305167Y179340D01*
G01X304832Y179919D01*
G01X304659Y180566D01*
G01Y185111D01*
G01Y190189D01*
G01Y194734D01*
G01X304832Y195381D01*
G01X305167Y195960D01*
G01X305640Y196433D01*
G01X306219Y196768D01*
G01X306866Y196941D01*
G01Y234859D01*
G01X306219Y235032D01*
G01X305640Y235367D01*
G01X305167Y235840D01*
G01X304832Y236419D01*
G01X304659Y237066D01*
G01Y241611D01*
G01Y246689D01*
G01Y251234D01*
G01X304832Y251881D01*
G01X305167Y252460D01*
G01X305640Y252933D01*
G01X306219Y253268D01*
G01X306866Y253441D01*
G01Y327913D01*
G01X289559D01*
G01Y316485D01*
G01X289816Y316445D01*
G01X291603Y315864D01*
G01X293277Y315011D01*
G01X294798Y313906D01*
G01X296126Y312578D01*
G01X297231Y311057D01*
G01X298084Y309383D01*
G01X298665Y307596D01*
G01X298705Y307339D01*
G01X289559D01*
G01Y302261D01*
G01X298705D01*
G01X298665Y302004D01*
G01X298084Y300217D01*
G01X297231Y298543D01*
G01X296126Y297022D01*
G01X294798Y295694D01*
G01X293277Y294589D01*
G01X291603Y293736D01*
G01X289816Y293155D01*
G01X289559Y293115D01*
G01Y302261D01*
G01Y307339D01*
G01Y316485D01*
G01Y327913D01*
G01X287019D01*
G01Y304801D01*
G01X287021D01*
G01Y304799D01*
G01X287019D01*
G01Y304801D01*
G01Y327913D01*
G01X284481D01*
G01Y316485D01*
G01Y307339D01*
G01X275335D01*
G01Y302261D01*
G01X284481D01*
G01Y293115D01*
G01X284224Y293155D01*
G01X282437Y293736D01*
G01X280763Y294589D01*
G01X279242Y295694D01*
G01X277914Y297022D01*
G01X276809Y298543D01*
G01X275956Y300217D01*
G01X275375Y302004D01*
G01X275335Y302261D01*
G01Y307339D01*
G01X275375Y307596D01*
G01X275956Y309383D01*
G01X276809Y311057D01*
G01X277914Y312578D01*
G01X279242Y313906D01*
G01X280763Y315011D01*
G01X282437Y315864D01*
G01X284224Y316445D01*
G01X284481Y316485D01*
G01Y327913D01*
G01X251335D01*
G01Y318199D01*
G01X256665D01*
G01X261590Y316159D01*
G01X265359Y312390D01*
G01X267399Y307465D01*
G01Y302135D01*
G01X265359Y297210D01*
G01X261590Y293441D01*
G01X256665Y291401D01*
G01X251335D01*
G01X246410Y293441D01*
G01X242641Y297210D01*
G01X240601Y302135D01*
G01Y307465D01*
G01X242641Y312390D01*
G01X246410Y316159D01*
G01X251335Y318199D01*
G01Y327913D01*
G01X77767D01*
G01Y200755D01*
G01X81745D01*
G01X85421Y199233D01*
G01X88235Y196419D01*
G01X89757Y192743D01*
G01Y188765D01*
G01X88235Y185089D01*
G01X85421Y182275D01*
G01X81745Y180753D01*
G01X77767D01*
G01X74091Y182275D01*
G01X71277Y185089D01*
G01X69755Y188765D01*
G01Y192743D01*
G01X71277Y196419D01*
G01X74091Y199233D01*
G01X77767Y200755D01*
G01Y327913D01*
G01X42639D01*
G01Y253441D01*
G01X61434D01*
G01X62081Y253268D01*
G01X62660Y252933D01*
G01X63133Y252460D01*
G01X63468Y251881D01*
G01X63641Y251234D01*
G01Y246689D01*
G01X42639D01*
G01Y241611D01*
G01X63641D01*
G01Y237066D01*
G01X63468Y236419D01*
G01X63133Y235840D01*
G01X62660Y235367D01*
G01X62081Y235032D01*
G01X61434Y234859D01*
G01X42639D01*
G01Y196941D01*
G01X61434D01*
G01X62081Y196768D01*
G01X62660Y196433D01*
G01X63133Y195960D01*
G01X63468Y195381D01*
G01X63641Y194734D01*
G01Y190189D01*
G01X42639D01*
G01Y185111D01*
G01X63641D01*
G01Y180566D01*
G01X63468Y179919D01*
G01X63133Y179340D01*
G01X62660Y178867D01*
G01X62081Y178532D01*
G01X61434Y178359D01*
G01X42639D01*
G01Y185111D01*
G01Y190189D01*
G01Y196941D01*
G01Y234859D01*
G01Y241611D01*
G01Y246689D01*
G01Y253441D01*
G01Y327913D01*
G01X18796D01*
G01X18678Y327898D01*
G01X18559Y327891D01*
G01X18521Y327878D01*
G01X18480Y327873D01*
G01X18370Y327830D01*
G01X18257Y327793D01*
G01X18222Y327771D01*
G01X18185Y327756D01*
G01X18089Y327687D01*
G01X17988Y327623D01*
G01X17960Y327593D01*
G01X17927Y327570D01*
G01X17851Y327478D01*
G01X17770Y327391D01*
G01X17750Y327356D01*
G01X17725Y327325D01*
G01X17674Y327217D01*
G01X17616Y327113D01*
G01X17606Y327073D01*
G01X17589Y327037D01*
G01X17567Y326920D01*
G01X17537Y326805D01*
G01X17533Y326745D01*
G01X17529Y326725D01*
G01X17531Y326704D01*
G01X17527Y326644D01*
G01Y254710D01*
G01X17542Y254592D01*
G01X17549Y254473D01*
G01X17562Y254435D01*
G01X17567Y254394D01*
G01X17610Y254284D01*
G01X17647Y254171D01*
G01X17669Y254136D01*
G01X17684Y254099D01*
G01X17754Y254002D01*
G01X17817Y253902D01*
G01X17847Y253874D01*
G01X17870Y253841D01*
G01X17962Y253765D01*
G01X18049Y253684D01*
G01X18084Y253664D01*
G01X18115Y253639D01*
G01X18223Y253588D01*
G01X18327Y253530D01*
G01X18367Y253520D01*
G01X18403Y253503D01*
G01X18520Y253481D01*
G01X18635Y253451D01*
G01X18695Y253447D01*
G01X18715Y253443D01*
G01X18736Y253445D01*
G01X18796Y253441D01*
G01X37561D01*
G01Y245420D01*
G01X37576Y245302D01*
G01X37583Y245183D01*
G01X37596Y245145D01*
G01X37601Y245105D01*
G01X37644Y244994D01*
G01X37681Y244881D01*
G01X37703Y244846D01*
G01X37718Y244809D01*
G01X37788Y244713D01*
G01X37851Y244612D01*
G01X37881Y244584D01*
G01X37905Y244552D01*
G01X37996Y244476D01*
G01X38083Y244394D01*
G01X38118Y244375D01*
G01X38149Y244349D01*
G01X38257Y244298D01*
G01X38361Y244241D01*
G01X38401Y244230D01*
G01X38437Y244213D01*
G01X38554Y244191D01*
G01X38669Y244161D01*
G01X38730Y244157D01*
G01X38750Y244153D01*
G01X38770Y244155D01*
G01X38830Y244151D01*
G01X40101D01*
G01Y244149D01*
G01X38830D01*
G01X38712Y244134D01*
G01X38593Y244127D01*
G01X38555Y244114D01*
G01X38515Y244109D01*
G01X38404Y244065D01*
G01X38291Y244029D01*
G01X38256Y244007D01*
G01X38219Y243992D01*
G01X38123Y243922D01*
G01X38022Y243859D01*
G01X37994Y243829D01*
G01X37961Y243805D01*
G01X37886Y243714D01*
G01X37804Y243627D01*
G01X37784Y243592D01*
G01X37759Y243560D01*
G01X37708Y243453D01*
G01X37650Y243349D01*
G01X37640Y243309D01*
G01X37623Y243273D01*
G01X37601Y243156D01*
G01X37571Y243041D01*
G01X37567Y242980D01*
G01X37563Y242960D01*
G01X37565Y242940D01*
G01X37561Y242880D01*
G01Y234859D01*
G01X18796D01*
G01X18678Y234844D01*
G01X18559Y234837D01*
G01X18521Y234824D01*
G01X18480Y234819D01*
G01X18370Y234776D01*
G01X18257Y234739D01*
G01X18222Y234717D01*
G01X18185Y234702D01*
G01X18089Y234633D01*
G01X17988Y234569D01*
G01X17960Y234539D01*
G01X17927Y234516D01*
G01X17851Y234424D01*
G01X17770Y234337D01*
G01X17750Y234302D01*
G01X17725Y234271D01*
G01X17674Y234163D01*
G01X17616Y234059D01*
G01X17606Y234019D01*
G01X17589Y233983D01*
G01X17567Y233866D01*
G01X17537Y233751D01*
G01X17533Y233691D01*
G01X17529Y233671D01*
G37*
D14*
X328200Y187650D03*
Y244150D03*
X40100D03*
Y187650D03*
D15*
X254000Y304800D03*
X287020D03*
D16*
X75438Y237490D03*
X102870Y190500D03*
X127000Y193040D03*
X169418Y233680D03*
X195834D03*
X194310Y197104D03*
X216408Y197358D03*
X285750Y271780D03*
X135890Y237490D03*
X285750Y195580D03*
X93472Y257556D03*
X260350Y238760D03*
X146050Y262890D03*
X283210Y237490D03*
X240030Y196850D03*
X107950Y240030D03*
X265430Y194310D03*
X184150Y262890D03*
X240030Y240030D03*
X79756Y190754D03*
G36*
G01X17529Y233671D02*
G01X17531Y233650D01*
G01X17527Y233590D01*
G01Y198210D01*
G01X17542Y198092D01*
G01X17549Y197973D01*
G01X17562Y197935D01*
G01X17567Y197894D01*
G01X17610Y197784D01*
G01X17647Y197671D01*
G01X17669Y197636D01*
G01X17684Y197599D01*
G01X17754Y197502D01*
G01X17817Y197402D01*
G01X17847Y197374D01*
G01X17870Y197341D01*
G01X17962Y197265D01*
G01X18049Y197184D01*
G01X18084Y197164D01*
G01X18115Y197139D01*
G01X18223Y197088D01*
G01X18327Y197030D01*
G01X18367Y197020D01*
G01X18403Y197003D01*
G01X18520Y196981D01*
G01X18635Y196951D01*
G01X18695Y196947D01*
G01X18715Y196943D01*
G01X18736Y196945D01*
G01X18796Y196941D01*
G01X37561D01*
G01Y188920D01*
G01X37576Y188802D01*
G01X37583Y188683D01*
G01X37596Y188645D01*
G01X37601Y188605D01*
G01X37645Y188494D01*
G01X37681Y188381D01*
G01X37703Y188346D01*
G01X37718Y188309D01*
G01X37788Y188213D01*
G01X37851Y188112D01*
G01X37881Y188084D01*
G01X37905Y188052D01*
G01X37996Y187976D01*
G01X38083Y187894D01*
G01X38118Y187875D01*
G01X38149Y187849D01*
G01X38257Y187798D01*
G01X38361Y187741D01*
G01X38401Y187730D01*
G01X38437Y187713D01*
G01X38554Y187691D01*
G01X38669Y187661D01*
G01X38730Y187657D01*
G01X38750Y187653D01*
G01X38770Y187655D01*
G01X38830Y187651D01*
G01X40101D01*
G01Y187649D01*
G01X38830D01*
G01X38712Y187634D01*
G01X38593Y187627D01*
G01X38555Y187614D01*
G01X38515Y187609D01*
G01X38404Y187565D01*
G01X38291Y187529D01*
G01X38256Y187507D01*
G01X38219Y187492D01*
G01X38123Y187422D01*
G01X38022Y187359D01*
G01X37994Y187329D01*
G01X37961Y187305D01*
G01X37886Y187214D01*
G01X37804Y187127D01*
G01X37784Y187092D01*
G01X37759Y187060D01*
G01X37708Y186953D01*
G01X37650Y186849D01*
G01X37640Y186809D01*
G01X37623Y186773D01*
G01X37601Y186656D01*
G01X37571Y186541D01*
G01X37567Y186480D01*
G01X37563Y186460D01*
G01X37565Y186440D01*
G01X37561Y186380D01*
G01Y178359D01*
G01X18796D01*
G01X18678Y178344D01*
G01X18559Y178337D01*
G01X18521Y178324D01*
G01X18480Y178319D01*
G01X18370Y178276D01*
G01X18257Y178239D01*
G01X18222Y178217D01*
G01X18185Y178202D01*
G01X18089Y178133D01*
G01X17988Y178069D01*
G01X17960Y178039D01*
G01X17927Y178016D01*
G01X17851Y177924D01*
G01X17770Y177837D01*
G01X17750Y177802D01*
G01X17725Y177771D01*
G01X17674Y177663D01*
G01X17616Y177559D01*
G01X17606Y177519D01*
G01X17589Y177483D01*
G01X17567Y177366D01*
G01X17537Y177251D01*
G01X17533Y177191D01*
G01X17529Y177171D01*
G01X17531Y177150D01*
G01X17527Y177090D01*
G01Y158496D01*
G01X17542Y158378D01*
G01X17549Y158259D01*
G01X17562Y158221D01*
G01X17567Y158180D01*
G01X17610Y158070D01*
G01X17647Y157957D01*
G01X17669Y157922D01*
G01X17684Y157885D01*
G01X17753Y157789D01*
G01X17817Y157688D01*
G01X17847Y157660D01*
G01X17870Y157627D01*
G01X17962Y157551D01*
G01X18049Y157470D01*
G01X18084Y157450D01*
G01X18115Y157425D01*
G01X18223Y157374D01*
G01X18327Y157316D01*
G01X18367Y157306D01*
G01X18403Y157289D01*
G01X18520Y157267D01*
G01X18635Y157237D01*
G01X18695Y157233D01*
G01X18715Y157229D01*
G01X18736Y157231D01*
G01X18796Y157227D01*
G01X352044D01*
G01X352162Y157242D01*
G01X352281Y157249D01*
G01X352319Y157262D01*
G01X352360Y157267D01*
G01X352470Y157310D01*
G01X352583Y157347D01*
G01X352618Y157369D01*
G01X352655Y157384D01*
G01X352751Y157453D01*
G01X352852Y157517D01*
G01X352880Y157547D01*
G01X352913Y157570D01*
G01X352989Y157662D01*
G01X353070Y157749D01*
G01X353090Y157784D01*
G01X353115Y157815D01*
G01X353166Y157923D01*
G01X353224Y158027D01*
G01X353234Y158067D01*
G01X353251Y158103D01*
G01X353273Y158220D01*
G01X353303Y158335D01*
G01X353307Y158395D01*
G01X353311Y158415D01*
G01X353309Y158436D01*
G01X353313Y158496D01*
G01Y178356D01*
G01X353296Y178494D01*
G01X353283Y178632D01*
G01X353276Y178651D01*
G01X353273Y178671D01*
G01X353222Y178801D01*
G01X353175Y178932D01*
G01X353164Y178948D01*
G01X353156Y178967D01*
G01X353075Y179080D01*
G01X352997Y179195D01*
G01X352981Y179208D01*
G01X352970Y179224D01*
G01X352862Y179314D01*
G01X352758Y179405D01*
G01X352740Y179414D01*
G01X352725Y179427D01*
G01X352599Y179487D01*
G01X352475Y179550D01*
G01X352455Y179554D01*
G01X352437Y179563D01*
G01X352301Y179589D01*
G01X352165Y179619D01*
G01X352144D01*
G01X352125Y179623D01*
G01X351986Y179614D01*
G01X351847Y179610D01*
G01X351827Y179604D01*
G01X351807Y179603D01*
G01X351675Y179560D01*
G01X351541Y179521D01*
G01X351524Y179511D01*
G01X351505Y179505D01*
G01X351387Y179431D01*
G01X351267Y179360D01*
G01X351246Y179341D01*
G01X351236Y179335D01*
G01X351222Y179320D01*
G01X351146Y179253D01*
G01X350760Y178867D01*
G01X350181Y178532D01*
G01X349534Y178359D01*
G01X330739D01*
G01Y186380D01*
G01X330724Y186498D01*
G01X330717Y186617D01*
G01X330704Y186655D01*
G01X330699Y186695D01*
G01X330655Y186806D01*
G01X330619Y186919D01*
G01X330597Y186954D01*
G01X330582Y186991D01*
G01X330512Y187087D01*
G01X330449Y187188D01*
G01X330419Y187216D01*
G01X330395Y187248D01*
G01X330304Y187324D01*
G01X330217Y187406D01*
G01X330182Y187425D01*
G01X330150Y187451D01*
G01X330043Y187502D01*
G01X329939Y187559D01*
G01X329899Y187570D01*
G01X329863Y187587D01*
G01X329746Y187609D01*
G01X329631Y187639D01*
G01X329570Y187643D01*
G01X329550Y187647D01*
G01X329530Y187645D01*
G01X329470Y187649D01*
G01X328199D01*
G01Y187651D01*
G01X329470D01*
G01X329588Y187666D01*
G01X329707Y187673D01*
G01X329745Y187686D01*
G01X329785Y187691D01*
G01X329896Y187735D01*
G01X330009Y187771D01*
G01X330044Y187793D01*
G01X330081Y187808D01*
G01X330177Y187878D01*
G01X330278Y187941D01*
G01X330306Y187971D01*
G01X330338Y187995D01*
G01X330414Y188086D01*
G01X330496Y188173D01*
G01X330515Y188208D01*
G01X330541Y188240D01*
G01X330592Y188347D01*
G01X330649Y188451D01*
G01X330660Y188491D01*
G01X330677Y188527D01*
G01X330699Y188644D01*
G01X330729Y188759D01*
G01X330733Y188820D01*
G01X330737Y188840D01*
G01X330735Y188860D01*
G01X330736Y188876D01*
G01X330737Y188877D01*
G01Y188879D01*
G01X330739Y188920D01*
G01Y196941D01*
G01X349534D01*
G01X350181Y196768D01*
G01X350760Y196433D01*
G01X351146Y196047D01*
G01X351256Y195961D01*
G01X351363Y195873D01*
G01X351382Y195864D01*
G01X351398Y195852D01*
G01X351526Y195796D01*
G01X351651Y195737D01*
G01X351671Y195733D01*
G01X351690Y195725D01*
G01X351828Y195703D01*
G01X351964Y195677D01*
G01X351984Y195679D01*
G01X352004Y195675D01*
G01X352143Y195689D01*
G01X352281Y195697D01*
G01X352300Y195703D01*
G01X352320Y195705D01*
G01X352451Y195752D01*
G01X352583Y195795D01*
G01X352601Y195806D01*
G01X352620Y195813D01*
G01X352734Y195891D01*
G01X352852Y195965D01*
G01X352866Y195980D01*
G01X352883Y195991D01*
G01X352975Y196095D01*
G01X353070Y196197D01*
G01X353080Y196215D01*
G01X353093Y196230D01*
G01X353156Y196354D01*
G01X353224Y196475D01*
G01X353229Y196495D01*
G01X353238Y196513D01*
G01X353268Y196649D01*
G01X353303Y196783D01*
G01X353305Y196811D01*
G01X353308Y196823D01*
G01X353307Y196844D01*
G01X353313Y196944D01*
G01Y234856D01*
G01X353296Y234994D01*
G01X353283Y235132D01*
G01X353276Y235151D01*
G01X353273Y235171D01*
G01X353222Y235301D01*
G01X353175Y235432D01*
G01X353164Y235448D01*
G01X353156Y235467D01*
G01X353075Y235580D01*
G01X352997Y235695D01*
G01X352981Y235708D01*
G01X352970Y235724D01*
G01X352862Y235814D01*
G01X352758Y235905D01*
G01X352740Y235914D01*
G01X352725Y235927D01*
G01X352599Y235987D01*
G01X352475Y236050D01*
G01X352455Y236054D01*
G01X352437Y236063D01*
G01X352301Y236089D01*
G01X352165Y236119D01*
G01X352144D01*
G01X352125Y236123D01*
G01X351986Y236114D01*
G01X351847Y236110D01*
G01X351827Y236104D01*
G01X351807Y236103D01*
G01X351675Y236060D01*
G01X351541Y236021D01*
G01X351524Y236011D01*
G01X351505Y236005D01*
G01X351387Y235930D01*
G01X351267Y235860D01*
G01X351246Y235841D01*
G01X351236Y235835D01*
G01X351222Y235820D01*
G01X351146Y235753D01*
G01X350760Y235367D01*
G01X350181Y235032D01*
G01X349534Y234859D01*
G01X330739D01*
G01Y242880D01*
G01X330724Y242998D01*
G01X330717Y243117D01*
G01X330704Y243155D01*
G01X330699Y243195D01*
G01X330655Y243306D01*
G01X330619Y243419D01*
G01X330597Y243454D01*
G01X330582Y243491D01*
G01X330512Y243587D01*
G01X330449Y243688D01*
G01X330419Y243716D01*
G01X330395Y243748D01*
G01X330304Y243824D01*
G01X330217Y243906D01*
G01X330182Y243925D01*
G01X330150Y243951D01*
G01X330043Y244002D01*
G01X329939Y244059D01*
G01X329899Y244070D01*
G01X329863Y244087D01*
G01X329746Y244109D01*
G01X329631Y244139D01*
G01X329570Y244143D01*
G01X329550Y244147D01*
G01X329530Y244145D01*
G01X329470Y244149D01*
G01X328199D01*
G01Y244151D01*
G01X329470D01*
G01X329588Y244166D01*
G01X329707Y244173D01*
G01X329745Y244186D01*
G01X329785Y244191D01*
G01X329896Y244235D01*
G01X330009Y244271D01*
G01X330044Y244293D01*
G01X330081Y244308D01*
G01X330177Y244378D01*
G01X330278Y244441D01*
G01X330306Y244471D01*
G01X330338Y244495D01*
G01X330414Y244586D01*
G01X330496Y244673D01*
G01X330515Y244708D01*
G01X330541Y244740D01*
G01X330592Y244847D01*
G01X330649Y244951D01*
G01X330660Y244991D01*
G01X330677Y245027D01*
G01X330699Y245144D01*
G01X330729Y245259D01*
G01X330733Y245320D01*
G01X330737Y245340D01*
G01X330735Y245360D01*
G01X330739Y245420D01*
G01Y253441D01*
G01X349534D01*
G01X350181Y253268D01*
G01X350760Y252933D01*
G01X351146Y252547D01*
G01X351256Y252461D01*
G01X351363Y252373D01*
G01X351382Y252364D01*
G01X351398Y252352D01*
G01X351526Y252296D01*
G01X351651Y252237D01*
G01X351671Y252233D01*
G01X351690Y252225D01*
G01X351828Y252203D01*
G01X351964Y252177D01*
G01X351984Y252179D01*
G01X352004Y252175D01*
G01X352143Y252189D01*
G01X352281Y252197D01*
G01X352300Y252203D01*
G01X352320Y252205D01*
G01X352451Y252252D01*
G01X352583Y252295D01*
G01X352601Y252306D01*
G01X352620Y252313D01*
G01X352734Y252391D01*
G01X352852Y252465D01*
G01X352866Y252480D01*
G01X352883Y252491D01*
G01X352975Y252595D01*
G01X353070Y252697D01*
G01X353080Y252715D01*
G01X353093Y252730D01*
G01X353156Y252854D01*
G01X353224Y252975D01*
G01X353229Y252995D01*
G01X353238Y253013D01*
G01X353268Y253149D01*
G01X353303Y253283D01*
G01X353305Y253311D01*
G01X353308Y253323D01*
G01X353307Y253344D01*
G01X353313Y253444D01*
G01Y326644D01*
G01X353298Y326762D01*
G01X353291Y326881D01*
G01X353278Y326919D01*
G01X353273Y326960D01*
G01X353230Y327070D01*
G01X353193Y327183D01*
G01X353171Y327218D01*
G01X353156Y327255D01*
G01X353087Y327351D01*
G01X353023Y327452D01*
G01X352993Y327480D01*
G01X352970Y327513D01*
G01X352878Y327589D01*
G01X352791Y327670D01*
G01X352756Y327690D01*
G01X352725Y327715D01*
G01X352617Y327766D01*
G01X352513Y327824D01*
G01X352473Y327834D01*
G01X352437Y327851D01*
G01X352320Y327873D01*
G01X352205Y327903D01*
G01X352145Y327907D01*
G01X352125Y327911D01*
G01X352104Y327909D01*
G01X352044Y327913D01*
G01X306866D01*
G01Y253441D01*
G01X325661D01*
G01Y246689D01*
G01X304659D01*
G01Y241611D01*
G01X325661D01*
G01Y234859D01*
G01X306866D01*
G01Y196941D01*
G01X325661D01*
G01Y190189D01*
G01X304659D01*
G01Y185111D01*
G01X325661D01*
G01Y178359D01*
G01X306866D01*
G01X306219Y178532D01*
G01X305640Y178867D01*
G01X305167Y179340D01*
G01X304832Y179919D01*
G01X304659Y180566D01*
G01Y185111D01*
G01Y190189D01*
G01Y194734D01*
G01X304832Y195381D01*
G01X305167Y195960D01*
G01X305640Y196433D01*
G01X306219Y196768D01*
G01X306866Y196941D01*
G01Y234859D01*
G01X306219Y235032D01*
G01X305640Y235367D01*
G01X305167Y235840D01*
G01X304832Y236419D01*
G01X304659Y237066D01*
G01Y241611D01*
G01Y246689D01*
G01Y251234D01*
G01X304832Y251881D01*
G01X305167Y252460D01*
G01X305640Y252933D01*
G01X306219Y253268D01*
G01X306866Y253441D01*
G01Y327913D01*
G01X289559D01*
G01Y316485D01*
G01X289816Y316445D01*
G01X291603Y315864D01*
G01X293277Y315011D01*
G01X294798Y313906D01*
G01X296126Y312578D01*
G01X297231Y311057D01*
G01X298084Y309383D01*
G01X298665Y307596D01*
G01X298705Y307339D01*
G01X289559D01*
G01Y302261D01*
G01X298705D01*
G01X298665Y302004D01*
G01X298084Y300217D01*
G01X297231Y298543D01*
G01X296126Y297022D01*
G01X294798Y295694D01*
G01X293277Y294589D01*
G01X291603Y293736D01*
G01X289816Y293155D01*
G01X289559Y293115D01*
G01Y302261D01*
G01Y307339D01*
G01Y316485D01*
G01Y327913D01*
G01X287019D01*
G01Y304801D01*
G01X287021D01*
G01Y304799D01*
G01X287019D01*
G01Y304801D01*
G01Y327913D01*
G01X284481D01*
G01Y316485D01*
G01Y307339D01*
G01X275335D01*
G01Y302261D01*
G01X284481D01*
G01Y293115D01*
G01X284224Y293155D01*
G01X282437Y293736D01*
G01X280763Y294589D01*
G01X279242Y295694D01*
G01X277914Y297022D01*
G01X276809Y298543D01*
G01X275956Y300217D01*
G01X275375Y302004D01*
G01X275335Y302261D01*
G01Y307339D01*
G01X275375Y307596D01*
G01X275956Y309383D01*
G01X276809Y311057D01*
G01X277914Y312578D01*
G01X279242Y313906D01*
G01X280763Y315011D01*
G01X282437Y315864D01*
G01X284224Y316445D01*
G01X284481Y316485D01*
G01Y327913D01*
G01X251335D01*
G01Y318199D01*
G01X256665D01*
G01X261590Y316159D01*
G01X265359Y312390D01*
G01X267399Y307465D01*
G01Y302135D01*
G01X265359Y297210D01*
G01X261590Y293441D01*
G01X256665Y291401D01*
G01X251335D01*
G01X246410Y293441D01*
G01X242641Y297210D01*
G01X240601Y302135D01*
G01Y307465D01*
G01X242641Y312390D01*
G01X246410Y316159D01*
G01X251335Y318199D01*
G01Y327913D01*
G01X77767D01*
G01Y200755D01*
G01X81745D01*
G01X85421Y199233D01*
G01X88235Y196419D01*
G01X89757Y192743D01*
G01Y188765D01*
G01X88235Y185089D01*
G01X85421Y182275D01*
G01X81745Y180753D01*
G01X77767D01*
G01X74091Y182275D01*
G01X71277Y185089D01*
G01X69755Y188765D01*
G01Y192743D01*
G01X71277Y196419D01*
G01X74091Y199233D01*
G01X77767Y200755D01*
G01Y327913D01*
G01X42639D01*
G01Y253441D01*
G01X61434D01*
G01X62081Y253268D01*
G01X62660Y252933D01*
G01X63133Y252460D01*
G01X63468Y251881D01*
G01X63641Y251234D01*
G01Y246689D01*
G01X42639D01*
G01Y241611D01*
G01X63641D01*
G01Y237066D01*
G01X63468Y236419D01*
G01X63133Y235840D01*
G01X62660Y235367D01*
G01X62081Y235032D01*
G01X61434Y234859D01*
G01X42639D01*
G01Y196941D01*
G01X61434D01*
G01X62081Y196768D01*
G01X62660Y196433D01*
G01X63133Y195960D01*
G01X63468Y195381D01*
G01X63641Y194734D01*
G01Y190189D01*
G01X42639D01*
G01Y185111D01*
G01X63641D01*
G01Y180566D01*
G01X63468Y179919D01*
G01X63133Y179340D01*
G01X62660Y178867D01*
G01X62081Y178532D01*
G01X61434Y178359D01*
G01X42639D01*
G01Y185111D01*
G01Y190189D01*
G01Y196941D01*
G01Y234859D01*
G01Y241611D01*
G01Y246689D01*
G01Y253441D01*
G01Y327913D01*
G01X18796D01*
G01X18678Y327898D01*
G01X18559Y327891D01*
G01X18521Y327878D01*
G01X18480Y327873D01*
G01X18370Y327830D01*
G01X18257Y327793D01*
G01X18222Y327771D01*
G01X18185Y327756D01*
G01X18089Y327687D01*
G01X17988Y327623D01*
G01X17960Y327593D01*
G01X17927Y327570D01*
G01X17851Y327478D01*
G01X17770Y327391D01*
G01X17750Y327356D01*
G01X17725Y327325D01*
G01X17674Y327217D01*
G01X17616Y327113D01*
G01X17606Y327073D01*
G01X17589Y327037D01*
G01X17567Y326920D01*
G01X17537Y326805D01*
G01X17533Y326745D01*
G01X17529Y326725D01*
G01X17531Y326704D01*
G01X17527Y326644D01*
G01Y254710D01*
G01X17542Y254592D01*
G01X17549Y254473D01*
G01X17562Y254435D01*
G01X17567Y254394D01*
G01X17610Y254284D01*
G01X17647Y254171D01*
G01X17669Y254136D01*
G01X17684Y254099D01*
G01X17754Y254002D01*
G01X17817Y253902D01*
G01X17847Y253874D01*
G01X17870Y253841D01*
G01X17962Y253765D01*
G01X18049Y253684D01*
G01X18084Y253664D01*
G01X18115Y253639D01*
G01X18223Y253588D01*
G01X18327Y253530D01*
G01X18367Y253520D01*
G01X18403Y253503D01*
G01X18520Y253481D01*
G01X18635Y253451D01*
G01X18695Y253447D01*
G01X18715Y253443D01*
G01X18736Y253445D01*
G01X18796Y253441D01*
G01X37561D01*
G01Y245420D01*
G01X37576Y245302D01*
G01X37583Y245183D01*
G01X37596Y245145D01*
G01X37601Y245105D01*
G01X37644Y244994D01*
G01X37681Y244881D01*
G01X37703Y244846D01*
G01X37718Y244809D01*
G01X37788Y244713D01*
G01X37851Y244612D01*
G01X37881Y244584D01*
G01X37905Y244552D01*
G01X37996Y244476D01*
G01X38083Y244394D01*
G01X38118Y244375D01*
G01X38149Y244349D01*
G01X38257Y244298D01*
G01X38361Y244241D01*
G01X38401Y244230D01*
G01X38437Y244213D01*
G01X38554Y244191D01*
G01X38669Y244161D01*
G01X38730Y244157D01*
G01X38750Y244153D01*
G01X38770Y244155D01*
G01X38830Y244151D01*
G01X40101D01*
G01Y244149D01*
G01X38830D01*
G01X38712Y244134D01*
G01X38593Y244127D01*
G01X38555Y244114D01*
G01X38515Y244109D01*
G01X38404Y244065D01*
G01X38291Y244029D01*
G01X38256Y244007D01*
G01X38219Y243992D01*
G01X38123Y243922D01*
G01X38022Y243859D01*
G01X37994Y243829D01*
G01X37961Y243805D01*
G01X37886Y243714D01*
G01X37804Y243627D01*
G01X37784Y243592D01*
G01X37759Y243560D01*
G01X37708Y243453D01*
G01X37650Y243349D01*
G01X37640Y243309D01*
G01X37623Y243273D01*
G01X37601Y243156D01*
G01X37571Y243041D01*
G01X37567Y242980D01*
G01X37563Y242960D01*
G01X37565Y242940D01*
G01X37561Y242880D01*
G01Y234859D01*
G01X18796D01*
G01X18678Y234844D01*
G01X18559Y234837D01*
G01X18521Y234824D01*
G01X18480Y234819D01*
G01X18370Y234776D01*
G01X18257Y234739D01*
G01X18222Y234717D01*
G01X18185Y234702D01*
G01X18089Y234633D01*
G01X17988Y234569D01*
G01X17960Y234539D01*
G01X17927Y234516D01*
G01X17851Y234424D01*
G01X17770Y234337D01*
G01X17750Y234302D01*
G01X17725Y234271D01*
G01X17674Y234163D01*
G01X17616Y234059D01*
G01X17606Y234019D01*
G01X17589Y233983D01*
G01X17567Y233866D01*
G01X17537Y233751D01*
G01X17533Y233691D01*
G01X17529Y233671D01*
G37*
D14*
X328200Y187650D03*
Y244150D03*
X40100D03*
Y187650D03*
D15*
X254000Y304800D03*
X287020D03*
D16*
X75438Y237490D03*
X102870Y190500D03*
X127000Y193040D03*
X169418Y233680D03*
X195834D03*
X194310Y197104D03*
X216408Y197358D03*
X285750Y271780D03*
X135890Y237490D03*
X285750Y195580D03*
X93472Y257556D03*
X260350Y238760D03*
X146050Y262890D03*
X283210Y237490D03*
X240030Y196850D03*
X107950Y240030D03*
X265430Y194310D03*
X184150Y262890D03*
X240030Y240030D03*
X79756Y190754D03*
G36*
G01X17529Y233671D02*
G01X17531Y233650D01*
G01X17527Y233590D01*
G01Y198210D01*
G01X17542Y198092D01*
G01X17549Y197973D01*
G01X17562Y197935D01*
G01X17567Y197894D01*
G01X17610Y197784D01*
G01X17647Y197671D01*
G01X17669Y197636D01*
G01X17684Y197599D01*
G01X17754Y197502D01*
G01X17817Y197402D01*
G01X17847Y197374D01*
G01X17870Y197341D01*
G01X17962Y197265D01*
G01X18049Y197184D01*
G01X18084Y197164D01*
G01X18115Y197139D01*
G01X18223Y197088D01*
G01X18327Y197030D01*
G01X18367Y197020D01*
G01X18403Y197003D01*
G01X18520Y196981D01*
G01X18635Y196951D01*
G01X18695Y196947D01*
G01X18715Y196943D01*
G01X18736Y196945D01*
G01X18796Y196941D01*
G01X37561D01*
G01Y188920D01*
G01X37576Y188802D01*
G01X37583Y188683D01*
G01X37596Y188645D01*
G01X37601Y188605D01*
G01X37645Y188494D01*
G01X37681Y188381D01*
G01X37703Y188346D01*
G01X37718Y188309D01*
G01X37788Y188213D01*
G01X37851Y188112D01*
G01X37881Y188084D01*
G01X37905Y188052D01*
G01X37996Y187976D01*
G01X38083Y187894D01*
G01X38118Y187875D01*
G01X38149Y187849D01*
G01X38257Y187798D01*
G01X38361Y187741D01*
G01X38401Y187730D01*
G01X38437Y187713D01*
G01X38554Y187691D01*
G01X38669Y187661D01*
G01X38730Y187657D01*
G01X38750Y187653D01*
G01X38770Y187655D01*
G01X38830Y187651D01*
G01X40101D01*
G01Y187649D01*
G01X38830D01*
G01X38712Y187634D01*
G01X38593Y187627D01*
G01X38555Y187614D01*
G01X38515Y187609D01*
G01X38404Y187565D01*
G01X38291Y187529D01*
G01X38256Y187507D01*
G01X38219Y187492D01*
G01X38123Y187422D01*
G01X38022Y187359D01*
G01X37994Y187329D01*
G01X37961Y187305D01*
G01X37886Y187214D01*
G01X37804Y187127D01*
G01X37784Y187092D01*
G01X37759Y187060D01*
G01X37708Y186953D01*
G01X37650Y186849D01*
G01X37640Y186809D01*
G01X37623Y186773D01*
G01X37601Y186656D01*
G01X37571Y186541D01*
G01X37567Y186480D01*
G01X37563Y186460D01*
G01X37565Y186440D01*
G01X37561Y186380D01*
G01Y178359D01*
G01X18796D01*
G01X18678Y178344D01*
G01X18559Y178337D01*
G01X18521Y178324D01*
G01X18480Y178319D01*
G01X18370Y178276D01*
G01X18257Y178239D01*
G01X18222Y178217D01*
G01X18185Y178202D01*
G01X18089Y178133D01*
G01X17988Y178069D01*
G01X17960Y178039D01*
G01X17927Y178016D01*
G01X17851Y177924D01*
G01X17770Y177837D01*
G01X17750Y177802D01*
G01X17725Y177771D01*
G01X17674Y177663D01*
G01X17616Y177559D01*
G01X17606Y177519D01*
G01X17589Y177483D01*
G01X17567Y177366D01*
G01X17537Y177251D01*
G01X17533Y177191D01*
G01X17529Y177171D01*
G01X17531Y177150D01*
G01X17527Y177090D01*
G01Y158496D01*
G01X17542Y158378D01*
G01X17549Y158259D01*
G01X17562Y158221D01*
G01X17567Y158180D01*
G01X17610Y158070D01*
G01X17647Y157957D01*
G01X17669Y157922D01*
G01X17684Y157885D01*
G01X17753Y157789D01*
G01X17817Y157688D01*
G01X17847Y157660D01*
G01X17870Y157627D01*
G01X17962Y157551D01*
G01X18049Y157470D01*
G01X18084Y157450D01*
G01X18115Y157425D01*
G01X18223Y157374D01*
G01X18327Y157316D01*
G01X18367Y157306D01*
G01X18403Y157289D01*
G01X18520Y157267D01*
G01X18635Y157237D01*
G01X18695Y157233D01*
G01X18715Y157229D01*
G01X18736Y157231D01*
G01X18796Y157227D01*
G01X352044D01*
G01X352162Y157242D01*
G01X352281Y157249D01*
G01X352319Y157262D01*
G01X352360Y157267D01*
G01X352470Y157310D01*
G01X352583Y157347D01*
G01X352618Y157369D01*
G01X352655Y157384D01*
G01X352751Y157453D01*
G01X352852Y157517D01*
G01X352880Y157547D01*
G01X352913Y157570D01*
G01X352989Y157662D01*
G01X353070Y157749D01*
G01X353090Y157784D01*
G01X353115Y157815D01*
G01X353166Y157923D01*
G01X353224Y158027D01*
G01X353234Y158067D01*
G01X353251Y158103D01*
G01X353273Y158220D01*
G01X353303Y158335D01*
G01X353307Y158395D01*
G01X353311Y158415D01*
G01X353309Y158436D01*
G01X353313Y158496D01*
G01Y178356D01*
G01X353296Y178494D01*
G01X353283Y178632D01*
G01X353276Y178651D01*
G01X353273Y178671D01*
G01X353222Y178801D01*
G01X353175Y178932D01*
G01X353164Y178948D01*
G01X353156Y178967D01*
G01X353075Y179080D01*
G01X352997Y179195D01*
G01X352981Y179208D01*
G01X352970Y179224D01*
G01X352862Y179314D01*
G01X352758Y179405D01*
G01X352740Y179414D01*
G01X352725Y179427D01*
G01X352599Y179487D01*
G01X352475Y179550D01*
G01X352455Y179554D01*
G01X352437Y179563D01*
G01X352301Y179589D01*
G01X352165Y179619D01*
G01X352144D01*
G01X352125Y179623D01*
G01X351986Y179614D01*
G01X351847Y179610D01*
G01X351827Y179604D01*
G01X351807Y179603D01*
G01X351675Y179560D01*
G01X351541Y179521D01*
G01X351524Y179511D01*
G01X351505Y179505D01*
G01X351387Y179431D01*
G01X351267Y179360D01*
G01X351246Y179341D01*
G01X351236Y179335D01*
G01X351222Y179320D01*
G01X351146Y179253D01*
G01X350760Y178867D01*
G01X350181Y178532D01*
G01X349534Y178359D01*
G01X330739D01*
G01Y186380D01*
G01X330724Y186498D01*
G01X330717Y186617D01*
G01X330704Y186655D01*
G01X330699Y186695D01*
G01X330655Y186806D01*
G01X330619Y186919D01*
G01X330597Y186954D01*
G01X330582Y186991D01*
G01X330512Y187087D01*
G01X330449Y187188D01*
G01X330419Y187216D01*
G01X330395Y187248D01*
G01X330304Y187324D01*
G01X330217Y187406D01*
G01X330182Y187425D01*
G01X330150Y187451D01*
G01X330043Y187502D01*
G01X329939Y187559D01*
G01X329899Y187570D01*
G01X329863Y187587D01*
G01X329746Y187609D01*
G01X329631Y187639D01*
G01X329570Y187643D01*
G01X329550Y187647D01*
G01X329530Y187645D01*
G01X329470Y187649D01*
G01X328199D01*
G01Y187651D01*
G01X329470D01*
G01X329588Y187666D01*
G01X329707Y187673D01*
G01X329745Y187686D01*
G01X329785Y187691D01*
G01X329896Y187735D01*
G01X330009Y187771D01*
G01X330044Y187793D01*
G01X330081Y187808D01*
G01X330177Y187878D01*
G01X330278Y187941D01*
G01X330306Y187971D01*
G01X330338Y187995D01*
G01X330414Y188086D01*
G01X330496Y188173D01*
G01X330515Y188208D01*
G01X330541Y188240D01*
G01X330592Y188347D01*
G01X330649Y188451D01*
G01X330660Y188491D01*
G01X330677Y188527D01*
G01X330699Y188644D01*
G01X330729Y188759D01*
G01X330733Y188820D01*
G01X330737Y188840D01*
G01X330735Y188860D01*
G01X330736Y188876D01*
G01X330737Y188877D01*
G01Y188879D01*
G01X330739Y188920D01*
G01Y196941D01*
G01X349534D01*
G01X350181Y196768D01*
G01X350760Y196433D01*
G01X351146Y196047D01*
G01X351256Y195961D01*
G01X351363Y195873D01*
G01X351382Y195864D01*
G01X351398Y195852D01*
G01X351526Y195796D01*
G01X351651Y195737D01*
G01X351671Y195733D01*
G01X351690Y195725D01*
G01X351828Y195703D01*
G01X351964Y195677D01*
G01X351984Y195679D01*
G01X352004Y195675D01*
G01X352143Y195689D01*
G01X352281Y195697D01*
G01X352300Y195703D01*
G01X352320Y195705D01*
G01X352451Y195752D01*
G01X352583Y195795D01*
G01X352601Y195806D01*
G01X352620Y195813D01*
G01X352734Y195891D01*
G01X352852Y195965D01*
G01X352866Y195980D01*
G01X352883Y195991D01*
G01X352975Y196095D01*
G01X353070Y196197D01*
G01X353080Y196215D01*
G01X353093Y196230D01*
G01X353156Y196354D01*
G01X353224Y196475D01*
G01X353229Y196495D01*
G01X353238Y196513D01*
G01X353268Y196649D01*
G01X353303Y196783D01*
G01X353305Y196811D01*
G01X353308Y196823D01*
G01X353307Y196844D01*
G01X353313Y196944D01*
G01Y234856D01*
G01X353296Y234994D01*
G01X353283Y235132D01*
G01X353276Y235151D01*
G01X353273Y235171D01*
G01X353222Y235301D01*
G01X353175Y235432D01*
G01X353164Y235448D01*
G01X353156Y235467D01*
G01X353075Y235580D01*
G01X352997Y235695D01*
G01X352981Y235708D01*
G01X352970Y235724D01*
G01X352862Y235814D01*
G01X352758Y235905D01*
G01X352740Y235914D01*
G01X352725Y235927D01*
G01X352599Y235987D01*
G01X352475Y236050D01*
G01X352455Y236054D01*
G01X352437Y236063D01*
G01X352301Y236089D01*
G01X352165Y236119D01*
G01X352144D01*
G01X352125Y236123D01*
G01X351986Y236114D01*
G01X351847Y236110D01*
G01X351827Y236104D01*
G01X351807Y236103D01*
G01X351675Y236060D01*
G01X351541Y236021D01*
G01X351524Y236011D01*
G01X351505Y236005D01*
G01X351387Y235930D01*
G01X351267Y235860D01*
G01X351246Y235841D01*
G01X351236Y235835D01*
G01X351222Y235820D01*
G01X351146Y235753D01*
G01X350760Y235367D01*
G01X350181Y235032D01*
G01X349534Y234859D01*
G01X330739D01*
G01Y242880D01*
G01X330724Y242998D01*
G01X330717Y243117D01*
G01X330704Y243155D01*
G01X330699Y243195D01*
G01X330655Y243306D01*
G01X330619Y243419D01*
G01X330597Y243454D01*
G01X330582Y243491D01*
G01X330512Y243587D01*
G01X330449Y243688D01*
G01X330419Y243716D01*
G01X330395Y243748D01*
G01X330304Y243824D01*
G01X330217Y243906D01*
G01X330182Y243925D01*
G01X330150Y243951D01*
G01X330043Y244002D01*
G01X329939Y244059D01*
G01X329899Y244070D01*
G01X329863Y244087D01*
G01X329746Y244109D01*
G01X329631Y244139D01*
G01X329570Y244143D01*
G01X329550Y244147D01*
G01X329530Y244145D01*
G01X329470Y244149D01*
G01X328199D01*
G01Y244151D01*
G01X329470D01*
G01X329588Y244166D01*
G01X329707Y244173D01*
G01X329745Y244186D01*
G01X329785Y244191D01*
G01X329896Y244235D01*
G01X330009Y244271D01*
G01X330044Y244293D01*
G01X330081Y244308D01*
G01X330177Y244378D01*
G01X330278Y244441D01*
G01X330306Y244471D01*
G01X330338Y244495D01*
G01X330414Y244586D01*
G01X330496Y244673D01*
G01X330515Y244708D01*
G01X330541Y244740D01*
G01X330592Y244847D01*
G01X330649Y244951D01*
G01X330660Y244991D01*
G01X330677Y245027D01*
G01X330699Y245144D01*
G01X330729Y245259D01*
G01X330733Y245320D01*
G01X330737Y245340D01*
G01X330735Y245360D01*
G01X330739Y245420D01*
G01Y253441D01*
G01X349534D01*
G01X350181Y253268D01*
G01X350760Y252933D01*
G01X351146Y252547D01*
G01X351256Y252461D01*
G01X351363Y252373D01*
G01X351382Y252364D01*
G01X351398Y252352D01*
G01X351526Y252296D01*
G01X351651Y252237D01*
G01X351671Y252233D01*
G01X351690Y252225D01*
G01X351828Y252203D01*
G01X351964Y252177D01*
G01X351984Y252179D01*
G01X352004Y252175D01*
G01X352143Y252189D01*
G01X352281Y252197D01*
G01X352300Y252203D01*
G01X352320Y252205D01*
G01X352451Y252252D01*
G01X352583Y252295D01*
G01X352601Y252306D01*
G01X352620Y252313D01*
G01X352734Y252391D01*
G01X352852Y252465D01*
G01X352866Y252480D01*
G01X352883Y252491D01*
G01X352975Y252595D01*
G01X353070Y252697D01*
G01X353080Y252715D01*
G01X353093Y252730D01*
G01X353156Y252854D01*
G01X353224Y252975D01*
G01X353229Y252995D01*
G01X353238Y253013D01*
G01X353268Y253149D01*
G01X353303Y253283D01*
G01X353305Y253311D01*
G01X353308Y253323D01*
G01X353307Y253344D01*
G01X353313Y253444D01*
G01Y326644D01*
G01X353298Y326762D01*
G01X353291Y326881D01*
G01X353278Y326919D01*
G01X353273Y326960D01*
G01X353230Y327070D01*
G01X353193Y327183D01*
G01X353171Y327218D01*
G01X353156Y327255D01*
G01X353087Y327351D01*
G01X353023Y327452D01*
G01X352993Y327480D01*
G01X352970Y327513D01*
G01X352878Y327589D01*
G01X352791Y327670D01*
G01X352756Y327690D01*
G01X352725Y327715D01*
G01X352617Y327766D01*
G01X352513Y327824D01*
G01X352473Y327834D01*
G01X352437Y327851D01*
G01X352320Y327873D01*
G01X352205Y327903D01*
G01X352145Y327907D01*
G01X352125Y327911D01*
G01X352104Y327909D01*
G01X352044Y327913D01*
G01X306866D01*
G01Y253441D01*
G01X325661D01*
G01Y246689D01*
G01X304659D01*
G01Y241611D01*
G01X325661D01*
G01Y234859D01*
G01X306866D01*
G01Y196941D01*
G01X325661D01*
G01Y190189D01*
G01X304659D01*
G01Y185111D01*
G01X325661D01*
G01Y178359D01*
G01X306866D01*
G01X306219Y178532D01*
G01X305640Y178867D01*
G01X305167Y179340D01*
G01X304832Y179919D01*
G01X304659Y180566D01*
G01Y185111D01*
G01Y190189D01*
G01Y194734D01*
G01X304832Y195381D01*
G01X305167Y195960D01*
G01X305640Y196433D01*
G01X306219Y196768D01*
G01X306866Y196941D01*
G01Y234859D01*
G01X306219Y235032D01*
G01X305640Y235367D01*
G01X305167Y235840D01*
G01X304832Y236419D01*
G01X304659Y237066D01*
G01Y241611D01*
G01Y246689D01*
G01Y251234D01*
G01X304832Y251881D01*
G01X305167Y252460D01*
G01X305640Y252933D01*
G01X306219Y253268D01*
G01X306866Y253441D01*
G01Y327913D01*
G01X289559D01*
G01Y316485D01*
G01X289816Y316445D01*
G01X291603Y315864D01*
G01X293277Y315011D01*
G01X294798Y313906D01*
G01X296126Y312578D01*
G01X297231Y311057D01*
G01X298084Y309383D01*
G01X298665Y307596D01*
G01X298705Y307339D01*
G01X289559D01*
G01Y302261D01*
G01X298705D01*
G01X298665Y302004D01*
G01X298084Y300217D01*
G01X297231Y298543D01*
G01X296126Y297022D01*
G01X294798Y295694D01*
G01X293277Y294589D01*
G01X291603Y293736D01*
G01X289816Y293155D01*
G01X289559Y293115D01*
G01Y302261D01*
G01Y307339D01*
G01Y316485D01*
G01Y327913D01*
G01X287019D01*
G01Y304801D01*
G01X287021D01*
G01Y304799D01*
G01X287019D01*
G01Y304801D01*
G01Y327913D01*
G01X284481D01*
G01Y316485D01*
G01Y307339D01*
G01X275335D01*
G01Y302261D01*
G01X284481D01*
G01Y293115D01*
G01X284224Y293155D01*
G01X282437Y293736D01*
G01X280763Y294589D01*
G01X279242Y295694D01*
G01X277914Y297022D01*
G01X276809Y298543D01*
G01X275956Y300217D01*
G01X275375Y302004D01*
G01X275335Y302261D01*
G01Y307339D01*
G01X275375Y307596D01*
G01X275956Y309383D01*
G01X276809Y311057D01*
G01X277914Y312578D01*
G01X279242Y313906D01*
G01X280763Y315011D01*
G01X282437Y315864D01*
G01X284224Y316445D01*
G01X284481Y316485D01*
G01Y327913D01*
G01X251335D01*
G01Y318199D01*
G01X256665D01*
G01X261590Y316159D01*
G01X265359Y312390D01*
G01X267399Y307465D01*
G01Y302135D01*
G01X265359Y297210D01*
G01X261590Y293441D01*
G01X256665Y291401D01*
G01X251335D01*
G01X246410Y293441D01*
G01X242641Y297210D01*
G01X240601Y302135D01*
G01Y307465D01*
G01X242641Y312390D01*
G01X246410Y316159D01*
G01X251335Y318199D01*
G01Y327913D01*
G01X77767D01*
G01Y200755D01*
G01X81745D01*
G01X85421Y199233D01*
G01X88235Y196419D01*
G01X89757Y192743D01*
G01Y188765D01*
G01X88235Y185089D01*
G01X85421Y182275D01*
G01X81745Y180753D01*
G01X77767D01*
G01X74091Y182275D01*
G01X71277Y185089D01*
G01X69755Y188765D01*
G01Y192743D01*
G01X71277Y196419D01*
G01X74091Y199233D01*
G01X77767Y200755D01*
G01Y327913D01*
G01X42639D01*
G01Y253441D01*
G01X61434D01*
G01X62081Y253268D01*
G01X62660Y252933D01*
G01X63133Y252460D01*
G01X63468Y251881D01*
G01X63641Y251234D01*
G01Y246689D01*
G01X42639D01*
G01Y241611D01*
G01X63641D01*
G01Y237066D01*
G01X63468Y236419D01*
G01X63133Y235840D01*
G01X62660Y235367D01*
G01X62081Y235032D01*
G01X61434Y234859D01*
G01X42639D01*
G01Y196941D01*
G01X61434D01*
G01X62081Y196768D01*
G01X62660Y196433D01*
G01X63133Y195960D01*
G01X63468Y195381D01*
G01X63641Y194734D01*
G01Y190189D01*
G01X42639D01*
G01Y185111D01*
G01X63641D01*
G01Y180566D01*
G01X63468Y179919D01*
G01X63133Y179340D01*
G01X62660Y178867D01*
G01X62081Y178532D01*
G01X61434Y178359D01*
G01X42639D01*
G01Y185111D01*
G01Y190189D01*
G01Y196941D01*
G01Y234859D01*
G01Y241611D01*
G01Y246689D01*
G01Y253441D01*
G01Y327913D01*
G01X18796D01*
G01X18678Y327898D01*
G01X18559Y327891D01*
G01X18521Y327878D01*
G01X18480Y327873D01*
G01X18370Y327830D01*
G01X18257Y327793D01*
G01X18222Y327771D01*
G01X18185Y327756D01*
G01X18089Y327687D01*
G01X17988Y327623D01*
G01X17960Y327593D01*
G01X17927Y327570D01*
G01X17851Y327478D01*
G01X17770Y327391D01*
G01X17750Y327356D01*
G01X17725Y327325D01*
G01X17674Y327217D01*
G01X17616Y327113D01*
G01X17606Y327073D01*
G01X17589Y327037D01*
G01X17567Y326920D01*
G01X17537Y326805D01*
G01X17533Y326745D01*
G01X17529Y326725D01*
G01X17531Y326704D01*
G01X17527Y326644D01*
G01Y254710D01*
G01X17542Y254592D01*
G01X17549Y254473D01*
G01X17562Y254435D01*
G01X17567Y254394D01*
G01X17610Y254284D01*
G01X17647Y254171D01*
G01X17669Y254136D01*
G01X17684Y254099D01*
G01X17754Y254002D01*
G01X17817Y253902D01*
G01X17847Y253874D01*
G01X17870Y253841D01*
G01X17962Y253765D01*
G01X18049Y253684D01*
G01X18084Y253664D01*
G01X18115Y253639D01*
G01X18223Y253588D01*
G01X18327Y253530D01*
G01X18367Y253520D01*
G01X18403Y253503D01*
G01X18520Y253481D01*
G01X18635Y253451D01*
G01X18695Y253447D01*
G01X18715Y253443D01*
G01X18736Y253445D01*
G01X18796Y253441D01*
G01X37561D01*
G01Y245420D01*
G01X37576Y245302D01*
G01X37583Y245183D01*
G01X37596Y245145D01*
G01X37601Y245105D01*
G01X37644Y244994D01*
G01X37681Y244881D01*
G01X37703Y244846D01*
G01X37718Y244809D01*
G01X37788Y244713D01*
G01X37851Y244612D01*
G01X37881Y244584D01*
G01X37905Y244552D01*
G01X37996Y244476D01*
G01X38083Y244394D01*
G01X38118Y244375D01*
G01X38149Y244349D01*
G01X38257Y244298D01*
G01X38361Y244241D01*
G01X38401Y244230D01*
G01X38437Y244213D01*
G01X38554Y244191D01*
G01X38669Y244161D01*
G01X38730Y244157D01*
G01X38750Y244153D01*
G01X38770Y244155D01*
G01X38830Y244151D01*
G01X40101D01*
G01Y244149D01*
G01X38830D01*
G01X38712Y244134D01*
G01X38593Y244127D01*
G01X38555Y244114D01*
G01X38515Y244109D01*
G01X38404Y244065D01*
G01X38291Y244029D01*
G01X38256Y244007D01*
G01X38219Y243992D01*
G01X38123Y243922D01*
G01X38022Y243859D01*
G01X37994Y243829D01*
G01X37961Y243805D01*
G01X37886Y243714D01*
G01X37804Y243627D01*
G01X37784Y243592D01*
G01X37759Y243560D01*
G01X37708Y243453D01*
G01X37650Y243349D01*
G01X37640Y243309D01*
G01X37623Y243273D01*
G01X37601Y243156D01*
G01X37571Y243041D01*
G01X37567Y242980D01*
G01X37563Y242960D01*
G01X37565Y242940D01*
G01X37561Y242880D01*
G01Y234859D01*
G01X18796D01*
G01X18678Y234844D01*
G01X18559Y234837D01*
G01X18521Y234824D01*
G01X18480Y234819D01*
G01X18370Y234776D01*
G01X18257Y234739D01*
G01X18222Y234717D01*
G01X18185Y234702D01*
G01X18089Y234633D01*
G01X17988Y234569D01*
G01X17960Y234539D01*
G01X17927Y234516D01*
G01X17851Y234424D01*
G01X17770Y234337D01*
G01X17750Y234302D01*
G01X17725Y234271D01*
G01X17674Y234163D01*
G01X17616Y234059D01*
G01X17606Y234019D01*
G01X17589Y233983D01*
G01X17567Y233866D01*
G01X17537Y233751D01*
G01X17533Y233691D01*
G01X17529Y233671D01*
G37*
D14*
X328200Y187650D03*
Y244150D03*
X40100D03*
Y187650D03*
D15*
X254000Y304800D03*
X287020D03*
D16*
X75438Y237490D03*
X102870Y190500D03*
X127000Y193040D03*
X169418Y233680D03*
X195834D03*
X194310Y197104D03*
X216408Y197358D03*
X285750Y271780D03*
X135890Y237490D03*
X285750Y195580D03*
X93472Y257556D03*
X260350Y238760D03*
X146050Y262890D03*
X283210Y237490D03*
X240030Y196850D03*
X107950Y240030D03*
X265430Y194310D03*
X184150Y262890D03*
X240030Y240030D03*
X79756Y190754D03*
M02*

