;           Gerber:: Drill Report             
;           =====================             
;    Unit                   : metric
;    Format                 : 2.4, Leading Zeros Suppressed
;    Co-ordinate data Mode  : Absolute Data mode
;+----------------------------------------+
;|  D R I L L   T O O L S   T A B L E     |
;+----------------------------------------+
;|    Drill    |    Tool    |    Drill    |
;|    Tool     |    Size    |    Count    |
;+----------------------------------------+
;|          T01|    0.800000|           20|
;|          T02|    1.016000|            2|
;+----------------------------------------+

M48

METRIC,LZ,00.0000
T01C0.800000
T02C1.016000
%
M71
G90
T01
X07976Y19075
X10795Y24003
X07544Y23749
X10287Y1905
X127Y19304
X16942Y23368
X13589Y23749
X09347Y25756
X14605Y26289
X24003Y24003
X26543Y19431
X19583Y23368
X19431Y1971
X21641Y19736
X28575Y27178
Y19558
X26035Y23876
X28321Y23749
X24003Y19685
X18415Y26289
T02
X254Y3048
X28702

M30
