<?xml version="1.0" encoding="UTF-8" standalone="no"?><!DOCTYPE svg PUBLIC "-//W3C//DTD SVG 1.1//EN" "http://www.w3.org/Graphics/SVG/1.1/DTD/svg11.dtd"><svg width="100%" height="100%" viewBox="0 0 389 220" version="1.1" xmlns="http://www.w3.org/2000/svg" xmlns:xlink="http://www.w3.org/1999/xlink" xml:space="preserve" xmlns:serif="http://www.serif.com/" style="fill-rule:evenodd;clip-rule:evenodd;stroke-linejoin:round;stroke-miterlimit:10;"><g id="Capa-1" serif:id="Capa 1"><path d="M7.16,80.901l9.769,0" style="fill:none;fill-rule:nonzero;stroke:#0b060c;stroke-width:1px;"/><path d="M270.435,80.112l20.949,-10.476l-20.949,-10.474l0,20.95Z" style="fill:#aedabb;fill-rule:nonzero;stroke:#0b060c;stroke-width:1.5px;"/><path d="M218.926,179.483c0,-6.593 5.352,-11.945 11.945,-11.945c6.616,0 11.946,5.352 11.946,11.945c0,6.616 -5.33,11.946 -11.946,11.946c-6.593,0 -11.945,-5.33 -11.945,-11.946" style="fill:#f9b7bb;fill-rule:nonzero;stroke:#0b060c;stroke-width:1px;"/><path d="M291.385,190.762l-20.951,-10.476l20.951,-10.475l0,20.951Z" style="fill:#f9b7bb;fill-rule:nonzero;stroke:#0b060c;stroke-width:1px;"/><path d="M82.433,81.084c0,-6.593 5.444,-11.945 12.129,-11.945c6.707,0 12.129,5.352 12.129,11.945c0,6.616 -5.422,11.946 -12.129,11.946c-6.685,0 -12.129,-5.33 -12.129,-11.946" style="fill:#aedabb;fill-rule:nonzero;stroke:#0b060c;stroke-width:1px;"/><path d="M91.572,77.96c1.928,0 3.726,1.584 3.726,3.491" style="fill:none;fill-rule:nonzero;stroke:#0b060c;stroke-width:1px;"/><path d="M87.946,81.451c0,-1.907 1.812,-3.491 3.626,-3.491" style="fill:none;fill-rule:nonzero;stroke:#0b060c;stroke-width:1px;"/><path d="M98.789,84.944c-1.906,-0.001 -3.491,-1.563 -3.491,-3.493" style="fill:none;fill-rule:nonzero;stroke:#0b060c;stroke-width:1px;"/><path d="M102.28,81.451c0,1.93 -1.562,3.492 -3.491,3.492" style="fill:none;fill-rule:nonzero;stroke:#0b060c;stroke-width:1px;"/><path d="M76.082,80.901l6.351,0" style="fill:none;fill-rule:nonzero;stroke:#0b060c;stroke-width:1px;"/><path d="M242.45,180.402l27.983,0" style="fill:none;fill-rule:nonzero;stroke:#0b060c;stroke-width:1px;"/><path d="M205.228,180.402l13.652,0" style="fill:none;fill-rule:nonzero;stroke:#0b060c;stroke-width:1px;"/><path d="M239.233,171.212l-17,17" style="fill:none;fill-rule:nonzero;stroke:#0b060c;stroke-width:1px;"/><path d="M222.233,171.212l17,17" style="fill:none;fill-rule:nonzero;stroke:#0b060c;stroke-width:1px;"/><rect x="16.452" y="71.71" width="32.344" height="20.584" style="fill:none;stroke:#0b060c;stroke-width:1px;"/><path d="M241.602,121.47l-21.14,0l10.571,18.436l10.569,-18.436Z" style="fill:#aedabb;fill-rule:nonzero;stroke:#0b060c;stroke-width:1px;stroke-linejoin:miter;"/><path d="M231.032,139.873l0,26.96l0,-26.96Z" style="fill:none;fill-rule:nonzero;stroke:#0b060c;stroke-width:1px;stroke-linejoin:miter;"/><path d="M106.769,81.451l0.169,0m-0.169,0l18.288,0" style="fill:none;fill-rule:nonzero;stroke:#231f20;stroke-width:1px;stroke-linejoin:miter;"/><rect x="125.058" y="69.646" width="23.613" height="23.612" style="fill:#aedabb;stroke:#231f20;stroke-width:1px;stroke-linejoin:miter;"/><path d="M132.142,86.174l0,-9.444" style="fill:none;fill-rule:nonzero;stroke:#231f20;stroke-width:1px;stroke-linejoin:miter;"/><path d="M141.586,86.174l0,-9.444" style="fill:none;fill-rule:nonzero;stroke:#231f20;stroke-width:1px;stroke-linejoin:miter;"/><path d="M129.78,76.73l14.167,0" style="fill:none;fill-rule:nonzero;stroke:#231f20;stroke-width:1px;stroke-linejoin:miter;"/><path d="M18.208,87.654l7.983,-11.349l5.881,11.349l7.984,-11.349l7.087,11.303" style="fill:none;fill-rule:nonzero;stroke:#0b060c;stroke-width:1px;"/><path d="M230.313,100.904l0,20.565" style="fill:none;fill-rule:nonzero;stroke:#0b060c;stroke-width:1px;"/><path d="M58.433,80.901l-9.42,0" style="fill:none;fill-rule:nonzero;stroke:#0b060c;stroke-width:1px;"/><path d="M58.433,80.901l17.649,0" style="fill:none;fill-rule:nonzero;stroke:#0b060c;stroke-width:1px;stroke-linejoin:miter;"/><rect x="146.851" y="163.479" width="57.813" height="33.074" style="fill:none;stroke:#0b060c;stroke-width:0.84px;stroke-linejoin:miter;"/><text x="11.208px" y="66.661px" style="font-family:'Roboto-Regular', 'Roboto';font-size:10px;fill:#0b060c;">M<tspan x="19.789px 25.343px 30.833px 36.197px 38.474px 43.764px 46.784px 52.338px " y="66.661px 66.661px 66.661px 66.661px 66.661px 66.661px 66.661px 66.661px ">odulator</tspan></text><text x="83.338px" y="65.661px" style="font-family:'Roboto-Regular', 'Roboto';font-size:10px;fill:#0b060c;">V<tspan x="90.178px 97.228px " y="65.661px 65.661px ">CO</tspan></text><g><text x="180.098px" y="41.741px" style="font-family:'Roboto-Regular', 'Roboto';font-size:10px;fill:#0b060c;">Pow<tspan x="199.748px " y="41.741px ">e</tspan>r</text><text x="178.708px" y="52.441px" style="font-family:'Roboto-Regular', 'Roboto';font-size:10px;fill:#0b060c;">Sp<tspan x="190.126px 192.49px 194.854px 198.059px 201.263px " y="52.441px 52.441px 52.441px 52.441px 52.441px ">litte</tspan>r</text></g><g><text x="264.738px" y="43.651px" style="font-family:'Roboto-Regular', 'Roboto';font-size:10px;fill:#0b060c;">Pow<tspan x="284.388px " y="43.651px ">e</tspan>r</text><text x="259.458px" y="54.351px" style="font-family:'Roboto-Regular', 'Roboto';font-size:10px;fill:#0b060c;">A<tspan x="265.808px 274.399px 279.836px 282.089px 284.342px 287.64px 289.894px 295.018px " y="54.351px 54.351px 54.351px 54.351px 54.351px 54.351px 54.351px 54.351px ">mplifier</tspan></text></g><text x="220.618px" y="211.291px" style="font-family:'ArialMT', 'Arial', sans-serif;font-size:10px;fill:#0b060c;">M<tspan x="228.667px 230.608px 235.327px 240.607px " y="211.291px 211.291px 211.291px 211.291px ">ixer</tspan></text><g><text x="261.028px" y="205.941px" style="font-family:'ArialMT', 'Arial', sans-serif;font-size:10px;fill:#0b060c;">L<tspan x="266.215px 271.403px 278.25px 280.654px 287.502px 292.689px 294.536px 299.162px " y="205.941px 205.941px 205.941px 205.941px 205.941px 205.941px 205.941px 205.941px ">ow Noise</tspan></text><text x="263.297px" y="216.631px" style="font-family:'ArialMT', 'Arial', sans-serif;font-size:10px;fill:#0b060c;">Am<tspan x="278.17px 283.669px 285.827px 287.985px 290.7px 292.859px 298.357px " y="216.631px 216.631px 216.631px 216.631px 216.631px 216.631px 216.631px ">plifier</tspan></text></g><text x="336.907px" y="50.283px" style="font-family:'Roboto-Regular', 'Roboto';font-size:10px;fill:#0b060c;">TX<tspan x="349.285px 352.503px 358.013px 363.602px 366.939px 372.308px 377.896px 383.485px " y="50.283px 50.283px 50.283px 50.283px 50.283px 50.283px 50.283px 50.283px "> antenna</tspan></text><g><text x="340.797px" y="167.533px" style="font-family:'ArialMT', 'Arial', sans-serif;font-size:10px;fill:#0b060c;">R<tspan x="347.563px " y="167.533px ">X</tspan></text><text x="354.057px" y="167.533px" style="font-family:'ArialMT', 'Arial', sans-serif;font-size:10px;fill:#0b060c;">a<tspan x="359.162px 364.268px 366.59px 371.696px 376.802px 381.907px " y="167.533px 167.533px 167.533px 167.533px 167.533px 167.533px ">ntenna</tspan></text></g><text x="113.058px" y="64.672px" style="font-family:'Roboto-Regular', 'Roboto';font-size:10px;fill:#0b060c;">A<tspan x="119.409px 122.586px 125.763px 130.972px 136.4px 141.824px 147.174px 150.254px " y="64.672px 64.672px 64.672px 64.672px 64.672px 64.672px 64.672px 64.672px ">ttenuato</tspan>r</text><g><text x="246.138px" y="128.132px" style="font-family:'Roboto-Regular', 'Roboto';font-size:10px;fill:#0b060c;">Pow<tspan x="265.787px " y="128.132px ">e</tspan>r</text><text x="240.858px" y="138.832px" style="font-family:'Roboto-Regular', 'Roboto';font-size:10px;fill:#0b060c;">A<tspan x="247.208px 255.799px 261.235px 263.489px 265.742px 269.04px 271.293px 276.418px " y="138.832px 138.832px 138.832px 138.832px 138.832px 138.832px 138.832px 138.832px ">mplifier</tspan></text></g><g><text x="17.611px" y="102.661px" style="font-family:'Arial-ItalicMT', 'Arial', sans-serif;font-style:italic;font-size:7px;fill:#0b060c;">MCP47<tspan x="41.054px " y="102.661px ">2</tspan>5</text><text x="30.057px" y="111.061px" style="font-family:'Arial-ItalicMT', 'Arial', sans-serif;font-style:italic;font-size:7px;fill:#0b060c;">o<tspan x="34.075px " y="111.061px ">r</tspan></text><text x="3.996px" y="119.461px" style="font-family:'Arial-ItalicMT', 'Arial', sans-serif;font-style:italic;font-size:7px;fill:#0b060c;">Function Generat<tspan x="58.188px " y="119.461px ">o</tspan>r</text></g><g><text x="154.091px" y="176.999px" style="font-family:'ArialMT', 'Arial', sans-serif;font-size:10px;fill:#0b060c;">B<tspan x="160.16px 165.12px 169.519px 174.479px 179.44px 184.4px 189.361px " y="176.999px 176.999px 176.999px 176.999px 176.999px 176.999px 176.999px ">aseband</tspan></text><text x="153.281px" y="188.999px" style="font-family:'ArialMT', 'Arial', sans-serif;font-size:10px;fill:#0b060c;">P<tspan x="159.412px 162.204px 167.227px 171.688px 176.711px 181.173px 185.635px 187.318px 192.341px " y="188.999px 188.999px 188.999px 188.999px 188.999px 188.999px 188.999px 188.999px 188.999px ">rocessing</tspan></text></g><path d="M291.385,69.637l39.686,0m-0.2,0l0,-59.527" style="fill:none;fill-rule:nonzero;stroke:#231f20;stroke-width:0.75px;stroke-linejoin:miter;"/><path d="M330.871,10.11l9.921,0l-9.921,19.843l-9.921,-19.843l9.921,0" style="fill:none;fill-rule:nonzero;stroke:#231f20;stroke-width:0.75px;stroke-linejoin:miter;"/><path d="M345.952,10.11c3.544,6.139 3.544,13.704 0,19.843m4.96,-22.323c4.431,7.672 4.431,17.129 0,24.802m4.961,-27.283c5.316,9.208 5.316,20.556 0,29.764m4.961,-32.244c6.202,10.742 6.202,23.982 0,34.724m4.961,-37.205c7.088,12.277 7.088,27.408 0,39.686" style="fill:none;fill-rule:nonzero;stroke:#231f20;stroke-width:0.75px;stroke-linejoin:miter;"/><path d="M291.385,180.577l39.685,0m-0.199,0l0,-59.527" style="fill:none;fill-rule:nonzero;stroke:#231f20;stroke-width:0.75px;stroke-linejoin:miter;"/><path d="M330.871,121.05l9.921,0l-9.921,19.843l-9.921,-19.843l9.921,0" style="fill:none;fill-rule:nonzero;stroke:#231f20;stroke-width:0.75px;stroke-linejoin:miter;"/><path d="M350.913,111.128c-7.088,12.277 -7.088,27.408 0,39.686m4.961,-37.206c-6.202,10.743 -6.202,23.983 0,34.725m4.96,-32.244c-5.316,9.208 -5.316,20.556 0,29.764m4.961,-27.284c-4.43,7.673 -4.43,17.13 0,24.803m4.961,-22.322c-3.544,6.139 -3.544,13.704 0,19.843" style="fill:none;fill-rule:nonzero;stroke:#231f20;stroke-width:0.75px;stroke-linejoin:miter;"/><rect x="172.339" y="58.974" width="43.853" height="43.853" style="fill:#aedabb;stroke:#231f20;stroke-width:0.75px;stroke-linejoin:miter;"/><path d="M148.952,80.901l34.35,0m87.132,-10.964l-65.206,0l-21.926,10.964l21.926,10.963l10.963,0" style="fill:none;fill-rule:nonzero;stroke:#231f20;stroke-width:0.75px;stroke-linejoin:miter;"/><path d="M205.228,86.721l-2.056,-1.281l4.112,-1.883l-4.112,-1.884l4.112,-1.884l-4.112,-1.883l4.112,-1.884l-2.056,-0.943" style="fill:none;fill-rule:nonzero;stroke:#231f20;stroke-width:0.75px;stroke-linejoin:bevel;"/><path d="M205.228,69.937l0,5.481m0,10.964l0,5.482" style="fill:none;fill-rule:nonzero;stroke:#231f20;stroke-width:0.75px;stroke-linejoin:bevel;"/><path d="M216.191,91.863l14.122,0l0,9.041" style="fill:none;fill-rule:nonzero;stroke:#0b060c;stroke-width:1px;"/></g></svg>