<?xml version="1.0" encoding="UTF-8" standalone="no"?><!DOCTYPE svg PUBLIC "-//W3C//DTD SVG 1.1//EN" "http://www.w3.org/Graphics/SVG/1.1/DTD/svg11.dtd"><svg width="100%" height="100%" viewBox="0 0 457 258" version="1.1" xmlns="http://www.w3.org/2000/svg" xmlns:xlink="http://www.w3.org/1999/xlink" xml:space="preserve" xmlns:serif="http://www.serif.com/" style="fill-rule:evenodd;clip-rule:evenodd;stroke-linejoin:round;stroke-miterlimit:10;"><g id="Capa-1" serif:id="Capa 1"><rect x="166.939" y="0.25" width="288.815" height="256.726" style="fill:#cfddd3;"/><rect x="166.939" y="0.25" width="288.815" height="256.725" style="fill:none;stroke:#4c8ea5;stroke-width:0.5px;"/><path d="M166.939,0.25l0,0.129l3.732,11.5l3.733,10.469l3.733,9.531l3.733,8.675l3.734,7.897l3.732,7.189l3.734,6.544l3.732,5.958l3.733,5.423l3.734,4.937l3.733,4.494l3.733,4.091l3.732,3.725l3.733,3.39l3.732,3.085l3.735,2.81l3.733,2.557l3.732,2.328l3.733,2.12l3.733,1.928l3.734,1.757l3.733,1.598l3.732,1.456l3.733,1.325l3.733,1.206l3.734,1.098l3.732,0.999l3.733,0.909l3.733,0.828l3.733,0.755l3.733,0.685l3.733,0.625l3.733,0.569l3.734,0.517l3.732,0.472l3.733,0.429l3.733,0.391l3.734,0.355l3.732,0.324l3.733,0.295l3.733,0.268l3.733,0.244l3.734,0.222l3.732,0.203l3.733,0.183l3.733,0.168l3.733,0.153l3.734,0.138l3.732,0.127l32.09,0l0.127,-0.727l0.377,-1.979l0.623,-1.917l0.858,-1.824l1.08,-1.701l1.284,-1.552l1.469,-1.38l1.631,-1.183l1.766,-0.971l1.872,-0.742l1.953,-0.501l1.999,-0.253l2.015,0l1.998,0.253l1.953,0.501l1.872,0.742l1.766,0.971l1.631,1.183l1.469,1.38l1.284,1.552l1.079,1.701l0.859,1.824l0.623,1.917l0.377,1.979l0.127,2.01l-0.127,2.012l-0.377,1.979l-0.623,1.916l-0.859,1.824l-1.079,1.701l-1.284,1.553l-1.469,1.379l-1.631,1.184l-1.766,0.97l-1.872,0.743l-1.953,0.501l-1.998,0.252l-2.015,0l-1.999,-0.252l-1.953,-0.501l-1.872,-0.743l-1.766,-0.97l-1.631,-1.184l-1.469,-1.379l-1.284,-1.553l-1.08,-1.701l-0.858,-1.824l-0.623,-1.916l-0.377,-1.979l-0.127,-0.727l-32.09,0l-3.732,0.126l-3.734,0.138l-3.733,0.153l-3.733,0.168l-3.733,0.184l-3.732,0.203l-3.734,0.222l-3.733,0.244l-3.733,0.268l-3.733,0.294l-3.732,0.324l-3.734,0.356l-3.733,0.391l-3.733,0.428l-3.732,0.472l-3.734,0.517l-3.733,0.569l-3.733,0.624l-3.733,0.686l-3.733,0.754l-3.733,0.828l-3.733,0.91l-3.732,0.999l-3.734,1.099l-3.733,1.205l-3.733,1.326l-3.732,1.454l-3.733,1.6l-3.734,1.756l-3.733,1.929l-3.733,2.119l-3.732,2.328l-3.733,2.558l-3.735,2.808l-3.732,3.087l-3.733,3.39l-3.732,3.724l-3.733,4.091l-3.733,4.495l-3.734,4.936l-3.733,5.423l-3.732,5.958l-3.734,6.543l-3.732,7.191l-3.734,7.897l-3.733,8.675l-3.733,9.53l-3.733,10.47l-3.732,11.499l0,0.13l288.815,0l0,-256.726l-288.815,0Z" style="fill:#7ac8a1;fill-rule:nonzero;"/><path d="M455.754,256.975l0,-256.725l-288.815,0l0,0.128l3.732,11.5l3.733,10.47l3.733,9.53l3.733,8.675l3.734,7.898l3.732,7.189l3.733,6.544l3.733,5.958l3.733,5.423l3.734,4.937l3.732,4.494l3.733,4.091l3.733,3.724l3.733,3.39l3.733,3.086l3.733,2.81l3.734,2.557l3.732,2.328l3.733,2.119l3.733,1.929l3.733,1.757l3.734,1.598l3.732,1.455l3.733,1.325l3.733,1.206l3.733,1.098l3.733,0.999l3.733,0.91l3.733,0.828l3.733,0.754l3.733,0.686l3.733,0.625l3.733,0.569l3.733,0.517l3.733,0.472l3.733,0.429l3.733,0.39l3.733,0.356l3.733,0.324l3.733,0.294l3.733,0.268l3.733,0.244l3.733,0.222l3.733,0.203l3.733,0.184l3.733,0.168l3.733,0.152l3.733,0.139l3.733,0.127l32.09,0l0.127,-0.728l0.377,-1.979l0.623,-1.917l0.858,-1.823l1.08,-1.701l1.284,-1.553l1.469,-1.379l1.631,-1.184l1.765,-0.971l1.873,-0.742l1.952,-0.501l1.999,-0.252l2.015,0l1.999,0.252l1.952,0.501l1.873,0.742l1.766,0.971l1.631,1.184l1.469,1.379l1.284,1.553l1.079,1.701l0.858,1.823l0.623,1.917l0.377,1.979l0.127,2.011l-0.127,2.011l-0.377,1.979l-0.623,1.917l-0.858,1.823l-1.079,1.701l-1.284,1.553l-1.469,1.379l-1.631,1.185l-1.766,0.97l-1.873,0.742l-1.952,0.501l-1.999,0.253l-2.015,0l-1.999,-0.253l-1.952,-0.501l-1.873,-0.742l-1.765,-0.97l-1.631,-1.185l-1.469,-1.379l-1.284,-1.553l-1.08,-1.701l-0.858,-1.823l-0.623,-1.917l-0.377,-1.979l-0.127,-0.727l-32.09,0l-3.733,0.126l-3.733,0.139l-3.733,0.153l-3.733,0.167l-3.733,0.184l-3.733,0.203l-3.733,0.222l-3.733,0.244l-3.733,0.268l-3.733,0.295l-3.733,0.324l-3.733,0.355l-3.733,0.391l-3.733,0.429l-3.733,0.471l-3.733,0.518l-3.733,0.569l-3.733,0.624l-3.733,0.686l-3.733,0.754l-3.733,0.828l-3.733,0.91l-3.733,0.999l-3.733,1.098l-3.733,1.206l-3.733,1.325l-3.732,1.455l-3.734,1.599l-3.733,1.756l-3.733,1.929l-3.733,2.12l-3.732,2.328l-3.734,2.557l-3.733,2.809l-3.733,3.087l-3.733,3.389l-3.733,3.725l-3.733,4.091l-3.732,4.494l-3.734,4.937l-3.733,5.422l-3.733,5.958l-3.733,6.544l-3.732,7.19l-3.734,7.897l-3.733,8.676l-3.733,9.529l-3.733,10.47l-3.732,11.5l0,0.129l288.815,0" style="fill:none;fill-rule:nonzero;stroke:#0074b7;stroke-width:0.5px;"/><path d="M455.754,185.092l0,-9.628l-5.705,0l-5.705,0l-5.705,0l-5.705,0l-5.705,0l-5.705,0l-5.706,0l-5.704,0l-5.705,0l0,1.605l-6.579,0l-6.578,0l-6.579,0l-6.578,0l0,-0.072l0,-6.489l0,-6.489l0,-6.489l0,-6.489l0,-6.49l0,-6.489l0,-6.49l0,-6.489l16.994,-19.401l-1.668,-1.536l-1.79,-1.393l-1.898,-1.24l-1.995,-1.08l-2.077,-0.91l-2.144,-0.737l-2.199,-0.556l-2.237,-0.374l-2.26,-0.188l-2.267,0.001l-2.26,0.186l-2.237,0.374l-2.199,0.556l-2.144,0.738l-2.076,0.91l-1.995,1.08l-1.899,1.24l-1.789,1.392l-1.669,1.537l16.995,19.401l0,58.405l31.128,0l0,1.605l51.345,0" style="fill:#de9c3a;fill-rule:nonzero;stroke:#f04d2d;stroke-width:0.5px;"/><g><text x="250.648px" y="64.032px" style="font-family:'Roboto-Regular', 'Roboto';font-size:12px;fill:#0b060c;">M<tspan x="260.875px 263.538px 269.57px 273.264px 279.859px 285.797px 289.468px 293.28px 295.943px 302.426px 305.616px 309.169px " y="64.032px 64.032px 64.032px 64.032px 64.032px 64.032px 64.032px 64.032px 64.032px 64.032px 64.032px 64.032px ">icrostrip to</tspan></text><text x="240.292px" y="78.432px" style="font-family:'Roboto-Regular', 'Roboto';font-size:12px;fill:#0b060c;">s<tspan x="246.304px 249.041px 255.709px 259.454px 262.19px 264.927px 271.373px 277.555px 281.11px 284.855px 288.506px 294.858px 301.304px 307.316px 310.053px 313.798px 316.534px 323.203px " y="78.432px 78.432px 78.432px 78.432px 78.432px 78.432px 78.432px 78.432px 78.432px 78.432px 78.432px 78.432px 78.432px 78.432px 78.432px 78.432px 78.432px 78.432px ">lotline transition</tspan></text></g><text x="228.74px" y="248.78px" style="font-family:'Roboto-Regular', 'Roboto';font-size:12px;fill:#0b060c;">G<tspan x="237.058px 241.145px 248.132px 254.891px 261.656px 268.567px 271.82px 279.534px 282.59px 289.261px 296.025px " y="248.78px 248.78px 248.78px 248.78px 248.78px 248.78px 248.78px 248.78px 248.78px 248.78px 248.78px ">round Plane</tspan></text><text x="367.004px" y="231.992px" style="font-family:'Roboto-Regular', 'Roboto';font-size:12px;fill:#0b060c;">M<tspan x="377.307px 380.046px 386.154px 389.923px 396.594px 402.608px 406.354px 410.241px 412.98px 419.539px 422.761px 429.045px 431.783px 438.231px " y="231.992px 231.992px 231.992px 231.992px 231.992px 231.992px 231.992px 231.992px 231.992px 231.992px 231.992px 231.992px 231.992px 231.992px ">icrostrip Line</tspan></text><text x="425.056px" y="144.309px" style="font-family:'Roboto-Regular', 'Roboto';font-size:12px;fill:#0b060c;">Por<tspan x="443.728px " y="144.309px ">t</tspan></text><g><text x="180.907px" y="128.613px" style="font-family:'Roboto-Regular', 'Roboto';font-size:12px;fill:#0b060c;">T<tspan x="187.449px " y="128.613px ">a</tspan>pe<tspan x="207.197px " y="128.613px ">r</tspan>ed</text><text x="183.907px" y="143.013px" style="font-family:'Roboto-Regular', 'Roboto';font-size:12px;fill:#0b060c;">s<tspan x="189.861px 192.539px 199.149px 202.835px 205.514px 208.192px 214.579px " y="143.013px 143.013px 143.013px 143.013px 143.013px 143.013px 143.013px ">lotline</tspan></text></g><text x="39.213px" y="209.09px" style="font-family:'Roboto-Regular', 'Roboto';font-size:12px;fill:#0b060c;">Radiation <tspan x="93.015px " y="209.09px ">P</tspan>attern</text><path d="M355.626,118.27l-43.827,-31.069" style="fill:none;fill-rule:nonzero;stroke:#0b060c;stroke-width:1px;stroke-linejoin:miter;"/><path d="M306.875,83.711c2.926,0.783 6.84,1.354 9.724,1.063l-4.155,2.885l-1.346,4.874c-0.68,-2.817 -2.515,-6.321 -4.223,-8.822" style="fill:#0b060c;fill-rule:nonzero;"/><path d="M397.414,218.191l19.677,-29.4" style="fill:none;fill-rule:nonzero;stroke:#0b060c;stroke-width:1px;stroke-linejoin:miter;"/><path d="M420.447,183.775c-0.703,2.945 -1.169,6.874 -0.801,9.748l-2.996,-4.074l-4.908,-1.216c2.797,-0.756 6.251,-2.684 8.705,-4.458" style="fill:#0b060c;fill-rule:nonzero;"/><path d="M433.241,147.157l16.979,23.931" style="fill:none;fill-rule:nonzero;stroke:#0b060c;stroke-width:1px;stroke-linejoin:miter;"/><path d="M453.711,176.01c-2.502,-1.707 -6.008,-3.54 -8.824,-4.22l4.874,-1.348l2.883,-4.155c-0.289,2.883 0.283,6.797 1.067,9.723" style="fill:#0b060c;fill-rule:nonzero;"/><g opacity="0.5"><path d="M3.417,128.83c-0.632,3.656 2.075,9.019 5,13.412c6.718,10.087 25.771,8.101 36.588,6.823c44.99,-5.317 101.914,-16.654 120.706,-20.47l0,-0.468c-18.792,-3.816 -75.716,-15.154 -120.706,-20.47c-10.817,-1.279 -29.87,-3.264 -36.588,6.823c-2.925,4.393 -5.632,9.756 -5,13.412l0,0.938Z" style="fill:#00a3e4;fill-rule:nonzero;stroke:#0b060c;stroke-width:0.65px;stroke-linejoin:miter;"/><path d="M73.837,180.717c0.807,2.272 4.049,4.448 7.105,6.005c7.02,3.575 17.183,-3.62 22.904,-7.791c23.796,-17.346 52.435,-41.905 61.866,-50.054l-0.149,-0.265c-11.862,3.825 -47.726,15.537 -74.91,26.859c-6.535,2.722 -17.963,7.668 -18.555,15.522c-0.258,3.421 -0.083,7.323 1.44,9.193l0.299,0.531Z" style="fill:#00a3e4;fill-rule:nonzero;stroke:#0b060c;stroke-width:0.42px;stroke-linejoin:miter;"/><path d="M73.837,76.584c0.807,-2.273 4.049,-4.449 7.105,-6.006c7.02,-3.575 17.183,3.62 22.904,7.791c23.796,17.346 52.435,41.906 61.866,50.055l-0.149,0.264c-11.862,-3.825 -47.726,-15.537 -74.91,-26.858c-6.535,-2.723 -17.963,-7.668 -18.555,-15.523c-0.258,-3.421 -0.083,-7.322 1.44,-9.192l0.299,-0.531Z" style="fill:#00a3e4;fill-rule:nonzero;stroke:#0b060c;stroke-width:0.42px;stroke-linejoin:miter;"/></g></g></svg>